<ttFont>
    <TTGlyph name="A" xMin="20" yMin="0" xMax="181" yMax="700">
      <contour>
        <pt x="20" y="0" on="1"/>
        <pt x="98" y="700" on="1"/>
        <pt x="112" y="700" on="1"/>
        <pt x="181" y="0" on="1"/>
        <pt x="146" y="0" on="1"/>
        <pt x="125" y="230" on="1"/>
        <pt x="59" y="230" on="1"/>
        <pt x="34" y="0" on="1"/>
      </contour>
      <contour>
        <pt x="61" y="245" on="1"/>
        <pt x="124" y="245" on="1"/>
        <pt x="96" y="556" on="1"/>
      </contour>
    </TTGlyph>
    <TTGlyph name="AE" xMin="20" yMin="0" xMax="251" yMax="700">
      <contour>
        <pt x="20" y="0" on="1"/>
        <pt x="98" y="700" on="1"/>
        <pt x="251" y="700" on="1"/>
        <pt x="251" y="685" on="1"/>
        <pt x="131" y="685" on="1"/>
        <pt x="131" y="381" on="1"/>
        <pt x="231" y="381" on="1"/>
        <pt x="231" y="366" on="1"/>
        <pt x="131" y="366" on="1"/>
        <pt x="131" y="15" on="1"/>
        <pt x="251" y="15" on="1"/>
        <pt x="251" y="0" on="1"/>
        <pt x="96" y="0" on="1"/>
        <pt x="96" y="230" on="1"/>
        <pt x="59" y="230" on="1"/>
        <pt x="34" y="0" on="1"/>
      </contour>
      <contour>
        <pt x="96" y="245" on="1"/>
        <pt x="96" y="554" on="1"/>
        <pt x="61" y="245" on="1"/>
      </contour>
    </TTGlyph>
    <TTGlyph name="Aacute" xMin="20" yMin="0" xMax="181" yMax="840">
      <contour>
        <pt x="34" y="0" on="1"/>
        <pt x="59" y="230" on="1"/>
        <pt x="125" y="230" on="1"/>
        <pt x="146" y="0" on="1"/>
        <pt x="181" y="0" on="1"/>
        <pt x="112" y="700" on="1"/>
        <pt x="98" y="700" on="1"/>
        <pt x="20" y="0" on="1"/>
      </contour>
      <contour>
        <pt x="96" y="556" on="1"/>
        <pt x="124" y="245" on="1"/>
        <pt x="61" y="245" on="1"/>
      </contour>
      <contour>
        <pt x="151" y="840" on="1"/>
        <pt x="114" y="730" on="1"/>
        <pt x="98" y="730" on="1"/>
        <pt x="132" y="840" on="1"/>
      </contour>
    </TTGlyph>
    <TTGlyph name="Acircumflex" xMin="20" yMin="0" xMax="181" yMax="833">
      <contour>
        <pt x="20" y="0" on="1"/>
        <pt x="98" y="700" on="1"/>
        <pt x="112" y="700" on="1"/>
        <pt x="181" y="0" on="1"/>
        <pt x="146" y="0" on="1"/>
        <pt x="125" y="230" on="1"/>
        <pt x="59" y="230" on="1"/>
        <pt x="34" y="0" on="1"/>
      </contour>
      <contour>
        <pt x="61" y="245" on="1"/>
        <pt x="124" y="245" on="1"/>
        <pt x="96" y="556" on="1"/>
      </contour>
      <contour>
        <pt x="46" y="730" on="1"/>
        <pt x="106" y="833" on="1"/>
        <pt x="166" y="730" on="1"/>
        <pt x="154" y="730" on="1"/>
        <pt x="106" y="805" on="1"/>
        <pt x="58" y="730" on="1"/>
      </contour>
    </TTGlyph>
    <TTGlyph name="Adieresis" xMin="20" yMin="0" xMax="181" yMax="810">
      <contour>
        <pt x="34" y="0" on="1"/>
        <pt x="59" y="230" on="1"/>
        <pt x="125" y="230" on="1"/>
        <pt x="146" y="0" on="1"/>
        <pt x="181" y="0" on="1"/>
        <pt x="112" y="700" on="1"/>
        <pt x="98" y="700" on="1"/>
        <pt x="20" y="0" on="1"/>
      </contour>
      <contour>
        <pt x="96" y="556" on="1"/>
        <pt x="124" y="245" on="1"/>
        <pt x="61" y="245" on="1"/>
      </contour>
      <contour>
        <pt x="40" y="730" on="1"/>
        <pt x="38" y="810" on="1"/>
        <pt x="65" y="810" on="1"/>
        <pt x="63" y="730" on="1"/>
      </contour>
      <contour>
        <pt x="149" y="730" on="1"/>
        <pt x="147" y="810" on="1"/>
        <pt x="174" y="810" on="1"/>
        <pt x="172" y="730" on="1"/>
      </contour>
    </TTGlyph>
    <TTGlyph name="Agrave" xMin="20" yMin="0" xMax="181" yMax="840">
      <contour>
        <pt x="20" y="0" on="1"/>
        <pt x="98" y="700" on="1"/>
        <pt x="112" y="700" on="1"/>
        <pt x="181" y="0" on="1"/>
        <pt x="146" y="0" on="1"/>
        <pt x="125" y="230" on="1"/>
        <pt x="59" y="230" on="1"/>
        <pt x="34" y="0" on="1"/>
      </contour>
      <contour>
        <pt x="61" y="245" on="1"/>
        <pt x="124" y="245" on="1"/>
        <pt x="96" y="556" on="1"/>
      </contour>
      <contour>
        <pt x="78" y="840" on="1"/>
        <pt x="112" y="730" on="1"/>
        <pt x="96" y="730" on="1"/>
        <pt x="59" y="840" on="1"/>
      </contour>
    </TTGlyph>
    <TTGlyph name="Aring" xMin="20" yMin="0" xMax="181" yMax="857">
      <contour>
        <pt x="20" y="0" on="1"/>
        <pt x="98" y="700" on="1"/>
        <pt x="112" y="700" on="1"/>
        <pt x="181" y="0" on="1"/>
        <pt x="146" y="0" on="1"/>
        <pt x="125" y="230" on="1"/>
        <pt x="59" y="230" on="1"/>
        <pt x="34" y="0" on="1"/>
      </contour>
      <contour>
        <pt x="61" y="245" on="1"/>
        <pt x="124" y="245" on="1"/>
        <pt x="96" y="556" on="1"/>
      </contour>
      <contour>
        <pt x="42" y="794" on="1"/>
        <pt x="42" y="821" on="0"/>
        <pt x="78" y="857" on="0"/>
        <pt x="105" y="857" on="1"/>
        <pt x="132" y="857" on="0"/>
        <pt x="168" y="821" on="0"/>
        <pt x="168" y="794" on="1"/>
        <pt x="168" y="767" on="0"/>
        <pt x="132" y="731" on="0"/>
        <pt x="105" y="731" on="1"/>
        <pt x="78" y="731" on="0"/>
        <pt x="42" y="767" on="0"/>
      </contour>
      <contour>
        <pt x="57" y="794" on="1"/>
        <pt x="57" y="774" on="0"/>
        <pt x="85" y="746" on="0"/>
        <pt x="124" y="746" on="0"/>
        <pt x="152" y="774" on="0"/>
        <pt x="152" y="794" on="1"/>
        <pt x="152" y="814" on="0"/>
        <pt x="124" y="842" on="0"/>
        <pt x="85" y="842" on="0"/>
        <pt x="57" y="814" on="0"/>
      </contour>
    </TTGlyph>
    <TTGlyph name="Atilde" xMin="20" yMin="0" xMax="181" yMax="767">
      <contour>
        <pt x="34" y="0" on="1"/>
        <pt x="59" y="230" on="1"/>
        <pt x="125" y="230" on="1"/>
        <pt x="146" y="0" on="1"/>
        <pt x="181" y="0" on="1"/>
        <pt x="112" y="700" on="1"/>
        <pt x="98" y="700" on="1"/>
        <pt x="20" y="0" on="1"/>
      </contour>
      <contour>
        <pt x="96" y="556" on="1"/>
        <pt x="124" y="245" on="1"/>
        <pt x="61" y="245" on="1"/>
      </contour>
      <contour>
        <pt x="181" y="767" on="1"/>
        <pt x="178" y="730" on="0"/>
        <pt x="140" y="730" on="1"/>
        <pt x="122" y="730" on="0"/>
        <pt x="94" y="749" on="0"/>
        <pt x="80" y="758" on="0"/>
        <pt x="69" y="758" on="1"/>
        <pt x="50" y="758" on="0"/>
        <pt x="44" y="744" on="1"/>
        <pt x="41" y="738" on="0"/>
        <pt x="42" y="730" on="1"/>
        <pt x="31" y="730" on="1"/>
        <pt x="31" y="749" on="0"/>
        <pt x="54" y="767" on="0"/>
        <pt x="83" y="767" on="0"/>
        <pt x="99" y="758" on="0"/>
        <pt x="106" y="753" on="1"/>
        <pt x="126" y="739" on="0"/>
        <pt x="139" y="739" on="1"/>
        <pt x="158" y="739" on="0"/>
        <pt x="166" y="753" on="1"/>
        <pt x="170" y="759" on="0"/>
        <pt x="170" y="767" on="1"/>
      </contour>
    </TTGlyph>
    <TTGlyph name="B" xMin="20" yMin="0" xMax="171" yMax="700">
      <contour>
        <pt x="104" y="700" on="1"/>
        <pt x="136" y="697" on="0"/>
        <pt x="171" y="670" on="0"/>
        <pt x="171" y="638" on="1"/>
        <pt x="171" y="449" on="1"/>
        <pt x="171" y="406" on="0"/>
        <pt x="138" y="392" on="1"/>
        <pt x="171" y="378" on="0"/>
        <pt x="171" y="338" on="1"/>
        <pt x="171" y="64" on="1"/>
        <pt x="171" y="0" on="0"/>
        <pt x="98" y="0" on="1"/>
        <pt x="20" y="0" on="1"/>
        <pt x="20" y="700" on="1"/>
      </contour>
      <contour>
        <pt x="136" y="335" on="1"/>
        <pt x="136" y="362" on="0"/>
        <pt x="118" y="385" on="0"/>
        <pt x="98" y="386" on="1"/>
        <pt x="55" y="386" on="1"/>
        <pt x="55" y="14" on="1"/>
        <pt x="98" y="14" on="1"/>
        <pt x="122" y="14" on="0"/>
        <pt x="136" y="38" on="0"/>
        <pt x="136" y="67" on="1"/>
      </contour>
      <contour>
        <pt x="55" y="685" on="1"/>
        <pt x="55" y="400" on="1"/>
        <pt x="98" y="400" on="1"/>
        <pt x="122" y="400" on="0"/>
        <pt x="136" y="424" on="0"/>
        <pt x="136" y="453" on="1"/>
        <pt x="136" y="635" on="1"/>
        <pt x="136" y="662" on="0"/>
        <pt x="120" y="683" on="0"/>
        <pt x="100" y="685" on="1"/>
      </contour>
    </TTGlyph>
    <TTGlyph name="C" xMin="20" yMin="-5" xMax="171" yMax="706">
      <contour>
        <pt x="20" y="644" on="1"/>
        <pt x="20" y="706" on="0"/>
        <pt x="171" y="706" on="0"/>
        <pt x="171" y="642" on="1"/>
        <pt x="171" y="500" on="1"/>
        <pt x="136" y="500" on="1"/>
        <pt x="136" y="638" on="1"/>
        <pt x="136" y="668" on="0"/>
        <pt x="122" y="691" on="0"/>
        <pt x="98" y="691" on="1"/>
        <pt x="74" y="691" on="0"/>
        <pt x="55" y="670" on="0"/>
        <pt x="55" y="641" on="1"/>
        <pt x="55" y="62" on="1"/>
        <pt x="55" y="33" on="0"/>
        <pt x="69" y="9" on="0"/>
        <pt x="93" y="9" on="1"/>
        <pt x="117" y="9" on="0"/>
        <pt x="136" y="31" on="0"/>
        <pt x="136" y="60" on="1"/>
        <pt x="136" y="200" on="1"/>
        <pt x="171" y="200" on="1"/>
        <pt x="171" y="57" on="1"/>
        <pt x="171" y="-5" on="0"/>
        <pt x="20" y="-5" on="0"/>
        <pt x="20" y="59" on="1"/>
      </contour>
    </TTGlyph>
    <TTGlyph name="Ccedilla" xMin="22" yMin="-200" xMax="173" yMax="706">
      <contour>
        <pt x="22" y="644" on="1"/>
        <pt x="22" y="706" on="0"/>
        <pt x="173" y="706" on="0"/>
        <pt x="173" y="642" on="1"/>
        <pt x="173" y="500" on="1"/>
        <pt x="138" y="500" on="1"/>
        <pt x="138" y="638" on="1"/>
        <pt x="138" y="668" on="0"/>
        <pt x="124" y="691" on="0"/>
        <pt x="100" y="691" on="1"/>
        <pt x="76" y="691" on="0"/>
        <pt x="57" y="670" on="0"/>
        <pt x="57" y="641" on="1"/>
        <pt x="57" y="62" on="1"/>
        <pt x="57" y="33" on="0"/>
        <pt x="71" y="9" on="0"/>
        <pt x="95" y="9" on="1"/>
        <pt x="119" y="9" on="0"/>
        <pt x="138" y="31" on="0"/>
        <pt x="138" y="60" on="1"/>
        <pt x="138" y="200" on="1"/>
        <pt x="173" y="200" on="1"/>
        <pt x="173" y="57" on="1"/>
        <pt x="173" y="3" on="0"/>
        <pt x="117" y="-3" on="1"/>
        <pt x="117" y="-137" on="1"/>
        <pt x="117" y="-167" on="0"/>
        <pt x="82" y="-200" on="0"/>
        <pt x="33" y="-200" on="0"/>
        <pt x="22" y="-196" on="1"/>
        <pt x="27" y="-185" on="1"/>
        <pt x="36" y="-188" on="0"/>
        <pt x="48" y="-188" on="1"/>
        <pt x="82" y="-188" on="0"/>
        <pt x="82" y="-133" on="1"/>
        <pt x="82" y="-4" on="1"/>
        <pt x="22" y="0" on="0"/>
        <pt x="22" y="59" on="1"/>
      </contour>
    </TTGlyph>
    <TTGlyph name="D" xMin="20" yMin="0" xMax="171" yMax="700">
      <contour>
        <pt x="104" y="700" on="1"/>
        <pt x="171" y="696" on="0"/>
        <pt x="171" y="638" on="1"/>
        <pt x="171" y="64" on="1"/>
        <pt x="171" y="0" on="0"/>
        <pt x="98" y="0" on="1"/>
        <pt x="20" y="0" on="1"/>
        <pt x="20" y="700" on="1"/>
      </contour>
      <contour>
        <pt x="55" y="685" on="1"/>
        <pt x="55" y="14" on="1"/>
        <pt x="98" y="14" on="1"/>
        <pt x="122" y="14" on="0"/>
        <pt x="136" y="38" on="0"/>
        <pt x="136" y="67" on="1"/>
        <pt x="136" y="635" on="1"/>
        <pt x="136" y="662" on="0"/>
        <pt x="120" y="683" on="0"/>
        <pt x="100" y="685" on="1"/>
      </contour>
    </TTGlyph>
    <TTGlyph name="E" xMin="20" yMin="0" xMax="175" yMax="700">
      <contour>
        <pt x="175" y="700" on="1"/>
        <pt x="175" y="685" on="1"/>
        <pt x="55" y="685" on="1"/>
        <pt x="55" y="381" on="1"/>
        <pt x="155" y="381" on="1"/>
        <pt x="155" y="366" on="1"/>
        <pt x="55" y="366" on="1"/>
        <pt x="55" y="15" on="1"/>
        <pt x="175" y="15" on="1"/>
        <pt x="175" y="0" on="1"/>
        <pt x="20" y="0" on="1"/>
        <pt x="20" y="700" on="1"/>
      </contour>
    </TTGlyph>
    <TTGlyph name="Eacute" xMin="20" yMin="0" xMax="175" yMax="840">
      <contour>
        <pt x="20" y="700" on="1"/>
        <pt x="20" y="0" on="1"/>
        <pt x="175" y="0" on="1"/>
        <pt x="175" y="15" on="1"/>
        <pt x="55" y="15" on="1"/>
        <pt x="55" y="366" on="1"/>
        <pt x="155" y="366" on="1"/>
        <pt x="155" y="381" on="1"/>
        <pt x="55" y="381" on="1"/>
        <pt x="55" y="685" on="1"/>
        <pt x="175" y="685" on="1"/>
        <pt x="175" y="700" on="1"/>
      </contour>
      <contour>
        <pt x="149" y="840" on="1"/>
        <pt x="112" y="730" on="1"/>
        <pt x="96" y="730" on="1"/>
        <pt x="130" y="840" on="1"/>
      </contour>
    </TTGlyph>
    <TTGlyph name="Ecircumflex" xMin="20" yMin="0" xMax="175" yMax="833">
      <contour>
        <pt x="175" y="700" on="1"/>
        <pt x="175" y="685" on="1"/>
        <pt x="55" y="685" on="1"/>
        <pt x="55" y="381" on="1"/>
        <pt x="155" y="381" on="1"/>
        <pt x="155" y="366" on="1"/>
        <pt x="55" y="366" on="1"/>
        <pt x="55" y="15" on="1"/>
        <pt x="175" y="15" on="1"/>
        <pt x="175" y="0" on="1"/>
        <pt x="20" y="0" on="1"/>
        <pt x="20" y="700" on="1"/>
      </contour>
      <contour>
        <pt x="38" y="730" on="1"/>
        <pt x="98" y="833" on="1"/>
        <pt x="158" y="730" on="1"/>
        <pt x="146" y="730" on="1"/>
        <pt x="98" y="805" on="1"/>
        <pt x="50" y="730" on="1"/>
      </contour>
    </TTGlyph>
    <TTGlyph name="Edieresis" xMin="20" yMin="0" xMax="175" yMax="810">
      <contour>
        <pt x="20" y="700" on="1"/>
        <pt x="20" y="0" on="1"/>
        <pt x="175" y="0" on="1"/>
        <pt x="175" y="15" on="1"/>
        <pt x="55" y="15" on="1"/>
        <pt x="55" y="366" on="1"/>
        <pt x="155" y="366" on="1"/>
        <pt x="155" y="381" on="1"/>
        <pt x="55" y="381" on="1"/>
        <pt x="55" y="685" on="1"/>
        <pt x="175" y="685" on="1"/>
        <pt x="175" y="700" on="1"/>
      </contour>
      <contour>
        <pt x="32" y="730" on="1"/>
        <pt x="30" y="810" on="1"/>
        <pt x="57" y="810" on="1"/>
        <pt x="55" y="730" on="1"/>
      </contour>
      <contour>
        <pt x="141" y="730" on="1"/>
        <pt x="139" y="810" on="1"/>
        <pt x="166" y="810" on="1"/>
        <pt x="164" y="730" on="1"/>
      </contour>
    </TTGlyph>
    <TTGlyph name="Egrave" xMin="20" yMin="0" xMax="175" yMax="840">
      <contour>
        <pt x="175" y="700" on="1"/>
        <pt x="175" y="685" on="1"/>
        <pt x="55" y="685" on="1"/>
        <pt x="55" y="381" on="1"/>
        <pt x="155" y="381" on="1"/>
        <pt x="155" y="366" on="1"/>
        <pt x="55" y="366" on="1"/>
        <pt x="55" y="15" on="1"/>
        <pt x="175" y="15" on="1"/>
        <pt x="175" y="0" on="1"/>
        <pt x="20" y="0" on="1"/>
        <pt x="20" y="700" on="1"/>
      </contour>
      <contour>
        <pt x="80" y="840" on="1"/>
        <pt x="114" y="730" on="1"/>
        <pt x="98" y="730" on="1"/>
        <pt x="61" y="840" on="1"/>
      </contour>
    </TTGlyph>
    <TTGlyph name="Eth" xMin="4" yMin="0" xMax="179" yMax="700">
      <contour>
        <pt x="112" y="700" on="1"/>
        <pt x="179" y="696" on="0"/>
        <pt x="179" y="638" on="1"/>
        <pt x="179" y="64" on="1"/>
        <pt x="179" y="0" on="0"/>
        <pt x="106" y="0" on="1"/>
        <pt x="28" y="0" on="1"/>
        <pt x="28" y="384" on="1"/>
        <pt x="4" y="384" on="1"/>
        <pt x="4" y="399" on="1"/>
        <pt x="28" y="399" on="1"/>
        <pt x="28" y="700" on="1"/>
      </contour>
      <contour>
        <pt x="63" y="384" on="1"/>
        <pt x="63" y="14" on="1"/>
        <pt x="106" y="14" on="1"/>
        <pt x="130" y="14" on="0"/>
        <pt x="144" y="38" on="0"/>
        <pt x="144" y="67" on="1"/>
        <pt x="144" y="635" on="1"/>
        <pt x="144" y="662" on="0"/>
        <pt x="128" y="683" on="0"/>
        <pt x="108" y="685" on="1"/>
        <pt x="63" y="685" on="1"/>
        <pt x="63" y="399" on="1"/>
        <pt x="113" y="399" on="1"/>
        <pt x="113" y="384" on="1"/>
      </contour>
    </TTGlyph>
    <TTGlyph name="Euro" xMin="4" yMin="50" xMax="180" yMax="650">
      <contour>
        <pt x="180" y="112" on="1"/>
        <pt x="180" y="50" on="0"/>
        <pt x="29" y="50" on="0"/>
        <pt x="29" y="114" on="1"/>
        <pt x="29" y="300" on="1"/>
        <pt x="4" y="300" on="1"/>
        <pt x="4" y="315" on="1"/>
        <pt x="29" y="315" on="1"/>
        <pt x="29" y="385" on="1"/>
        <pt x="4" y="385" on="1"/>
        <pt x="4" y="400" on="1"/>
        <pt x="29" y="400" on="1"/>
        <pt x="29" y="588" on="1"/>
        <pt x="29" y="650" on="0"/>
        <pt x="180" y="650" on="0"/>
        <pt x="180" y="586" on="1"/>
        <pt x="180" y="444" on="1"/>
        <pt x="145" y="444" on="1"/>
        <pt x="145" y="582" on="1"/>
        <pt x="145" y="612" on="0"/>
        <pt x="131" y="635" on="0"/>
        <pt x="107" y="635" on="1"/>
        <pt x="83" y="635" on="0"/>
        <pt x="64" y="614" on="0"/>
        <pt x="64" y="585" on="1"/>
        <pt x="64" y="400" on="1"/>
        <pt x="145" y="400" on="1"/>
        <pt x="145" y="385" on="1"/>
        <pt x="64" y="385" on="1"/>
        <pt x="64" y="315" on="1"/>
        <pt x="145" y="315" on="1"/>
        <pt x="145" y="300" on="1"/>
        <pt x="64" y="300" on="1"/>
        <pt x="64" y="117" on="1"/>
        <pt x="64" y="88" on="0"/>
        <pt x="78" y="64" on="0"/>
        <pt x="102" y="64" on="1"/>
        <pt x="126" y="64" on="0"/>
        <pt x="145" y="86" on="0"/>
        <pt x="145" y="115" on="1"/>
        <pt x="145" y="255" on="1"/>
        <pt x="180" y="255" on="1"/>
      </contour>
    </TTGlyph>
    <TTGlyph name="F" xMin="20" yMin="0" xMax="175" yMax="700">
      <contour>
        <pt x="175" y="700" on="1"/>
        <pt x="175" y="685" on="1"/>
        <pt x="55" y="685" on="1"/>
        <pt x="55" y="360" on="1"/>
        <pt x="155" y="360" on="1"/>
        <pt x="155" y="345" on="1"/>
        <pt x="55" y="345" on="1"/>
        <pt x="55" y="0" on="1"/>
        <pt x="20" y="0" on="1"/>
        <pt x="20" y="700" on="1"/>
      </contour>
    </TTGlyph>
    <TTGlyph name="G" xMin="20" yMin="-5" xMax="171" yMax="706">
      <contour>
        <pt x="20" y="644" on="1"/>
        <pt x="20" y="706" on="0"/>
        <pt x="171" y="706" on="0"/>
        <pt x="171" y="642" on="1"/>
        <pt x="171" y="500" on="1"/>
        <pt x="136" y="500" on="1"/>
        <pt x="136" y="638" on="1"/>
        <pt x="136" y="668" on="0"/>
        <pt x="122" y="691" on="0"/>
        <pt x="98" y="691" on="1"/>
        <pt x="74" y="691" on="0"/>
        <pt x="55" y="670" on="0"/>
        <pt x="55" y="641" on="1"/>
        <pt x="55" y="62" on="1"/>
        <pt x="55" y="33" on="0"/>
        <pt x="69" y="9" on="0"/>
        <pt x="93" y="9" on="1"/>
        <pt x="117" y="9" on="0"/>
        <pt x="136" y="31" on="0"/>
        <pt x="136" y="60" on="1"/>
        <pt x="136" y="301" on="1"/>
        <pt x="96" y="301" on="1"/>
        <pt x="96" y="316" on="1"/>
        <pt x="171" y="316" on="1"/>
        <pt x="171" y="57" on="1"/>
        <pt x="171" y="-5" on="0"/>
        <pt x="20" y="-5" on="0"/>
        <pt x="20" y="59" on="1"/>
      </contour>
    </TTGlyph>
    <TTGlyph name="H" xMin="20" yMin="0" xMax="171" yMax="700">
      <contour>
        <pt x="171" y="700" on="1"/>
        <pt x="171" y="0" on="1"/>
        <pt x="136" y="0" on="1"/>
        <pt x="136" y="357" on="1"/>
        <pt x="55" y="357" on="1"/>
        <pt x="55" y="0" on="1"/>
        <pt x="20" y="0" on="1"/>
        <pt x="20" y="700" on="1"/>
        <pt x="55" y="700" on="1"/>
        <pt x="55" y="372" on="1"/>
        <pt x="136" y="372" on="1"/>
        <pt x="136" y="700" on="1"/>
      </contour>
    </TTGlyph>
    <TTGlyph name="I" xMin="20" yMin="0" xMax="55" yMax="700">
      <contour>
        <pt x="55" y="700" on="1"/>
        <pt x="55" y="0" on="1"/>
        <pt x="20" y="0" on="1"/>
        <pt x="20" y="700" on="1"/>
      </contour>
    </TTGlyph>
    <TTGlyph name="Iacute" xMin="20" yMin="0" xMax="83" yMax="840">
      <contour>
        <pt x="20" y="700" on="1"/>
        <pt x="20" y="0" on="1"/>
        <pt x="55" y="0" on="1"/>
        <pt x="55" y="700" on="1"/>
      </contour>
      <contour>
        <pt x="83" y="840" on="1"/>
        <pt x="46" y="730" on="1"/>
        <pt x="30" y="730" on="1"/>
        <pt x="64" y="840" on="1"/>
      </contour>
    </TTGlyph>
    <TTGlyph name="Icircumflex" xMin="-22" yMin="0" xMax="98" yMax="833">
      <contour>
        <pt x="55" y="700" on="1"/>
        <pt x="55" y="0" on="1"/>
        <pt x="20" y="0" on="1"/>
        <pt x="20" y="700" on="1"/>
      </contour>
      <contour>
        <pt x="-22" y="730" on="1"/>
        <pt x="38" y="833" on="1"/>
        <pt x="98" y="730" on="1"/>
        <pt x="86" y="730" on="1"/>
        <pt x="38" y="805" on="1"/>
        <pt x="-10" y="730" on="1"/>
      </contour>
    </TTGlyph>
    <TTGlyph name="Idieresis" xMin="-30" yMin="0" xMax="106" yMax="810">
      <contour>
        <pt x="-28" y="730" on="1"/>
        <pt x="-30" y="810" on="1"/>
        <pt x="-3" y="810" on="1"/>
        <pt x="-5" y="730" on="1"/>
      </contour>
      <contour>
        <pt x="81" y="730" on="1"/>
        <pt x="79" y="810" on="1"/>
        <pt x="106" y="810" on="1"/>
        <pt x="104" y="730" on="1"/>
      </contour>
      <contour>
        <pt x="20" y="700" on="1"/>
        <pt x="20" y="0" on="1"/>
        <pt x="55" y="0" on="1"/>
        <pt x="55" y="700" on="1"/>
      </contour>
    </TTGlyph>
    <TTGlyph name="Igrave" xMin="-10" yMin="0" xMax="55" yMax="840">
      <contour>
        <pt x="55" y="700" on="1"/>
        <pt x="55" y="0" on="1"/>
        <pt x="20" y="0" on="1"/>
        <pt x="20" y="700" on="1"/>
      </contour>
      <contour>
        <pt x="9" y="840" on="1"/>
        <pt x="43" y="730" on="1"/>
        <pt x="27" y="730" on="1"/>
        <pt x="-10" y="840" on="1"/>
      </contour>
    </TTGlyph>
    <TTGlyph name="J" xMin="20" yMin="-5" xMax="171" yMax="700">
      <contour>
        <pt x="171" y="57" on="1"/>
        <pt x="171" y="-5" on="0"/>
        <pt x="20" y="-5" on="0"/>
        <pt x="20" y="59" on="1"/>
        <pt x="20" y="200" on="1"/>
        <pt x="55" y="200" on="1"/>
        <pt x="55" y="62" on="1"/>
        <pt x="55" y="33" on="0"/>
        <pt x="69" y="9" on="0"/>
        <pt x="93" y="9" on="1"/>
        <pt x="117" y="9" on="0"/>
        <pt x="136" y="31" on="0"/>
        <pt x="136" y="60" on="1"/>
        <pt x="136" y="685" on="1"/>
        <pt x="72" y="685" on="1"/>
        <pt x="72" y="700" on="1"/>
        <pt x="171" y="700" on="1"/>
      </contour>
    </TTGlyph>
    <TTGlyph name="K" xMin="20" yMin="0" xMax="173" yMax="700">
      <contour>
        <pt x="20" y="0" on="1"/>
        <pt x="20" y="700" on="1"/>
        <pt x="55" y="700" on="1"/>
        <pt x="55" y="427" on="1"/>
        <pt x="139" y="700" on="1"/>
        <pt x="152" y="700" on="1"/>
        <pt x="68" y="427" on="1"/>
        <pt x="173" y="0" on="1"/>
        <pt x="138" y="0" on="1"/>
        <pt x="55" y="339" on="1"/>
        <pt x="55" y="0" on="1"/>
      </contour>
    </TTGlyph>
    <TTGlyph name="L" xMin="20" yMin="0" xMax="152" yMax="700">
      <contour>
        <pt x="20" y="700" on="1"/>
        <pt x="55" y="700" on="1"/>
        <pt x="55" y="15" on="1"/>
        <pt x="152" y="15" on="1"/>
        <pt x="152" y="0" on="1"/>
        <pt x="20" y="0" on="1"/>
      </contour>
    </TTGlyph>
    <TTGlyph name="M" xMin="20" yMin="0" xMax="232" yMax="700">
      <contour>
        <pt x="20" y="0" on="1"/>
        <pt x="20" y="700" on="1"/>
        <pt x="34" y="700" on="1"/>
        <pt x="126" y="143" on="1"/>
        <pt x="218" y="700" on="1"/>
        <pt x="232" y="700" on="1"/>
        <pt x="232" y="0" on="1"/>
        <pt x="197" y="0" on="1"/>
        <pt x="197" y="487" on="1"/>
        <pt x="133" y="100" on="1"/>
        <pt x="119" y="100" on="1"/>
        <pt x="55" y="487" on="1"/>
        <pt x="55" y="0" on="1"/>
      </contour>
    </TTGlyph>
    <TTGlyph name="N" xMin="20" yMin="0" xMax="175" yMax="700">
      <contour>
        <pt x="20" y="0" on="1"/>
        <pt x="20" y="700" on="1"/>
        <pt x="34" y="700" on="1"/>
        <pt x="140" y="208" on="1"/>
        <pt x="140" y="700" on="1"/>
        <pt x="175" y="700" on="1"/>
        <pt x="175" y="0" on="1"/>
        <pt x="140" y="0" on="1"/>
        <pt x="140" y="141" on="1"/>
        <pt x="55" y="537" on="1"/>
        <pt x="55" y="0" on="1"/>
      </contour>
    </TTGlyph>
    <TTGlyph name="Ntilde" xMin="20" yMin="0" xMax="175" yMax="767">
      <contour>
        <pt x="55" y="0" on="1"/>
        <pt x="55" y="537" on="1"/>
        <pt x="140" y="141" on="1"/>
        <pt x="140" y="0" on="1"/>
        <pt x="175" y="0" on="1"/>
        <pt x="175" y="700" on="1"/>
        <pt x="140" y="700" on="1"/>
        <pt x="140" y="208" on="1"/>
        <pt x="34" y="700" on="1"/>
        <pt x="20" y="700" on="1"/>
        <pt x="20" y="0" on="1"/>
      </contour>
      <contour>
        <pt x="174" y="767" on="1"/>
        <pt x="171" y="730" on="0"/>
        <pt x="133" y="730" on="1"/>
        <pt x="116" y="730" on="0"/>
        <pt x="87" y="749" on="0"/>
        <pt x="73" y="758" on="0"/>
        <pt x="62" y="758" on="1"/>
        <pt x="34" y="758" on="0"/>
        <pt x="34" y="730" on="1"/>
        <pt x="24" y="730" on="1"/>
        <pt x="24" y="749" on="0"/>
        <pt x="47" y="767" on="0"/>
        <pt x="76" y="767" on="0"/>
        <pt x="92" y="758" on="0"/>
        <pt x="99" y="753" on="1"/>
        <pt x="119" y="739" on="0"/>
        <pt x="132" y="739" on="1"/>
        <pt x="151" y="739" on="0"/>
        <pt x="159" y="753" on="1"/>
        <pt x="163" y="759" on="0"/>
        <pt x="163" y="767" on="1"/>
      </contour>
    </TTGlyph>
    <TTGlyph name="O" xMin="20" yMin="-5" xMax="171" yMax="706">
      <contour>
        <pt x="171" y="57" on="1"/>
        <pt x="171" y="-5" on="0"/>
        <pt x="20" y="-5" on="0"/>
        <pt x="20" y="59" on="1"/>
        <pt x="20" y="644" on="1"/>
        <pt x="20" y="706" on="0"/>
        <pt x="171" y="706" on="0"/>
        <pt x="171" y="642" on="1"/>
      </contour>
      <contour>
        <pt x="136" y="638" on="1"/>
        <pt x="136" y="668" on="0"/>
        <pt x="122" y="691" on="0"/>
        <pt x="98" y="691" on="1"/>
        <pt x="74" y="691" on="0"/>
        <pt x="55" y="670" on="0"/>
        <pt x="55" y="641" on="1"/>
        <pt x="55" y="62" on="1"/>
        <pt x="55" y="33" on="0"/>
        <pt x="69" y="9" on="0"/>
        <pt x="93" y="9" on="1"/>
        <pt x="117" y="9" on="0"/>
        <pt x="136" y="31" on="0"/>
        <pt x="136" y="60" on="1"/>
      </contour>
    </TTGlyph>
    <TTGlyph name="OE" xMin="20" yMin="-5" xMax="291" yMax="706">
      <contour>
        <pt x="20" y="644" on="1"/>
        <pt x="20" y="706" on="0"/>
        <pt x="98" y="706" on="1"/>
        <pt x="121" y="706" on="0"/>
        <pt x="138" y="700" on="1"/>
        <pt x="291" y="700" on="1"/>
        <pt x="291" y="685" on="1"/>
        <pt x="171" y="685" on="1"/>
        <pt x="171" y="381" on="1"/>
        <pt x="271" y="381" on="1"/>
        <pt x="271" y="366" on="1"/>
        <pt x="171" y="366" on="1"/>
        <pt x="171" y="15" on="1"/>
        <pt x="291" y="15" on="1"/>
        <pt x="291" y="0" on="1"/>
        <pt x="136" y="0" on="1"/>
        <pt x="136" y="1" on="1"/>
        <pt x="118" y="-5" on="0"/>
        <pt x="93" y="-5" on="1"/>
        <pt x="20" y="-5" on="0"/>
        <pt x="20" y="59" on="1"/>
      </contour>
      <contour>
        <pt x="55" y="33" on="0"/>
        <pt x="69" y="9" on="0"/>
        <pt x="115" y="9" on="0"/>
        <pt x="134" y="27" on="0"/>
        <pt x="136" y="51" on="1"/>
        <pt x="136" y="649" on="1"/>
        <pt x="134" y="672" on="0"/>
        <pt x="120" y="691" on="0"/>
        <pt x="74" y="691" on="0"/>
        <pt x="55" y="670" on="0"/>
        <pt x="55" y="641" on="1"/>
        <pt x="55" y="62" on="1"/>
      </contour>
    </TTGlyph>
    <TTGlyph name="Oacute" xMin="20" yMin="-5" xMax="171" yMax="840">
      <contour>
        <pt x="171" y="642" on="1"/>
        <pt x="171" y="706" on="0"/>
        <pt x="20" y="706" on="0"/>
        <pt x="20" y="644" on="1"/>
        <pt x="20" y="59" on="1"/>
        <pt x="20" y="-5" on="0"/>
        <pt x="171" y="-5" on="0"/>
        <pt x="171" y="57" on="1"/>
      </contour>
      <contour>
        <pt x="136" y="638" on="1"/>
        <pt x="136" y="60" on="1"/>
        <pt x="136" y="31" on="0"/>
        <pt x="117" y="9" on="0"/>
        <pt x="93" y="9" on="1"/>
        <pt x="69" y="9" on="0"/>
        <pt x="55" y="33" on="0"/>
        <pt x="55" y="62" on="1"/>
        <pt x="55" y="641" on="1"/>
        <pt x="55" y="670" on="0"/>
        <pt x="74" y="691" on="0"/>
        <pt x="98" y="691" on="1"/>
        <pt x="122" y="691" on="0"/>
        <pt x="136" y="668" on="0"/>
      </contour>
      <contour>
        <pt x="146" y="840" on="1"/>
        <pt x="109" y="730" on="1"/>
        <pt x="93" y="730" on="1"/>
        <pt x="127" y="840" on="1"/>
      </contour>
    </TTGlyph>
    <TTGlyph name="Ocircumflex" xMin="20" yMin="-5" xMax="171" yMax="833">
      <contour>
        <pt x="171" y="57" on="1"/>
        <pt x="171" y="-5" on="0"/>
        <pt x="20" y="-5" on="0"/>
        <pt x="20" y="59" on="1"/>
        <pt x="20" y="644" on="1"/>
        <pt x="20" y="706" on="0"/>
        <pt x="171" y="706" on="0"/>
        <pt x="171" y="642" on="1"/>
      </contour>
      <contour>
        <pt x="136" y="638" on="1"/>
        <pt x="136" y="668" on="0"/>
        <pt x="122" y="691" on="0"/>
        <pt x="98" y="691" on="1"/>
        <pt x="74" y="691" on="0"/>
        <pt x="55" y="670" on="0"/>
        <pt x="55" y="641" on="1"/>
        <pt x="55" y="62" on="1"/>
        <pt x="55" y="33" on="0"/>
        <pt x="69" y="9" on="0"/>
        <pt x="93" y="9" on="1"/>
        <pt x="117" y="9" on="0"/>
        <pt x="136" y="31" on="0"/>
        <pt x="136" y="60" on="1"/>
      </contour>
      <contour>
        <pt x="36" y="730" on="1"/>
        <pt x="96" y="833" on="1"/>
        <pt x="156" y="730" on="1"/>
        <pt x="144" y="730" on="1"/>
        <pt x="96" y="805" on="1"/>
        <pt x="48" y="730" on="1"/>
      </contour>
    </TTGlyph>
    <TTGlyph name="Odieresis" xMin="20" yMin="-5" xMax="171" yMax="810">
      <contour>
        <pt x="171" y="642" on="1"/>
        <pt x="171" y="706" on="0"/>
        <pt x="20" y="706" on="0"/>
        <pt x="20" y="644" on="1"/>
        <pt x="20" y="59" on="1"/>
        <pt x="20" y="-5" on="0"/>
        <pt x="171" y="-5" on="0"/>
        <pt x="171" y="57" on="1"/>
      </contour>
      <contour>
        <pt x="136" y="638" on="1"/>
        <pt x="136" y="60" on="1"/>
        <pt x="136" y="31" on="0"/>
        <pt x="117" y="9" on="0"/>
        <pt x="93" y="9" on="1"/>
        <pt x="69" y="9" on="0"/>
        <pt x="55" y="33" on="0"/>
        <pt x="55" y="62" on="1"/>
        <pt x="55" y="641" on="1"/>
        <pt x="55" y="670" on="0"/>
        <pt x="74" y="691" on="0"/>
        <pt x="98" y="691" on="1"/>
        <pt x="122" y="691" on="0"/>
        <pt x="136" y="668" on="0"/>
      </contour>
      <contour>
        <pt x="30" y="730" on="1"/>
        <pt x="28" y="810" on="1"/>
        <pt x="55" y="810" on="1"/>
        <pt x="53" y="730" on="1"/>
      </contour>
      <contour>
        <pt x="139" y="730" on="1"/>
        <pt x="137" y="810" on="1"/>
        <pt x="164" y="810" on="1"/>
        <pt x="162" y="730" on="1"/>
      </contour>
    </TTGlyph>
    <TTGlyph name="Ograve" xMin="20" yMin="-5" xMax="171" yMax="840">
      <contour>
        <pt x="171" y="57" on="1"/>
        <pt x="171" y="-5" on="0"/>
        <pt x="20" y="-5" on="0"/>
        <pt x="20" y="59" on="1"/>
        <pt x="20" y="644" on="1"/>
        <pt x="20" y="706" on="0"/>
        <pt x="171" y="706" on="0"/>
        <pt x="171" y="642" on="1"/>
      </contour>
      <contour>
        <pt x="136" y="638" on="1"/>
        <pt x="136" y="668" on="0"/>
        <pt x="122" y="691" on="0"/>
        <pt x="98" y="691" on="1"/>
        <pt x="74" y="691" on="0"/>
        <pt x="55" y="670" on="0"/>
        <pt x="55" y="641" on="1"/>
        <pt x="55" y="62" on="1"/>
        <pt x="55" y="33" on="0"/>
        <pt x="69" y="9" on="0"/>
        <pt x="93" y="9" on="1"/>
        <pt x="117" y="9" on="0"/>
        <pt x="136" y="31" on="0"/>
        <pt x="136" y="60" on="1"/>
      </contour>
      <contour>
        <pt x="72" y="840" on="1"/>
        <pt x="106" y="730" on="1"/>
        <pt x="90" y="730" on="1"/>
        <pt x="53" y="840" on="1"/>
      </contour>
    </TTGlyph>
    <TTGlyph name="Oslash" xMin="13" yMin="-5" xMax="179" yMax="706">
      <contour>
        <pt x="22" y="644" on="1"/>
        <pt x="22" y="706" on="0"/>
        <pt x="100" y="706" on="1"/>
        <pt x="143" y="706" on="0"/>
        <pt x="161" y="682" on="1"/>
        <pt x="164" y="700" on="1"/>
        <pt x="179" y="700" on="1"/>
        <pt x="170" y="661" on="1"/>
        <pt x="173" y="640" on="0"/>
        <pt x="173" y="634" on="1"/>
        <pt x="173" y="57" on="1"/>
        <pt x="173" y="-5" on="0"/>
        <pt x="95" y="-5" on="1"/>
        <pt x="47" y="-5" on="0"/>
        <pt x="32" y="22" on="1"/>
        <pt x="27" y="0" on="1"/>
        <pt x="13" y="0" on="1"/>
        <pt x="21" y="41" on="1"/>
        <pt x="21" y="52" on="1"/>
        <pt x="21" y="57" on="0"/>
        <pt x="22" y="62" on="1"/>
      </contour>
      <contour>
        <pt x="95" y="9" on="1"/>
        <pt x="119" y="9" on="0"/>
        <pt x="138" y="31" on="0"/>
        <pt x="138" y="60" on="1"/>
        <pt x="138" y="513" on="1"/>
        <pt x="57" y="138" on="1"/>
        <pt x="57" y="62" on="1"/>
        <pt x="57" y="33" on="0"/>
        <pt x="71" y="9" on="0"/>
      </contour>
      <contour>
        <pt x="138" y="638" on="1"/>
        <pt x="138" y="668" on="0"/>
        <pt x="124" y="691" on="0"/>
        <pt x="100" y="691" on="1"/>
        <pt x="76" y="691" on="0"/>
        <pt x="57" y="670" on="0"/>
        <pt x="57" y="641" on="1"/>
        <pt x="57" y="203" on="1"/>
        <pt x="138" y="578" on="1"/>
      </contour>
    </TTGlyph>
    <TTGlyph name="Otilde" xMin="20" yMin="-5" xMax="171" yMax="767">
      <contour>
        <pt x="171" y="642" on="1"/>
        <pt x="171" y="706" on="0"/>
        <pt x="20" y="706" on="0"/>
        <pt x="20" y="644" on="1"/>
        <pt x="20" y="59" on="1"/>
        <pt x="20" y="-5" on="0"/>
        <pt x="171" y="-5" on="0"/>
        <pt x="171" y="57" on="1"/>
      </contour>
      <contour>
        <pt x="136" y="638" on="1"/>
        <pt x="136" y="60" on="1"/>
        <pt x="136" y="31" on="0"/>
        <pt x="117" y="9" on="0"/>
        <pt x="93" y="9" on="1"/>
        <pt x="69" y="9" on="0"/>
        <pt x="55" y="33" on="0"/>
        <pt x="55" y="62" on="1"/>
        <pt x="55" y="641" on="1"/>
        <pt x="55" y="670" on="0"/>
        <pt x="74" y="691" on="0"/>
        <pt x="98" y="691" on="1"/>
        <pt x="122" y="691" on="0"/>
        <pt x="136" y="668" on="0"/>
      </contour>
      <contour>
        <pt x="171" y="767" on="1"/>
        <pt x="168" y="730" on="0"/>
        <pt x="130" y="730" on="1"/>
        <pt x="112" y="730" on="0"/>
        <pt x="84" y="749" on="0"/>
        <pt x="70" y="758" on="0"/>
        <pt x="59" y="758" on="1"/>
        <pt x="40" y="758" on="0"/>
        <pt x="34" y="744" on="1"/>
        <pt x="31" y="738" on="0"/>
        <pt x="32" y="730" on="1"/>
        <pt x="21" y="730" on="1"/>
        <pt x="21" y="749" on="0"/>
        <pt x="44" y="767" on="0"/>
        <pt x="73" y="767" on="0"/>
        <pt x="89" y="758" on="0"/>
        <pt x="96" y="753" on="1"/>
        <pt x="116" y="739" on="0"/>
        <pt x="129" y="739" on="1"/>
        <pt x="148" y="739" on="0"/>
        <pt x="156" y="753" on="1"/>
        <pt x="160" y="759" on="0"/>
        <pt x="160" y="767" on="1"/>
      </contour>
    </TTGlyph>
    <TTGlyph name="P" xMin="20" yMin="0" xMax="171" yMax="700">
      <contour>
        <pt x="104" y="700" on="1"/>
        <pt x="171" y="696" on="0"/>
        <pt x="171" y="638" on="1"/>
        <pt x="171" y="409" on="1"/>
        <pt x="171" y="345" on="0"/>
        <pt x="98" y="345" on="1"/>
        <pt x="55" y="345" on="1"/>
        <pt x="55" y="0" on="1"/>
        <pt x="20" y="0" on="1"/>
        <pt x="20" y="700" on="1"/>
      </contour>
      <contour>
        <pt x="55" y="685" on="1"/>
        <pt x="55" y="359" on="1"/>
        <pt x="98" y="359" on="1"/>
        <pt x="122" y="359" on="0"/>
        <pt x="136" y="383" on="0"/>
        <pt x="136" y="412" on="1"/>
        <pt x="136" y="635" on="1"/>
        <pt x="136" y="662" on="0"/>
        <pt x="120" y="683" on="0"/>
        <pt x="100" y="685" on="1"/>
      </contour>
    </TTGlyph>
    <TTGlyph name="Q" xMin="20" yMin="-100" xMax="171" yMax="706">
      <contour>
        <pt x="171" y="57" on="1"/>
        <pt x="171" y="-1" on="0"/>
        <pt x="102" y="-5" on="1"/>
        <pt x="102" y="-100" on="1"/>
        <pt x="88" y="-100" on="1"/>
        <pt x="88" y="-5" on="1"/>
        <pt x="20" y="-2" on="0"/>
        <pt x="20" y="59" on="1"/>
        <pt x="20" y="644" on="1"/>
        <pt x="20" y="706" on="0"/>
        <pt x="171" y="706" on="0"/>
        <pt x="171" y="642" on="1"/>
      </contour>
      <contour>
        <pt x="136" y="638" on="1"/>
        <pt x="136" y="668" on="0"/>
        <pt x="122" y="691" on="0"/>
        <pt x="98" y="691" on="1"/>
        <pt x="74" y="691" on="0"/>
        <pt x="55" y="670" on="0"/>
        <pt x="55" y="641" on="1"/>
        <pt x="55" y="62" on="1"/>
        <pt x="55" y="34" on="0"/>
        <pt x="67" y="10" on="0"/>
        <pt x="88" y="9" on="1"/>
        <pt x="88" y="100" on="1"/>
        <pt x="102" y="100" on="1"/>
        <pt x="102" y="9" on="1"/>
        <pt x="121" y="11" on="0"/>
        <pt x="136" y="34" on="0"/>
        <pt x="136" y="60" on="1"/>
      </contour>
    </TTGlyph>
    <TTGlyph name="R" xMin="20" yMin="0" xMax="171" yMax="700">
      <contour>
        <pt x="104" y="700" on="1"/>
        <pt x="171" y="696" on="0"/>
        <pt x="171" y="638" on="1"/>
        <pt x="171" y="417" on="1"/>
        <pt x="171" y="373" on="0"/>
        <pt x="138" y="360" on="1"/>
        <pt x="171" y="346" on="0"/>
        <pt x="171" y="306" on="1"/>
        <pt x="171" y="0" on="1"/>
        <pt x="136" y="0" on="1"/>
        <pt x="136" y="302" on="1"/>
        <pt x="136" y="329" on="0"/>
        <pt x="120" y="350" on="0"/>
        <pt x="100" y="352" on="1"/>
        <pt x="55" y="352" on="1"/>
        <pt x="55" y="0" on="1"/>
        <pt x="20" y="0" on="1"/>
        <pt x="20" y="700" on="1"/>
      </contour>
      <contour>
        <pt x="55" y="685" on="1"/>
        <pt x="55" y="367" on="1"/>
        <pt x="98" y="367" on="1"/>
        <pt x="122" y="367" on="0"/>
        <pt x="136" y="391" on="0"/>
        <pt x="136" y="420" on="1"/>
        <pt x="136" y="635" on="1"/>
        <pt x="136" y="662" on="0"/>
        <pt x="120" y="683" on="0"/>
        <pt x="100" y="685" on="1"/>
      </contour>
    </TTGlyph>
    <TTGlyph name="S" xMin="21" yMin="-5" xMax="172" yMax="706">
      <contour>
        <pt x="21" y="643" on="1"/>
        <pt x="21" y="706" on="0"/>
        <pt x="172" y="706" on="0"/>
        <pt x="172" y="640" on="1"/>
        <pt x="172" y="500" on="1"/>
        <pt x="137" y="500" on="1"/>
        <pt x="137" y="639" on="1"/>
        <pt x="137" y="668" on="0"/>
        <pt x="121" y="695" on="0"/>
        <pt x="73" y="695" on="0"/>
        <pt x="56" y="668" on="0"/>
        <pt x="56" y="639" on="1"/>
        <pt x="56" y="519" on="1"/>
        <pt x="56" y="481" on="0"/>
        <pt x="66" y="463" on="1"/>
        <pt x="80" y="436" on="0"/>
        <pt x="121" y="392" on="0"/>
        <pt x="143" y="363" on="0"/>
        <pt x="152" y="344" on="1"/>
        <pt x="172" y="302" on="0"/>
        <pt x="172" y="245" on="1"/>
        <pt x="172" y="58" on="1"/>
        <pt x="172" y="-5" on="0"/>
        <pt x="21" y="-5" on="0"/>
        <pt x="21" y="61" on="1"/>
        <pt x="21" y="200" on="1"/>
        <pt x="56" y="200" on="1"/>
        <pt x="56" y="62" on="1"/>
        <pt x="56" y="33" on="0"/>
        <pt x="72" y="6" on="0"/>
        <pt x="120" y="6" on="0"/>
        <pt x="137" y="33" on="0"/>
        <pt x="137" y="62" on="1"/>
        <pt x="137" y="237" on="1"/>
        <pt x="137" y="294" on="0"/>
        <pt x="127" y="317" on="1"/>
        <pt x="113" y="351" on="0"/>
        <pt x="72" y="397" on="0"/>
        <pt x="50" y="423" on="0"/>
        <pt x="41" y="438" on="1"/>
        <pt x="21" y="473" on="0"/>
        <pt x="21" y="514" on="1"/>
      </contour>
    </TTGlyph>
    <TTGlyph name="T" xMin="20" yMin="0" xMax="179" yMax="700">
      <contour>
        <pt x="20" y="700" on="1"/>
        <pt x="179" y="700" on="1"/>
        <pt x="179" y="685" on="1"/>
        <pt x="117" y="685" on="1"/>
        <pt x="117" y="0" on="1"/>
        <pt x="82" y="0" on="1"/>
        <pt x="82" y="685" on="1"/>
        <pt x="20" y="685" on="1"/>
      </contour>
    </TTGlyph>
    <TTGlyph name="Thorn" xMin="20" yMin="0" xMax="171" yMax="700">
      <contour>
        <pt x="104" y="539" on="1"/>
        <pt x="171" y="535" on="0"/>
        <pt x="171" y="477" on="1"/>
        <pt x="171" y="248" on="1"/>
        <pt x="171" y="184" on="0"/>
        <pt x="98" y="184" on="1"/>
        <pt x="55" y="184" on="1"/>
        <pt x="55" y="0" on="1"/>
        <pt x="20" y="0" on="1"/>
        <pt x="20" y="700" on="1"/>
        <pt x="55" y="700" on="1"/>
        <pt x="55" y="539" on="1"/>
      </contour>
      <contour>
        <pt x="55" y="524" on="1"/>
        <pt x="55" y="198" on="1"/>
        <pt x="98" y="198" on="1"/>
        <pt x="122" y="198" on="0"/>
        <pt x="136" y="222" on="0"/>
        <pt x="136" y="251" on="1"/>
        <pt x="136" y="474" on="1"/>
        <pt x="136" y="501" on="0"/>
        <pt x="120" y="522" on="0"/>
        <pt x="100" y="524" on="1"/>
      </contour>
    </TTGlyph>
    <TTGlyph name="U" xMin="20" yMin="-5" xMax="171" yMax="700">
      <contour>
        <pt x="171" y="57" on="1"/>
        <pt x="171" y="-5" on="0"/>
        <pt x="20" y="-5" on="0"/>
        <pt x="20" y="59" on="1"/>
        <pt x="20" y="700" on="1"/>
        <pt x="55" y="700" on="1"/>
        <pt x="55" y="62" on="1"/>
        <pt x="55" y="33" on="0"/>
        <pt x="69" y="9" on="0"/>
        <pt x="93" y="9" on="1"/>
        <pt x="117" y="9" on="0"/>
        <pt x="136" y="31" on="0"/>
        <pt x="136" y="60" on="1"/>
        <pt x="136" y="700" on="1"/>
        <pt x="171" y="700" on="1"/>
      </contour>
    </TTGlyph>
    <TTGlyph name="Uacute" xMin="21" yMin="-5" xMax="172" yMax="840">
      <contour>
        <pt x="21" y="59" on="1"/>
        <pt x="21" y="-5" on="0"/>
        <pt x="172" y="-5" on="0"/>
        <pt x="172" y="57" on="1"/>
        <pt x="172" y="700" on="1"/>
        <pt x="137" y="700" on="1"/>
        <pt x="137" y="60" on="1"/>
        <pt x="137" y="31" on="0"/>
        <pt x="118" y="9" on="0"/>
        <pt x="94" y="9" on="1"/>
        <pt x="70" y="9" on="0"/>
        <pt x="56" y="33" on="0"/>
        <pt x="56" y="62" on="1"/>
        <pt x="56" y="700" on="1"/>
        <pt x="21" y="700" on="1"/>
      </contour>
      <contour>
        <pt x="132" y="840" on="1"/>
        <pt x="95" y="730" on="1"/>
        <pt x="79" y="730" on="1"/>
        <pt x="113" y="840" on="1"/>
      </contour>
    </TTGlyph>
    <TTGlyph name="Ucircumflex" xMin="20" yMin="-5" xMax="171" yMax="833">
      <contour>
        <pt x="171" y="57" on="1"/>
        <pt x="171" y="-5" on="0"/>
        <pt x="20" y="-5" on="0"/>
        <pt x="20" y="59" on="1"/>
        <pt x="20" y="700" on="1"/>
        <pt x="55" y="700" on="1"/>
        <pt x="55" y="62" on="1"/>
        <pt x="55" y="33" on="0"/>
        <pt x="69" y="9" on="0"/>
        <pt x="93" y="9" on="1"/>
        <pt x="117" y="9" on="0"/>
        <pt x="136" y="31" on="0"/>
        <pt x="136" y="60" on="1"/>
        <pt x="136" y="700" on="1"/>
        <pt x="171" y="700" on="1"/>
      </contour>
      <contour>
        <pt x="36" y="730" on="1"/>
        <pt x="96" y="833" on="1"/>
        <pt x="156" y="730" on="1"/>
        <pt x="144" y="730" on="1"/>
        <pt x="96" y="805" on="1"/>
        <pt x="48" y="730" on="1"/>
      </contour>
    </TTGlyph>
    <TTGlyph name="Udieresis" xMin="20" yMin="-5" xMax="171" yMax="810">
      <contour>
        <pt x="20" y="59" on="1"/>
        <pt x="20" y="-5" on="0"/>
        <pt x="171" y="-5" on="0"/>
        <pt x="171" y="57" on="1"/>
        <pt x="171" y="700" on="1"/>
        <pt x="136" y="700" on="1"/>
        <pt x="136" y="60" on="1"/>
        <pt x="136" y="31" on="0"/>
        <pt x="117" y="9" on="0"/>
        <pt x="93" y="9" on="1"/>
        <pt x="69" y="9" on="0"/>
        <pt x="55" y="33" on="0"/>
        <pt x="55" y="62" on="1"/>
        <pt x="55" y="700" on="1"/>
        <pt x="20" y="700" on="1"/>
      </contour>
      <contour>
        <pt x="30" y="730" on="1"/>
        <pt x="28" y="810" on="1"/>
        <pt x="55" y="810" on="1"/>
        <pt x="53" y="730" on="1"/>
      </contour>
      <contour>
        <pt x="139" y="730" on="1"/>
        <pt x="137" y="810" on="1"/>
        <pt x="164" y="810" on="1"/>
        <pt x="162" y="730" on="1"/>
      </contour>
    </TTGlyph>
    <TTGlyph name="Ugrave" xMin="20" yMin="-5" xMax="171" yMax="840">
      <contour>
        <pt x="171" y="57" on="1"/>
        <pt x="171" y="-5" on="0"/>
        <pt x="20" y="-5" on="0"/>
        <pt x="20" y="59" on="1"/>
        <pt x="20" y="700" on="1"/>
        <pt x="55" y="700" on="1"/>
        <pt x="55" y="62" on="1"/>
        <pt x="55" y="33" on="0"/>
        <pt x="69" y="9" on="0"/>
        <pt x="93" y="9" on="1"/>
        <pt x="117" y="9" on="0"/>
        <pt x="136" y="31" on="0"/>
        <pt x="136" y="60" on="1"/>
        <pt x="136" y="700" on="1"/>
        <pt x="171" y="700" on="1"/>
      </contour>
      <contour>
        <pt x="73" y="840" on="1"/>
        <pt x="107" y="730" on="1"/>
        <pt x="91" y="730" on="1"/>
        <pt x="54" y="840" on="1"/>
      </contour>
    </TTGlyph>
    <TTGlyph name="V" xMin="20" yMin="0" xMax="181" yMax="700">
      <contour>
        <pt x="181" y="700" on="1"/>
        <pt x="103" y="0" on="1"/>
        <pt x="89" y="0" on="1"/>
        <pt x="20" y="700" on="1"/>
        <pt x="55" y="700" on="1"/>
        <pt x="105" y="143" on="1"/>
        <pt x="167" y="700" on="1"/>
      </contour>
    </TTGlyph>
    <TTGlyph name="W" xMin="20" yMin="0" xMax="285" yMax="700">
      <contour>
        <pt x="285" y="700" on="1"/>
        <pt x="207" y="0" on="1"/>
        <pt x="193" y="0" on="1"/>
        <pt x="151" y="429" on="1"/>
        <pt x="103" y="0" on="1"/>
        <pt x="89" y="0" on="1"/>
        <pt x="20" y="700" on="1"/>
        <pt x="55" y="700" on="1"/>
        <pt x="105" y="142" on="1"/>
        <pt x="155" y="590" on="1"/>
        <pt x="169" y="590" on="1"/>
        <pt x="209" y="143" on="1"/>
        <pt x="271" y="700" on="1"/>
      </contour>
    </TTGlyph>
    <TTGlyph name="X" xMin="13" yMin="0" xMax="177" yMax="700">
      <contour>
        <pt x="142" y="0" on="1"/>
        <pt x="83" y="349" on="1"/>
        <pt x="28" y="0" on="1"/>
        <pt x="13" y="0" on="1"/>
        <pt x="76" y="391" on="1"/>
        <pt x="23" y="700" on="1"/>
        <pt x="58" y="700" on="1"/>
        <pt x="104" y="430" on="1"/>
        <pt x="159" y="700" on="1"/>
        <pt x="174" y="700" on="1"/>
        <pt x="110" y="390" on="1"/>
        <pt x="177" y="0" on="1"/>
      </contour>
    </TTGlyph>
    <TTGlyph name="Y" xMin="21" yMin="0" xMax="180" yMax="700">
      <contour>
        <pt x="81" y="0" on="1"/>
        <pt x="81" y="300" on="1"/>
        <pt x="21" y="700" on="1"/>
        <pt x="56" y="700" on="1"/>
        <pt x="109" y="341" on="1"/>
        <pt x="165" y="700" on="1"/>
        <pt x="180" y="700" on="1"/>
        <pt x="116" y="301" on="1"/>
        <pt x="116" y="0" on="1"/>
      </contour>
    </TTGlyph>
    <TTGlyph name="Yacute" xMin="21" yMin="0" xMax="180" yMax="840">
      <contour>
        <pt x="116" y="0" on="1"/>
        <pt x="116" y="301" on="1"/>
        <pt x="180" y="700" on="1"/>
        <pt x="165" y="700" on="1"/>
        <pt x="109" y="341" on="1"/>
        <pt x="56" y="700" on="1"/>
        <pt x="21" y="700" on="1"/>
        <pt x="81" y="300" on="1"/>
        <pt x="81" y="0" on="1"/>
      </contour>
      <contour>
        <pt x="153" y="840" on="1"/>
        <pt x="116" y="730" on="1"/>
        <pt x="100" y="730" on="1"/>
        <pt x="134" y="840" on="1"/>
      </contour>
    </TTGlyph>
    <TTGlyph name="Ydieresis" xMin="21" yMin="0" xMax="180" yMax="820">
      <contour>
        <pt x="116" y="0" on="1"/>
        <pt x="116" y="301" on="1"/>
        <pt x="180" y="700" on="1"/>
        <pt x="165" y="700" on="1"/>
        <pt x="109" y="341" on="1"/>
        <pt x="56" y="700" on="1"/>
        <pt x="21" y="700" on="1"/>
        <pt x="81" y="300" on="1"/>
        <pt x="81" y="0" on="1"/>
      </contour>
      <contour>
        <pt x="43" y="740" on="1"/>
        <pt x="41" y="820" on="1"/>
        <pt x="68" y="820" on="1"/>
        <pt x="66" y="740" on="1"/>
      </contour>
      <contour>
        <pt x="152" y="740" on="1"/>
        <pt x="150" y="820" on="1"/>
        <pt x="177" y="820" on="1"/>
        <pt x="175" y="740" on="1"/>
      </contour>
    </TTGlyph>
    <TTGlyph name="Z" xMin="21" yMin="0" xMax="176" yMax="700">
      <contour>
        <pt x="33" y="700" on="1"/>
        <pt x="175" y="700" on="1"/>
        <pt x="58" y="15" on="1"/>
        <pt x="176" y="15" on="1"/>
        <pt x="176" y="0" on="1"/>
        <pt x="21" y="0" on="1"/>
        <pt x="137" y="685" on="1"/>
        <pt x="33" y="685" on="1"/>
      </contour>
    </TTGlyph>
    <TTGlyph name="a" xMin="21" yMin="-5" xMax="172" yMax="506">
      <contour>
        <pt x="21" y="254" on="1"/>
        <pt x="21" y="316" on="0"/>
        <pt x="99" y="316" on="1"/>
        <pt x="120" y="316" on="0"/>
        <pt x="137" y="310" on="1"/>
        <pt x="137" y="439" on="1"/>
        <pt x="137" y="468" on="0"/>
        <pt x="121" y="495" on="0"/>
        <pt x="73" y="495" on="0"/>
        <pt x="56" y="468" on="0"/>
        <pt x="56" y="439" on="1"/>
        <pt x="56" y="376" on="1"/>
        <pt x="21" y="376" on="1"/>
        <pt x="21" y="443" on="1"/>
        <pt x="21" y="506" on="0"/>
        <pt x="172" y="506" on="0"/>
        <pt x="172" y="440" on="1"/>
        <pt x="172" y="0" on="1"/>
        <pt x="137" y="0" on="1"/>
        <pt x="137" y="2" on="1"/>
        <pt x="120" y="-5" on="0"/>
        <pt x="94" y="-5" on="1"/>
        <pt x="21" y="-5" on="0"/>
        <pt x="21" y="59" on="1"/>
      </contour>
      <contour>
        <pt x="56" y="33" on="0"/>
        <pt x="70" y="9" on="0"/>
        <pt x="116" y="9" on="0"/>
        <pt x="135" y="27" on="0"/>
        <pt x="137" y="51" on="1"/>
        <pt x="137" y="244" on="1"/>
        <pt x="137" y="276" on="0"/>
        <pt x="124" y="301" on="0"/>
        <pt x="75" y="301" on="0"/>
        <pt x="56" y="280" on="0"/>
        <pt x="56" y="251" on="1"/>
        <pt x="56" y="62" on="1"/>
      </contour>
    </TTGlyph>
    <TTGlyph name="aacute" xMin="21" yMin="-5" xMax="172" yMax="650">
      <contour>
        <pt x="172" y="440" on="1"/>
        <pt x="172" y="506" on="0"/>
        <pt x="21" y="506" on="0"/>
        <pt x="21" y="443" on="1"/>
        <pt x="21" y="376" on="1"/>
        <pt x="56" y="376" on="1"/>
        <pt x="56" y="439" on="1"/>
        <pt x="56" y="468" on="0"/>
        <pt x="73" y="495" on="0"/>
        <pt x="121" y="495" on="0"/>
        <pt x="137" y="468" on="0"/>
        <pt x="137" y="439" on="1"/>
        <pt x="137" y="310" on="1"/>
        <pt x="120" y="316" on="0"/>
        <pt x="99" y="316" on="1"/>
        <pt x="21" y="316" on="0"/>
        <pt x="21" y="254" on="1"/>
        <pt x="21" y="59" on="1"/>
        <pt x="21" y="-5" on="0"/>
        <pt x="94" y="-5" on="1"/>
        <pt x="120" y="-5" on="0"/>
        <pt x="137" y="2" on="1"/>
        <pt x="137" y="0" on="1"/>
        <pt x="172" y="0" on="1"/>
      </contour>
      <contour>
        <pt x="135" y="27" on="0"/>
        <pt x="116" y="9" on="0"/>
        <pt x="70" y="9" on="0"/>
        <pt x="56" y="33" on="0"/>
        <pt x="56" y="62" on="1"/>
        <pt x="56" y="251" on="1"/>
        <pt x="56" y="280" on="0"/>
        <pt x="75" y="301" on="0"/>
        <pt x="124" y="301" on="0"/>
        <pt x="137" y="276" on="0"/>
        <pt x="137" y="244" on="1"/>
        <pt x="137" y="51" on="1"/>
      </contour>
      <contour>
        <pt x="149" y="650" on="1"/>
        <pt x="112" y="540" on="1"/>
        <pt x="96" y="540" on="1"/>
        <pt x="130" y="650" on="1"/>
      </contour>
    </TTGlyph>
    <TTGlyph name="acircumflex" xMin="21" yMin="-5" xMax="172" yMax="643">
      <contour>
        <pt x="21" y="254" on="1"/>
        <pt x="21" y="316" on="0"/>
        <pt x="99" y="316" on="1"/>
        <pt x="120" y="316" on="0"/>
        <pt x="137" y="310" on="1"/>
        <pt x="137" y="439" on="1"/>
        <pt x="137" y="468" on="0"/>
        <pt x="121" y="495" on="0"/>
        <pt x="73" y="495" on="0"/>
        <pt x="56" y="468" on="0"/>
        <pt x="56" y="439" on="1"/>
        <pt x="56" y="376" on="1"/>
        <pt x="21" y="376" on="1"/>
        <pt x="21" y="443" on="1"/>
        <pt x="21" y="506" on="0"/>
        <pt x="172" y="506" on="0"/>
        <pt x="172" y="440" on="1"/>
        <pt x="172" y="0" on="1"/>
        <pt x="137" y="0" on="1"/>
        <pt x="137" y="2" on="1"/>
        <pt x="120" y="-5" on="0"/>
        <pt x="94" y="-5" on="1"/>
        <pt x="21" y="-5" on="0"/>
        <pt x="21" y="59" on="1"/>
      </contour>
      <contour>
        <pt x="56" y="33" on="0"/>
        <pt x="70" y="9" on="0"/>
        <pt x="116" y="9" on="0"/>
        <pt x="135" y="27" on="0"/>
        <pt x="137" y="51" on="1"/>
        <pt x="137" y="244" on="1"/>
        <pt x="137" y="276" on="0"/>
        <pt x="124" y="301" on="0"/>
        <pt x="75" y="301" on="0"/>
        <pt x="56" y="280" on="0"/>
        <pt x="56" y="251" on="1"/>
        <pt x="56" y="62" on="1"/>
      </contour>
      <contour>
        <pt x="36" y="540" on="1"/>
        <pt x="96" y="643" on="1"/>
        <pt x="156" y="540" on="1"/>
        <pt x="144" y="540" on="1"/>
        <pt x="96" y="615" on="1"/>
        <pt x="48" y="540" on="1"/>
      </contour>
    </TTGlyph>
    <TTGlyph name="acute" xMin="79" yMin="540" xMax="132" yMax="650">
      <contour>
        <pt x="132" y="650" on="1"/>
        <pt x="95" y="540" on="1"/>
        <pt x="79" y="540" on="1"/>
        <pt x="113" y="650" on="1"/>
      </contour>
    </TTGlyph>
    <TTGlyph name="adieresis" xMin="21" yMin="-5" xMax="172" yMax="620">
      <contour>
        <pt x="172" y="440" on="1"/>
        <pt x="172" y="506" on="0"/>
        <pt x="21" y="506" on="0"/>
        <pt x="21" y="443" on="1"/>
        <pt x="21" y="376" on="1"/>
        <pt x="56" y="376" on="1"/>
        <pt x="56" y="439" on="1"/>
        <pt x="56" y="468" on="0"/>
        <pt x="73" y="495" on="0"/>
        <pt x="121" y="495" on="0"/>
        <pt x="137" y="468" on="0"/>
        <pt x="137" y="439" on="1"/>
        <pt x="137" y="310" on="1"/>
        <pt x="120" y="316" on="0"/>
        <pt x="99" y="316" on="1"/>
        <pt x="21" y="316" on="0"/>
        <pt x="21" y="254" on="1"/>
        <pt x="21" y="59" on="1"/>
        <pt x="21" y="-5" on="0"/>
        <pt x="94" y="-5" on="1"/>
        <pt x="120" y="-5" on="0"/>
        <pt x="137" y="2" on="1"/>
        <pt x="137" y="0" on="1"/>
        <pt x="172" y="0" on="1"/>
      </contour>
      <contour>
        <pt x="135" y="27" on="0"/>
        <pt x="116" y="9" on="0"/>
        <pt x="70" y="9" on="0"/>
        <pt x="56" y="33" on="0"/>
        <pt x="56" y="62" on="1"/>
        <pt x="56" y="251" on="1"/>
        <pt x="56" y="280" on="0"/>
        <pt x="75" y="301" on="0"/>
        <pt x="124" y="301" on="0"/>
        <pt x="137" y="276" on="0"/>
        <pt x="137" y="244" on="1"/>
        <pt x="137" y="51" on="1"/>
      </contour>
      <contour>
        <pt x="30" y="540" on="1"/>
        <pt x="28" y="620" on="1"/>
        <pt x="55" y="620" on="1"/>
        <pt x="53" y="540" on="1"/>
      </contour>
      <contour>
        <pt x="139" y="540" on="1"/>
        <pt x="137" y="620" on="1"/>
        <pt x="164" y="620" on="1"/>
        <pt x="162" y="540" on="1"/>
      </contour>
    </TTGlyph>
    <TTGlyph name="ae" xMin="21" yMin="-5" xMax="288" yMax="506">
      <contour>
        <pt x="21" y="443" on="1"/>
        <pt x="21" y="506" on="0"/>
        <pt x="98" y="506" on="1"/>
        <pt x="134" y="506" on="0"/>
        <pt x="154" y="488" on="1"/>
        <pt x="172" y="506" on="0"/>
        <pt x="215" y="506" on="1"/>
        <pt x="288" y="506" on="0"/>
        <pt x="288" y="442" on="1"/>
        <pt x="288" y="246" on="1"/>
        <pt x="286" y="185" on="0"/>
        <pt x="210" y="185" on="1"/>
        <pt x="187" y="185" on="0"/>
        <pt x="172" y="191" on="1"/>
        <pt x="172" y="53" on="1"/>
        <pt x="173" y="28" on="0"/>
        <pt x="190" y="6" on="0"/>
        <pt x="236" y="6" on="0"/>
        <pt x="253" y="33" on="0"/>
        <pt x="253" y="62" on="1"/>
        <pt x="253" y="130" on="1"/>
        <pt x="288" y="130" on="1"/>
        <pt x="288" y="58" on="1"/>
        <pt x="288" y="-5" on="0"/>
        <pt x="211" y="-5" on="1"/>
        <pt x="174" y="-5" on="0"/>
        <pt x="155" y="12" on="1"/>
        <pt x="136" y="-5" on="0"/>
        <pt x="94" y="-5" on="1"/>
        <pt x="21" y="-5" on="0"/>
        <pt x="21" y="59" on="1"/>
        <pt x="21" y="254" on="1"/>
        <pt x="21" y="316" on="0"/>
        <pt x="99" y="316" on="1"/>
        <pt x="120" y="316" on="0"/>
        <pt x="137" y="310" on="1"/>
        <pt x="137" y="443" on="1"/>
        <pt x="136" y="470" on="0"/>
        <pt x="119" y="495" on="0"/>
        <pt x="73" y="495" on="0"/>
        <pt x="56" y="468" on="0"/>
        <pt x="56" y="439" on="1"/>
        <pt x="56" y="376" on="1"/>
        <pt x="21" y="376" on="1"/>
      </contour>
      <contour>
        <pt x="137" y="247" on="1"/>
        <pt x="137" y="278" on="0"/>
        <pt x="123" y="301" on="0"/>
        <pt x="99" y="301" on="1"/>
        <pt x="75" y="301" on="0"/>
        <pt x="56" y="280" on="0"/>
        <pt x="56" y="251" on="1"/>
        <pt x="56" y="62" on="1"/>
        <pt x="56" y="33" on="0"/>
        <pt x="70" y="9" on="0"/>
        <pt x="117" y="9" on="0"/>
        <pt x="136" y="28" on="0"/>
        <pt x="137" y="54" on="1"/>
      </contour>
      <contour>
        <pt x="172" y="242" on="1"/>
        <pt x="173" y="219" on="0"/>
        <pt x="188" y="200" on="0"/>
        <pt x="234" y="200" on="0"/>
        <pt x="253" y="221" on="0"/>
        <pt x="253" y="250" on="1"/>
        <pt x="253" y="439" on="1"/>
        <pt x="253" y="468" on="0"/>
        <pt x="239" y="492" on="0"/>
        <pt x="192" y="492" on="0"/>
        <pt x="172" y="471" on="0"/>
        <pt x="172" y="444" on="1"/>
      </contour>
    </TTGlyph>
    <TTGlyph name="agrave" xMin="21" yMin="-5" xMax="172" yMax="650">
      <contour>
        <pt x="21" y="254" on="1"/>
        <pt x="21" y="316" on="0"/>
        <pt x="99" y="316" on="1"/>
        <pt x="120" y="316" on="0"/>
        <pt x="137" y="310" on="1"/>
        <pt x="137" y="439" on="1"/>
        <pt x="137" y="468" on="0"/>
        <pt x="121" y="495" on="0"/>
        <pt x="73" y="495" on="0"/>
        <pt x="56" y="468" on="0"/>
        <pt x="56" y="439" on="1"/>
        <pt x="56" y="376" on="1"/>
        <pt x="21" y="376" on="1"/>
        <pt x="21" y="443" on="1"/>
        <pt x="21" y="506" on="0"/>
        <pt x="172" y="506" on="0"/>
        <pt x="172" y="440" on="1"/>
        <pt x="172" y="0" on="1"/>
        <pt x="137" y="0" on="1"/>
        <pt x="137" y="2" on="1"/>
        <pt x="120" y="-5" on="0"/>
        <pt x="94" y="-5" on="1"/>
        <pt x="21" y="-5" on="0"/>
        <pt x="21" y="59" on="1"/>
      </contour>
      <contour>
        <pt x="56" y="33" on="0"/>
        <pt x="70" y="9" on="0"/>
        <pt x="116" y="9" on="0"/>
        <pt x="135" y="27" on="0"/>
        <pt x="137" y="51" on="1"/>
        <pt x="137" y="244" on="1"/>
        <pt x="137" y="276" on="0"/>
        <pt x="124" y="301" on="0"/>
        <pt x="75" y="301" on="0"/>
        <pt x="56" y="280" on="0"/>
        <pt x="56" y="251" on="1"/>
        <pt x="56" y="62" on="1"/>
      </contour>
      <contour>
        <pt x="73" y="650" on="1"/>
        <pt x="107" y="540" on="1"/>
        <pt x="91" y="540" on="1"/>
        <pt x="54" y="650" on="1"/>
      </contour>
    </TTGlyph>
    <TTGlyph name="ampersand" xMin="20" yMin="-5" xMax="192" yMax="706">
      <contour>
        <pt x="171" y="59" on="1"/>
        <pt x="171" y="-5" on="0"/>
        <pt x="20" y="-5" on="0"/>
        <pt x="20" y="57" on="1"/>
        <pt x="20" y="337" on="1"/>
        <pt x="20" y="377" on="0"/>
        <pt x="52" y="391" on="1"/>
        <pt x="20" y="405" on="0"/>
        <pt x="20" y="448" on="1"/>
        <pt x="20" y="642" on="1"/>
        <pt x="20" y="706" on="0"/>
        <pt x="171" y="706" on="0"/>
        <pt x="171" y="644" on="1"/>
        <pt x="171" y="500" on="1"/>
        <pt x="136" y="500" on="1"/>
        <pt x="136" y="641" on="1"/>
        <pt x="136" y="670" on="0"/>
        <pt x="117" y="691" on="0"/>
        <pt x="93" y="691" on="1"/>
        <pt x="69" y="691" on="0"/>
        <pt x="55" y="668" on="0"/>
        <pt x="55" y="638" on="1"/>
        <pt x="55" y="452" on="1"/>
        <pt x="55" y="424" on="0"/>
        <pt x="67" y="399" on="0"/>
        <pt x="87" y="399" on="1"/>
        <pt x="136" y="399" on="1"/>
        <pt x="136" y="384" on="1"/>
        <pt x="91" y="384" on="1"/>
        <pt x="71" y="384" on="0"/>
        <pt x="55" y="359" on="0"/>
        <pt x="55" y="333" on="1"/>
        <pt x="55" y="60" on="1"/>
        <pt x="55" y="31" on="0"/>
        <pt x="74" y="9" on="0"/>
        <pt x="98" y="9" on="1"/>
        <pt x="122" y="9" on="0"/>
        <pt x="136" y="33" on="0"/>
        <pt x="136" y="62" on="1"/>
        <pt x="136" y="301" on="1"/>
        <pt x="115" y="301" on="1"/>
        <pt x="115" y="316" on="1"/>
        <pt x="192" y="316" on="1"/>
        <pt x="192" y="301" on="1"/>
        <pt x="171" y="301" on="1"/>
      </contour>
    </TTGlyph>
    <TTGlyph name="aring" xMin="21" yMin="-5" xMax="172" yMax="667">
      <contour>
        <pt x="21" y="254" on="1"/>
        <pt x="21" y="316" on="0"/>
        <pt x="99" y="316" on="1"/>
        <pt x="120" y="316" on="0"/>
        <pt x="137" y="310" on="1"/>
        <pt x="137" y="439" on="1"/>
        <pt x="137" y="468" on="0"/>
        <pt x="121" y="495" on="0"/>
        <pt x="73" y="495" on="0"/>
        <pt x="56" y="468" on="0"/>
        <pt x="56" y="439" on="1"/>
        <pt x="56" y="376" on="1"/>
        <pt x="21" y="376" on="1"/>
        <pt x="21" y="443" on="1"/>
        <pt x="21" y="506" on="0"/>
        <pt x="172" y="506" on="0"/>
        <pt x="172" y="440" on="1"/>
        <pt x="172" y="0" on="1"/>
        <pt x="137" y="0" on="1"/>
        <pt x="137" y="2" on="1"/>
        <pt x="120" y="-5" on="0"/>
        <pt x="94" y="-5" on="1"/>
        <pt x="21" y="-5" on="0"/>
        <pt x="21" y="59" on="1"/>
      </contour>
      <contour>
        <pt x="56" y="33" on="0"/>
        <pt x="70" y="9" on="0"/>
        <pt x="116" y="9" on="0"/>
        <pt x="135" y="27" on="0"/>
        <pt x="137" y="51" on="1"/>
        <pt x="137" y="244" on="1"/>
        <pt x="137" y="276" on="0"/>
        <pt x="124" y="301" on="0"/>
        <pt x="75" y="301" on="0"/>
        <pt x="56" y="280" on="0"/>
        <pt x="56" y="251" on="1"/>
        <pt x="56" y="62" on="1"/>
      </contour>
      <contour>
        <pt x="38" y="604" on="1"/>
        <pt x="38" y="631" on="0"/>
        <pt x="74" y="667" on="0"/>
        <pt x="101" y="667" on="1"/>
        <pt x="128" y="667" on="0"/>
        <pt x="164" y="631" on="0"/>
        <pt x="164" y="604" on="1"/>
        <pt x="164" y="577" on="0"/>
        <pt x="128" y="541" on="0"/>
        <pt x="101" y="541" on="1"/>
        <pt x="74" y="541" on="0"/>
        <pt x="38" y="577" on="0"/>
      </contour>
      <contour>
        <pt x="53" y="604" on="1"/>
        <pt x="53" y="584" on="0"/>
        <pt x="80" y="556" on="0"/>
        <pt x="100" y="556" on="1"/>
        <pt x="120" y="556" on="0"/>
        <pt x="148" y="584" on="0"/>
        <pt x="148" y="604" on="1"/>
        <pt x="148" y="624" on="0"/>
        <pt x="120" y="652" on="0"/>
        <pt x="100" y="652" on="1"/>
        <pt x="80" y="652" on="0"/>
        <pt x="53" y="624" on="0"/>
      </contour>
    </TTGlyph>
    <TTGlyph name="asciicircum" xMin="21" yMin="315" xMax="179" yMax="400">
      <contour>
        <pt x="179" y="315" on="1"/>
        <pt x="100" y="378" on="1"/>
        <pt x="21" y="315" on="1"/>
        <pt x="21" y="334" on="1"/>
        <pt x="100" y="400" on="1"/>
        <pt x="179" y="334" on="1"/>
      </contour>
    </TTGlyph>
    <TTGlyph name="asciitilde" xMin="20" yMin="300" xMax="178" yMax="339">
      <contour>
        <pt x="178" y="339" on="1"/>
        <pt x="174" y="300" on="0"/>
        <pt x="135" y="300" on="1"/>
        <pt x="116" y="300" on="0"/>
        <pt x="87" y="319" on="0"/>
        <pt x="71" y="328" on="0"/>
        <pt x="59" y="328" on="1"/>
        <pt x="38" y="328" on="0"/>
        <pt x="32" y="314" on="1"/>
        <pt x="29" y="308" on="0"/>
        <pt x="30" y="300" on="1"/>
        <pt x="20" y="300" on="1"/>
        <pt x="20" y="320" on="0"/>
        <pt x="44" y="338" on="0"/>
        <pt x="73" y="338" on="0"/>
        <pt x="91" y="329" on="0"/>
        <pt x="98" y="324" on="1"/>
        <pt x="119" y="310" on="0"/>
        <pt x="134" y="310" on="1"/>
        <pt x="155" y="310" on="0"/>
        <pt x="163" y="324" on="1"/>
        <pt x="167" y="330" on="0"/>
        <pt x="167" y="339" on="1"/>
      </contour>
    </TTGlyph>
    <TTGlyph name="asterisk" xMin="17" yMin="520" xMax="181" yMax="700">
      <contour>
        <pt x="24" y="661" on="1"/>
        <pt x="91" y="622" on="1"/>
        <pt x="91" y="700" on="1"/>
        <pt x="106" y="700" on="1"/>
        <pt x="106" y="621" on="1"/>
        <pt x="173" y="661" on="1"/>
        <pt x="181" y="649" on="1"/>
        <pt x="113" y="609" on="1"/>
        <pt x="180" y="571" on="1"/>
        <pt x="173" y="558" on="1"/>
        <pt x="106" y="597" on="1"/>
        <pt x="106" y="520" on="1"/>
        <pt x="91" y="520" on="1"/>
        <pt x="91" y="597" on="1"/>
        <pt x="25" y="559" on="1"/>
        <pt x="17" y="571" on="1"/>
        <pt x="84" y="609" on="1"/>
        <pt x="17" y="648" on="1"/>
      </contour>
    </TTGlyph>
    <TTGlyph name="at" xMin="20" yMin="-107" xMax="407" yMax="608">
      <contour>
        <pt x="140" y="254" on="1"/>
        <pt x="140" y="316" on="0"/>
        <pt x="218" y="316" on="1"/>
        <pt x="239" y="316" on="0"/>
        <pt x="256" y="310" on="1"/>
        <pt x="256" y="439" on="1"/>
        <pt x="256" y="468" on="0"/>
        <pt x="240" y="495" on="0"/>
        <pt x="192" y="495" on="0"/>
        <pt x="175" y="468" on="0"/>
        <pt x="175" y="439" on="1"/>
        <pt x="175" y="376" on="1"/>
        <pt x="140" y="376" on="1"/>
        <pt x="140" y="443" on="1"/>
        <pt x="140" y="506" on="0"/>
        <pt x="291" y="506" on="0"/>
        <pt x="291" y="440" on="1"/>
        <pt x="291" y="1" on="1"/>
        <pt x="291" y="-28" on="0"/>
        <pt x="305" y="-52" on="0"/>
        <pt x="329" y="-52" on="1"/>
        <pt x="353" y="-52" on="0"/>
        <pt x="372" y="-30" on="0"/>
        <pt x="372" y="-1" on="1"/>
        <pt x="372" y="371" on="1"/>
        <pt x="372" y="432" on="0"/>
        <pt x="362" y="518" on="0"/>
        <pt x="346" y="545" on="1"/>
        <pt x="315" y="597" on="0"/>
        <pt x="223" y="597" on="1"/>
        <pt x="126" y="597" on="0"/>
        <pt x="89" y="544" on="1"/>
        <pt x="55" y="496" on="0"/>
        <pt x="55" y="371" on="1"/>
        <pt x="55" y="130" on="1"/>
        <pt x="55" y="9" on="0"/>
        <pt x="88" y="-42" on="1"/>
        <pt x="124" y="-96" on="0"/>
        <pt x="218" y="-96" on="1"/>
        <pt x="218" y="-107" on="1"/>
        <pt x="118" y="-107" on="0"/>
        <pt x="72" y="-64" on="1"/>
        <pt x="20" y="-13" on="0"/>
        <pt x="20" y="114" on="1"/>
        <pt x="20" y="387" on="1"/>
        <pt x="20" y="514" on="0"/>
        <pt x="74" y="564" on="1"/>
        <pt x="120" y="608" on="0"/>
        <pt x="219" y="608" on="1"/>
        <pt x="340" y="608" on="0"/>
        <pt x="379" y="544" on="1"/>
        <pt x="398" y="513" on="0"/>
        <pt x="407" y="427" on="0"/>
        <pt x="407" y="374" on="1"/>
        <pt x="407" y="-4" on="1"/>
        <pt x="407" y="-66" on="0"/>
        <pt x="256" y="-66" on="0"/>
        <pt x="256" y="-2" on="1"/>
        <pt x="256" y="2" on="1"/>
        <pt x="239" y="-5" on="0"/>
        <pt x="213" y="-5" on="1"/>
        <pt x="140" y="-5" on="0"/>
        <pt x="140" y="59" on="1"/>
      </contour>
      <contour>
        <pt x="175" y="33" on="0"/>
        <pt x="189" y="9" on="0"/>
        <pt x="236" y="9" on="0"/>
        <pt x="256" y="30" on="0"/>
        <pt x="256" y="58" on="1"/>
        <pt x="256" y="248" on="1"/>
        <pt x="256" y="278" on="0"/>
        <pt x="242" y="301" on="0"/>
        <pt x="218" y="301" on="1"/>
        <pt x="194" y="301" on="0"/>
        <pt x="175" y="280" on="0"/>
        <pt x="175" y="251" on="1"/>
        <pt x="175" y="62" on="1"/>
      </contour>
    </TTGlyph>
    <TTGlyph name="atilde" xMin="21" yMin="-5" xMax="172" yMax="587">
      <contour>
        <pt x="172" y="440" on="1"/>
        <pt x="172" y="506" on="0"/>
        <pt x="21" y="506" on="0"/>
        <pt x="21" y="443" on="1"/>
        <pt x="21" y="376" on="1"/>
        <pt x="56" y="376" on="1"/>
        <pt x="56" y="439" on="1"/>
        <pt x="56" y="468" on="0"/>
        <pt x="73" y="495" on="0"/>
        <pt x="121" y="495" on="0"/>
        <pt x="137" y="468" on="0"/>
        <pt x="137" y="439" on="1"/>
        <pt x="137" y="310" on="1"/>
        <pt x="120" y="316" on="0"/>
        <pt x="99" y="316" on="1"/>
        <pt x="21" y="316" on="0"/>
        <pt x="21" y="254" on="1"/>
        <pt x="21" y="59" on="1"/>
        <pt x="21" y="-5" on="0"/>
        <pt x="94" y="-5" on="1"/>
        <pt x="120" y="-5" on="0"/>
        <pt x="137" y="2" on="1"/>
        <pt x="137" y="0" on="1"/>
        <pt x="172" y="0" on="1"/>
      </contour>
      <contour>
        <pt x="135" y="27" on="0"/>
        <pt x="116" y="9" on="0"/>
        <pt x="70" y="9" on="0"/>
        <pt x="56" y="33" on="0"/>
        <pt x="56" y="62" on="1"/>
        <pt x="56" y="251" on="1"/>
        <pt x="56" y="280" on="0"/>
        <pt x="75" y="301" on="0"/>
        <pt x="124" y="301" on="0"/>
        <pt x="137" y="276" on="0"/>
        <pt x="137" y="244" on="1"/>
        <pt x="137" y="51" on="1"/>
      </contour>
      <contour>
        <pt x="171" y="587" on="1"/>
        <pt x="168" y="550" on="0"/>
        <pt x="130" y="550" on="1"/>
        <pt x="112" y="550" on="0"/>
        <pt x="84" y="569" on="0"/>
        <pt x="70" y="578" on="0"/>
        <pt x="59" y="578" on="1"/>
        <pt x="40" y="578" on="0"/>
        <pt x="34" y="564" on="1"/>
        <pt x="31" y="558" on="0"/>
        <pt x="32" y="550" on="1"/>
        <pt x="21" y="550" on="1"/>
        <pt x="21" y="569" on="0"/>
        <pt x="44" y="587" on="0"/>
        <pt x="73" y="587" on="0"/>
        <pt x="89" y="578" on="0"/>
        <pt x="96" y="573" on="1"/>
        <pt x="116" y="559" on="0"/>
        <pt x="129" y="559" on="1"/>
        <pt x="148" y="559" on="0"/>
        <pt x="156" y="573" on="1"/>
        <pt x="160" y="579" on="0"/>
        <pt x="160" y="587" on="1"/>
      </contour>
    </TTGlyph>
    <TTGlyph name="b" xMin="20" yMin="-5" xMax="171" yMax="750">
      <contour>
        <pt x="171" y="57" on="1"/>
        <pt x="171" y="-5" on="0"/>
        <pt x="20" y="-5" on="0"/>
        <pt x="20" y="59" on="1"/>
        <pt x="20" y="750" on="1"/>
        <pt x="55" y="750" on="1"/>
        <pt x="55" y="501" on="1"/>
        <pt x="72" y="508" on="0"/>
        <pt x="98" y="508" on="1"/>
        <pt x="171" y="508" on="0"/>
        <pt x="171" y="444" on="1"/>
      </contour>
      <contour>
        <pt x="136" y="440" on="1"/>
        <pt x="136" y="470" on="0"/>
        <pt x="122" y="493" on="0"/>
        <pt x="75" y="493" on="0"/>
        <pt x="55" y="475" on="0"/>
        <pt x="55" y="448" on="1"/>
        <pt x="55" y="62" on="1"/>
        <pt x="55" y="33" on="0"/>
        <pt x="69" y="9" on="0"/>
        <pt x="93" y="9" on="1"/>
        <pt x="117" y="9" on="0"/>
        <pt x="136" y="31" on="0"/>
        <pt x="136" y="60" on="1"/>
      </contour>
    </TTGlyph>
    <TTGlyph name="backslash" xMin="7" yMin="0" xMax="179" yMax="750">
      <contour>
        <pt x="30" y="750" on="1"/>
        <pt x="179" y="0" on="1"/>
        <pt x="156" y="0" on="1"/>
        <pt x="7" y="750" on="1"/>
      </contour>
    </TTGlyph>
    <TTGlyph name="bar" xMin="20" yMin="-50" xMax="55" yMax="750">
      <contour>
        <pt x="55" y="750" on="1"/>
        <pt x="55" y="-50" on="1"/>
        <pt x="20" y="-50" on="1"/>
        <pt x="20" y="750" on="1"/>
      </contour>
    </TTGlyph>
    <TTGlyph name="braceleft" xMin="20" yMin="-51" xMax="138" yMax="750">
      <contour>
        <pt x="138" y="-51" on="1"/>
        <pt x="60" y="-51" on="0"/>
        <pt x="60" y="11" on="1"/>
        <pt x="60" y="290" on="1"/>
        <pt x="60" y="317" on="0"/>
        <pt x="46" y="341" on="0"/>
        <pt x="20" y="343" on="1"/>
        <pt x="20" y="357" on="1"/>
        <pt x="44" y="357" on="0"/>
        <pt x="60" y="381" on="0"/>
        <pt x="60" y="410" on="1"/>
        <pt x="60" y="688" on="1"/>
        <pt x="60" y="750" on="0"/>
        <pt x="138" y="750" on="1"/>
        <pt x="138" y="735" on="1"/>
        <pt x="114" y="735" on="0"/>
        <pt x="95" y="714" on="0"/>
        <pt x="95" y="685" on="1"/>
        <pt x="95" y="406" on="1"/>
        <pt x="95" y="364" on="0"/>
        <pt x="64" y="349" on="1"/>
        <pt x="95" y="335" on="0"/>
        <pt x="95" y="293" on="1"/>
        <pt x="95" y="14" on="1"/>
        <pt x="95" y="-15" on="0"/>
        <pt x="114" y="-36" on="0"/>
        <pt x="138" y="-36" on="1"/>
      </contour>
    </TTGlyph>
    <TTGlyph name="braceright" xMin="20" yMin="-51" xMax="138" yMax="750">
      <contour>
        <pt x="20" y="750" on="1"/>
        <pt x="98" y="750" on="0"/>
        <pt x="98" y="688" on="1"/>
        <pt x="98" y="410" on="1"/>
        <pt x="98" y="381" on="0"/>
        <pt x="114" y="357" on="0"/>
        <pt x="138" y="357" on="1"/>
        <pt x="138" y="343" on="1"/>
        <pt x="112" y="341" on="0"/>
        <pt x="98" y="317" on="0"/>
        <pt x="98" y="290" on="1"/>
        <pt x="98" y="11" on="1"/>
        <pt x="98" y="-51" on="0"/>
        <pt x="20" y="-51" on="1"/>
        <pt x="20" y="-36" on="1"/>
        <pt x="44" y="-36" on="0"/>
        <pt x="63" y="-15" on="0"/>
        <pt x="63" y="14" on="1"/>
        <pt x="63" y="293" on="1"/>
        <pt x="63" y="335" on="0"/>
        <pt x="94" y="349" on="1"/>
        <pt x="63" y="364" on="0"/>
        <pt x="63" y="406" on="1"/>
        <pt x="63" y="685" on="1"/>
        <pt x="63" y="714" on="0"/>
        <pt x="44" y="735" on="0"/>
        <pt x="20" y="735" on="1"/>
      </contour>
    </TTGlyph>
    <TTGlyph name="bracketleft" xMin="20" yMin="-50" xMax="175" yMax="750">
      <contour>
        <pt x="20" y="750" on="1"/>
        <pt x="175" y="750" on="1"/>
        <pt x="175" y="735" on="1"/>
        <pt x="55" y="735" on="1"/>
        <pt x="55" y="-35" on="1"/>
        <pt x="175" y="-35" on="1"/>
        <pt x="175" y="-50" on="1"/>
        <pt x="20" y="-50" on="1"/>
      </contour>
    </TTGlyph>
    <TTGlyph name="bracketright" xMin="20" yMin="-50" xMax="175" yMax="750">
      <contour>
        <pt x="175" y="750" on="1"/>
        <pt x="175" y="-50" on="1"/>
        <pt x="20" y="-50" on="1"/>
        <pt x="20" y="-35" on="1"/>
        <pt x="140" y="-35" on="1"/>
        <pt x="140" y="735" on="1"/>
        <pt x="20" y="735" on="1"/>
        <pt x="20" y="750" on="1"/>
      </contour>
    </TTGlyph>
    <TTGlyph name="brokenbar" xMin="20" yMin="-50" xMax="55" yMax="750">
      <contour>
        <pt x="55" y="300" on="1"/>
        <pt x="55" y="-50" on="1"/>
        <pt x="20" y="-50" on="1"/>
        <pt x="20" y="300" on="1"/>
      </contour>
      <contour>
        <pt x="20" y="400" on="1"/>
        <pt x="20" y="750" on="1"/>
        <pt x="55" y="750" on="1"/>
        <pt x="55" y="400" on="1"/>
      </contour>
    </TTGlyph>
    <TTGlyph name="bullet" xMin="20" yMin="256" xMax="264" yMax="500">
      <contour>
        <pt x="20" y="378" on="1"/>
        <pt x="20" y="429" on="0"/>
        <pt x="91" y="500" on="0"/>
        <pt x="142" y="500" on="1"/>
        <pt x="193" y="500" on="0"/>
        <pt x="264" y="429" on="0"/>
        <pt x="264" y="378" on="1"/>
        <pt x="264" y="327" on="0"/>
        <pt x="193" y="256" on="0"/>
        <pt x="142" y="256" on="1"/>
        <pt x="91" y="256" on="0"/>
        <pt x="20" y="327" on="0"/>
      </contour>
    </TTGlyph>
    <TTGlyph name="c" xMin="21" yMin="-5" xMax="172" yMax="506">
      <contour>
        <pt x="21" y="443" on="1"/>
        <pt x="21" y="506" on="0"/>
        <pt x="172" y="506" on="0"/>
        <pt x="172" y="440" on="1"/>
        <pt x="172" y="376" on="1"/>
        <pt x="137" y="376" on="1"/>
        <pt x="137" y="439" on="1"/>
        <pt x="137" y="468" on="0"/>
        <pt x="121" y="495" on="0"/>
        <pt x="73" y="495" on="0"/>
        <pt x="56" y="468" on="0"/>
        <pt x="56" y="439" on="1"/>
        <pt x="56" y="62" on="1"/>
        <pt x="56" y="33" on="0"/>
        <pt x="72" y="6" on="0"/>
        <pt x="120" y="6" on="0"/>
        <pt x="137" y="33" on="0"/>
        <pt x="137" y="62" on="1"/>
        <pt x="137" y="130" on="1"/>
        <pt x="172" y="130" on="1"/>
        <pt x="172" y="58" on="1"/>
        <pt x="172" y="-5" on="0"/>
        <pt x="21" y="-5" on="0"/>
        <pt x="21" y="61" on="1"/>
      </contour>
    </TTGlyph>
    <TTGlyph name="ccedilla" xMin="22" yMin="-200" xMax="174" yMax="506">
      <contour>
        <pt x="23" y="443" on="1"/>
        <pt x="23" y="506" on="0"/>
        <pt x="174" y="506" on="0"/>
        <pt x="174" y="440" on="1"/>
        <pt x="174" y="376" on="1"/>
        <pt x="139" y="376" on="1"/>
        <pt x="139" y="439" on="1"/>
        <pt x="139" y="468" on="0"/>
        <pt x="123" y="495" on="0"/>
        <pt x="75" y="495" on="0"/>
        <pt x="58" y="468" on="0"/>
        <pt x="58" y="439" on="1"/>
        <pt x="58" y="62" on="1"/>
        <pt x="58" y="33" on="0"/>
        <pt x="74" y="6" on="0"/>
        <pt x="122" y="6" on="0"/>
        <pt x="139" y="33" on="0"/>
        <pt x="139" y="62" on="1"/>
        <pt x="139" y="130" on="1"/>
        <pt x="174" y="130" on="1"/>
        <pt x="174" y="58" on="1"/>
        <pt x="174" y="3" on="0"/>
        <pt x="117" y="-3" on="1"/>
        <pt x="117" y="-137" on="1"/>
        <pt x="117" y="-167" on="0"/>
        <pt x="82" y="-200" on="0"/>
        <pt x="33" y="-200" on="0"/>
        <pt x="22" y="-196" on="1"/>
        <pt x="27" y="-185" on="1"/>
        <pt x="36" y="-188" on="0"/>
        <pt x="48" y="-188" on="1"/>
        <pt x="82" y="-188" on="0"/>
        <pt x="82" y="-133" on="1"/>
        <pt x="82" y="-4" on="1"/>
        <pt x="23" y="2" on="0"/>
        <pt x="23" y="61" on="1"/>
      </contour>
    </TTGlyph>
    <TTGlyph name="cedilla" xMin="-28" yMin="-200" xMax="67" yMax="0">
      <contour>
        <pt x="67" y="0" on="1"/>
        <pt x="67" y="-137" on="1"/>
        <pt x="67" y="-167" on="0"/>
        <pt x="32" y="-200" on="0"/>
        <pt x="-17" y="-200" on="0"/>
        <pt x="-28" y="-196" on="1"/>
        <pt x="-23" y="-185" on="1"/>
        <pt x="-14" y="-188" on="0"/>
        <pt x="-2" y="-188" on="1"/>
        <pt x="32" y="-188" on="0"/>
        <pt x="32" y="-133" on="1"/>
        <pt x="32" y="0" on="1"/>
      </contour>
    </TTGlyph>
    <TTGlyph name="cent" xMin="21" yMin="-50" xMax="172" yMax="550">
      <contour>
        <pt x="21" y="443" on="1"/>
        <pt x="21" y="502" on="0"/>
        <pt x="87" y="506" on="1"/>
        <pt x="87" y="550" on="1"/>
        <pt x="102" y="550" on="1"/>
        <pt x="102" y="506" on="1"/>
        <pt x="172" y="503" on="0"/>
        <pt x="172" y="440" on="1"/>
        <pt x="172" y="376" on="1"/>
        <pt x="137" y="376" on="1"/>
        <pt x="137" y="439" on="1"/>
        <pt x="137" y="467" on="0"/>
        <pt x="122" y="493" on="0"/>
        <pt x="102" y="495" on="1"/>
        <pt x="102" y="6" on="1"/>
        <pt x="122" y="8" on="0"/>
        <pt x="137" y="35" on="0"/>
        <pt x="137" y="62" on="1"/>
        <pt x="137" y="130" on="1"/>
        <pt x="172" y="130" on="1"/>
        <pt x="172" y="58" on="1"/>
        <pt x="172" y="26" on="0"/>
        <pt x="136" y="-3" on="0"/>
        <pt x="102" y="-5" on="1"/>
        <pt x="102" y="-50" on="1"/>
        <pt x="87" y="-50" on="1"/>
        <pt x="87" y="-5" on="1"/>
        <pt x="21" y="-2" on="0"/>
        <pt x="21" y="61" on="1"/>
      </contour>
      <contour>
        <pt x="56" y="62" on="1"/>
        <pt x="56" y="35" on="0"/>
        <pt x="69" y="8" on="0"/>
        <pt x="87" y="6" on="1"/>
        <pt x="87" y="494" on="1"/>
        <pt x="69" y="492" on="0"/>
        <pt x="56" y="465" on="0"/>
        <pt x="56" y="439" on="1"/>
      </contour>
    </TTGlyph>
    <TTGlyph name="circumflex" xMin="36" yMin="540" xMax="156" yMax="643">
      <contour>
        <pt x="36" y="540" on="1"/>
        <pt x="96" y="643" on="1"/>
        <pt x="156" y="540" on="1"/>
        <pt x="144" y="540" on="1"/>
        <pt x="96" y="615" on="1"/>
        <pt x="48" y="540" on="1"/>
      </contour>
    </TTGlyph>
    <TTGlyph name="colon" xMin="20" yMin="0" xMax="55" yMax="465">
      <contour>
        <pt x="20" y="0" on="1"/>
        <pt x="20" y="64" on="1"/>
        <pt x="55" y="64" on="1"/>
        <pt x="55" y="0" on="1"/>
      </contour>
      <contour>
        <pt x="20" y="401" on="1"/>
        <pt x="20" y="465" on="1"/>
        <pt x="55" y="465" on="1"/>
        <pt x="55" y="401" on="1"/>
      </contour>
    </TTGlyph>
    <TTGlyph name="comma" xMin="12" yMin="-52" xMax="68" yMax="80">
      <contour>
        <pt x="12" y="-52" on="1"/>
        <pt x="33" y="80" on="1"/>
        <pt x="68" y="80" on="1"/>
        <pt x="43" y="-52" on="1"/>
      </contour>
    </TTGlyph>
    <TTGlyph name="copyright" xMin="20" yMin="-6" xMax="415" yMax="602">
      <contour>
        <pt x="146" y="434" on="1"/>
        <pt x="146" y="500" on="0"/>
        <pt x="297" y="500" on="0"/>
        <pt x="297" y="437" on="1"/>
        <pt x="297" y="370" on="1"/>
        <pt x="262" y="370" on="1"/>
        <pt x="262" y="433" on="1"/>
        <pt x="262" y="462" on="0"/>
        <pt x="245" y="489" on="0"/>
        <pt x="197" y="489" on="0"/>
        <pt x="181" y="462" on="0"/>
        <pt x="181" y="433" on="1"/>
        <pt x="181" y="162" on="1"/>
        <pt x="181" y="133" on="0"/>
        <pt x="198" y="106" on="0"/>
        <pt x="246" y="106" on="0"/>
        <pt x="262" y="133" on="0"/>
        <pt x="262" y="162" on="1"/>
        <pt x="262" y="230" on="1"/>
        <pt x="297" y="230" on="1"/>
        <pt x="297" y="161" on="1"/>
        <pt x="297" y="95" on="0"/>
        <pt x="146" y="95" on="0"/>
        <pt x="146" y="158" on="1"/>
      </contour>
      <contour>
        <pt x="20" y="396" on="1"/>
        <pt x="22" y="514" on="0"/>
        <pt x="73" y="561" on="1"/>
        <pt x="118" y="602" on="0"/>
        <pt x="223" y="602" on="1"/>
        <pt x="347" y="602" on="0"/>
        <pt x="386" y="538" on="1"/>
        <pt x="405" y="507" on="0"/>
        <pt x="415" y="421" on="0"/>
        <pt x="415" y="368" on="1"/>
        <pt x="415" y="228" on="1"/>
        <pt x="415" y="175" on="0"/>
        <pt x="405" y="89" on="0"/>
        <pt x="386" y="58" on="1"/>
        <pt x="347" y="-6" on="0"/>
        <pt x="223" y="-6" on="1"/>
        <pt x="118" y="-6" on="0"/>
        <pt x="73" y="35" on="1"/>
        <pt x="22" y="82" on="0"/>
        <pt x="20" y="200" on="1"/>
      </contour>
      <contour>
        <pt x="55" y="231" on="1"/>
        <pt x="55" y="106" on="0"/>
        <pt x="90" y="58" on="1"/>
        <pt x="128" y="5" on="0"/>
        <pt x="227" y="5" on="1"/>
        <pt x="323" y="5" on="0"/>
        <pt x="354" y="57" on="1"/>
        <pt x="370" y="84" on="0"/>
        <pt x="380" y="170" on="0"/>
        <pt x="380" y="231" on="1"/>
        <pt x="380" y="365" on="1"/>
        <pt x="380" y="426" on="0"/>
        <pt x="370" y="512" on="0"/>
        <pt x="354" y="539" on="1"/>
        <pt x="323" y="591" on="0"/>
        <pt x="227" y="591" on="1"/>
        <pt x="129" y="591" on="0"/>
        <pt x="92" y="541" on="1"/>
        <pt x="57" y="495" on="0"/>
        <pt x="55" y="377" on="1"/>
      </contour>
    </TTGlyph>
    <TTGlyph name="currency" xMin="16" yMin="215" xMax="286" yMax="531">
      <contour>
        <pt x="79" y="469" on="1"/>
        <pt x="91" y="508" on="0"/>
        <pt x="209" y="508" on="0"/>
        <pt x="222" y="469" on="1"/>
        <pt x="273" y="531" on="1"/>
        <pt x="286" y="521" on="1"/>
        <pt x="226" y="449" on="1"/>
        <pt x="226" y="299" on="1"/>
        <pt x="231" y="290" on="1"/>
        <pt x="286" y="225" on="1"/>
        <pt x="274" y="215" on="1"/>
        <pt x="223" y="276" on="1"/>
        <pt x="213" y="233" on="0"/>
        <pt x="88" y="233" on="0"/>
        <pt x="78" y="274" on="1"/>
        <pt x="28" y="215" on="1"/>
        <pt x="16" y="225" on="1"/>
        <pt x="75" y="295" on="1"/>
        <pt x="75" y="450" on="1"/>
        <pt x="16" y="521" on="1"/>
        <pt x="28" y="531" on="1"/>
      </contour>
      <contour>
        <pt x="148" y="247" on="1"/>
        <pt x="172" y="247" on="0"/>
        <pt x="191" y="269" on="0"/>
        <pt x="191" y="298" on="1"/>
        <pt x="191" y="443" on="1"/>
        <pt x="191" y="472" on="0"/>
        <pt x="172" y="493" on="0"/>
        <pt x="148" y="493" on="1"/>
        <pt x="124" y="493" on="0"/>
        <pt x="110" y="470" on="0"/>
        <pt x="110" y="440" on="1"/>
        <pt x="110" y="300" on="1"/>
        <pt x="110" y="271" on="0"/>
        <pt x="124" y="247" on="0"/>
      </contour>
    </TTGlyph>
    <TTGlyph name="d" xMin="20" yMin="-5" xMax="171" yMax="750">
      <contour>
        <pt x="20" y="443" on="1"/>
        <pt x="20" y="506" on="0"/>
        <pt x="97" y="506" on="1"/>
        <pt x="117" y="506" on="0"/>
        <pt x="136" y="499" on="1"/>
        <pt x="136" y="750" on="1"/>
        <pt x="171" y="750" on="1"/>
        <pt x="171" y="58" on="1"/>
        <pt x="171" y="-5" on="0"/>
        <pt x="20" y="-5" on="0"/>
        <pt x="20" y="61" on="1"/>
      </contour>
      <contour>
        <pt x="55" y="33" on="0"/>
        <pt x="71" y="6" on="0"/>
        <pt x="119" y="6" on="0"/>
        <pt x="136" y="33" on="0"/>
        <pt x="136" y="62" on="1"/>
        <pt x="136" y="439" on="1"/>
        <pt x="136" y="468" on="0"/>
        <pt x="120" y="495" on="0"/>
        <pt x="72" y="495" on="0"/>
        <pt x="55" y="468" on="0"/>
        <pt x="55" y="439" on="1"/>
        <pt x="55" y="62" on="1"/>
      </contour>
    </TTGlyph>
    <TTGlyph name="degree" xMin="33" yMin="572" xMax="161" yMax="700">
      <contour>
        <pt x="33" y="636" on="1"/>
        <pt x="33" y="663" on="0"/>
        <pt x="70" y="700" on="0"/>
        <pt x="97" y="700" on="1"/>
        <pt x="124" y="700" on="0"/>
        <pt x="161" y="663" on="0"/>
        <pt x="161" y="636" on="1"/>
        <pt x="161" y="609" on="0"/>
        <pt x="124" y="572" on="0"/>
        <pt x="97" y="572" on="1"/>
        <pt x="70" y="572" on="0"/>
        <pt x="33" y="609" on="0"/>
      </contour>
      <contour>
        <pt x="49" y="636" on="1"/>
        <pt x="49" y="616" on="0"/>
        <pt x="77" y="588" on="0"/>
        <pt x="116" y="588" on="0"/>
        <pt x="144" y="616" on="0"/>
        <pt x="144" y="636" on="1"/>
        <pt x="144" y="656" on="0"/>
        <pt x="116" y="684" on="0"/>
        <pt x="77" y="684" on="0"/>
        <pt x="49" y="656" on="0"/>
      </contour>
    </TTGlyph>
    <TTGlyph name="dieresis" xMin="28" yMin="540" xMax="164" yMax="620">
      <contour>
        <pt x="30" y="540" on="1"/>
        <pt x="28" y="620" on="1"/>
        <pt x="55" y="620" on="1"/>
        <pt x="53" y="540" on="1"/>
      </contour>
      <contour>
        <pt x="139" y="540" on="1"/>
        <pt x="137" y="620" on="1"/>
        <pt x="164" y="620" on="1"/>
        <pt x="162" y="540" on="1"/>
      </contour>
    </TTGlyph>
    <TTGlyph name="divide" xMin="20" yMin="147" xMax="280" yMax="464">
      <contour>
        <pt x="20" y="301" on="1"/>
        <pt x="280" y="301" on="1"/>
        <pt x="280" y="316" on="1"/>
        <pt x="20" y="316" on="1"/>
      </contour>
      <contour>
        <pt x="128" y="147" on="1"/>
        <pt x="128" y="211" on="1"/>
        <pt x="163" y="211" on="1"/>
        <pt x="163" y="147" on="1"/>
      </contour>
      <contour>
        <pt x="128" y="400" on="1"/>
        <pt x="128" y="464" on="1"/>
        <pt x="163" y="464" on="1"/>
        <pt x="163" y="400" on="1"/>
      </contour>
    </TTGlyph>
    <TTGlyph name="dollar" xMin="21" yMin="0" xMax="172" yMax="700">
      <contour>
        <pt x="21" y="587" on="1"/>
        <pt x="21" y="646" on="0"/>
        <pt x="88" y="650" on="1"/>
        <pt x="88" y="700" on="1"/>
        <pt x="103" y="700" on="1"/>
        <pt x="103" y="650" on="1"/>
        <pt x="172" y="647" on="0"/>
        <pt x="172" y="584" on="1"/>
        <pt x="172" y="458" on="1"/>
        <pt x="137" y="458" on="1"/>
        <pt x="137" y="583" on="1"/>
        <pt x="137" y="611" on="0"/>
        <pt x="123" y="637" on="0"/>
        <pt x="103" y="639" on="1"/>
        <pt x="103" y="386" on="1"/>
        <pt x="138" y="348" on="0"/>
        <pt x="148" y="331" on="1"/>
        <pt x="172" y="293" on="0"/>
        <pt x="172" y="257" on="1"/>
        <pt x="172" y="113" on="1"/>
        <pt x="172" y="81" on="0"/>
        <pt x="136" y="52" on="0"/>
        <pt x="103" y="50" on="1"/>
        <pt x="103" y="0" on="1"/>
        <pt x="88" y="0" on="1"/>
        <pt x="88" y="50" on="1"/>
        <pt x="21" y="53" on="0"/>
        <pt x="21" y="116" on="1"/>
        <pt x="21" y="212" on="1"/>
        <pt x="56" y="212" on="1"/>
        <pt x="56" y="117" on="1"/>
        <pt x="56" y="90" on="0"/>
        <pt x="69" y="63" on="0"/>
        <pt x="88" y="61" on="1"/>
        <pt x="88" y="355" on="1"/>
        <pt x="76" y="368" on="0"/>
        <pt x="52" y="394" on="0"/>
        <pt x="42" y="408" on="1"/>
        <pt x="21" y="440" on="0"/>
        <pt x="21" y="472" on="1"/>
      </contour>
      <contour>
        <pt x="137" y="249" on="1"/>
        <pt x="137" y="278" on="0"/>
        <pt x="120" y="317" on="0"/>
        <pt x="103" y="338" on="1"/>
        <pt x="103" y="61" on="1"/>
        <pt x="123" y="63" on="0"/>
        <pt x="137" y="90" on="0"/>
        <pt x="137" y="117" on="1"/>
      </contour>
      <contour>
        <pt x="56" y="477" on="1"/>
        <pt x="56" y="441" on="0"/>
        <pt x="88" y="403" on="1"/>
        <pt x="88" y="638" on="1"/>
        <pt x="69" y="636" on="0"/>
        <pt x="56" y="609" on="0"/>
        <pt x="56" y="583" on="1"/>
      </contour>
    </TTGlyph>
    <TTGlyph name="e" xMin="20" yMin="-5" xMax="171" yMax="506">
      <contour>
        <pt x="20" y="444" on="1"/>
        <pt x="20" y="506" on="0"/>
        <pt x="171" y="506" on="0"/>
        <pt x="171" y="442" on="1"/>
        <pt x="171" y="246" on="1"/>
        <pt x="170" y="213" on="0"/>
        <pt x="130" y="185" on="0"/>
        <pt x="70" y="185" on="0"/>
        <pt x="55" y="191" on="1"/>
        <pt x="55" y="62" on="1"/>
        <pt x="55" y="33" on="0"/>
        <pt x="71" y="6" on="0"/>
        <pt x="119" y="6" on="0"/>
        <pt x="136" y="33" on="0"/>
        <pt x="136" y="62" on="1"/>
        <pt x="136" y="130" on="1"/>
        <pt x="171" y="130" on="1"/>
        <pt x="171" y="58" on="1"/>
        <pt x="171" y="-5" on="0"/>
        <pt x="20" y="-5" on="0"/>
        <pt x="20" y="61" on="1"/>
      </contour>
      <contour>
        <pt x="55" y="253" on="1"/>
        <pt x="55" y="222" on="0"/>
        <pt x="68" y="200" on="0"/>
        <pt x="117" y="200" on="0"/>
        <pt x="136" y="221" on="0"/>
        <pt x="136" y="250" on="1"/>
        <pt x="136" y="439" on="1"/>
        <pt x="136" y="468" on="0"/>
        <pt x="122" y="492" on="0"/>
        <pt x="98" y="492" on="1"/>
        <pt x="74" y="492" on="0"/>
        <pt x="55" y="470" on="0"/>
        <pt x="55" y="441" on="1"/>
      </contour>
    </TTGlyph>
    <TTGlyph name="eacute" xMin="20" yMin="-5" xMax="171" yMax="650">
      <contour>
        <pt x="20" y="61" on="1"/>
        <pt x="20" y="-5" on="0"/>
        <pt x="171" y="-5" on="0"/>
        <pt x="171" y="58" on="1"/>
        <pt x="171" y="130" on="1"/>
        <pt x="136" y="130" on="1"/>
        <pt x="136" y="62" on="1"/>
        <pt x="136" y="33" on="0"/>
        <pt x="119" y="6" on="0"/>
        <pt x="71" y="6" on="0"/>
        <pt x="55" y="33" on="0"/>
        <pt x="55" y="62" on="1"/>
        <pt x="55" y="191" on="1"/>
        <pt x="70" y="185" on="0"/>
        <pt x="100" y="185" on="1"/>
        <pt x="169" y="185" on="0"/>
        <pt x="171" y="246" on="1"/>
        <pt x="171" y="442" on="1"/>
        <pt x="171" y="506" on="0"/>
        <pt x="20" y="506" on="0"/>
        <pt x="20" y="444" on="1"/>
      </contour>
      <contour>
        <pt x="55" y="441" on="1"/>
        <pt x="55" y="470" on="0"/>
        <pt x="74" y="492" on="0"/>
        <pt x="98" y="492" on="1"/>
        <pt x="122" y="492" on="0"/>
        <pt x="136" y="468" on="0"/>
        <pt x="136" y="439" on="1"/>
        <pt x="136" y="250" on="1"/>
        <pt x="136" y="221" on="0"/>
        <pt x="117" y="200" on="0"/>
        <pt x="68" y="200" on="0"/>
        <pt x="55" y="222" on="0"/>
        <pt x="55" y="253" on="1"/>
      </contour>
      <contour>
        <pt x="144" y="650" on="1"/>
        <pt x="107" y="540" on="1"/>
        <pt x="91" y="540" on="1"/>
        <pt x="125" y="650" on="1"/>
      </contour>
    </TTGlyph>
    <TTGlyph name="ecircumflex" xMin="20" yMin="-5" xMax="171" yMax="643">
      <contour>
        <pt x="20" y="444" on="1"/>
        <pt x="20" y="506" on="0"/>
        <pt x="171" y="506" on="0"/>
        <pt x="171" y="442" on="1"/>
        <pt x="171" y="246" on="1"/>
        <pt x="170" y="213" on="0"/>
        <pt x="130" y="185" on="0"/>
        <pt x="70" y="185" on="0"/>
        <pt x="55" y="191" on="1"/>
        <pt x="55" y="62" on="1"/>
        <pt x="55" y="33" on="0"/>
        <pt x="71" y="6" on="0"/>
        <pt x="119" y="6" on="0"/>
        <pt x="136" y="33" on="0"/>
        <pt x="136" y="62" on="1"/>
        <pt x="136" y="130" on="1"/>
        <pt x="171" y="130" on="1"/>
        <pt x="171" y="58" on="1"/>
        <pt x="171" y="-5" on="0"/>
        <pt x="20" y="-5" on="0"/>
        <pt x="20" y="61" on="1"/>
      </contour>
      <contour>
        <pt x="55" y="253" on="1"/>
        <pt x="55" y="222" on="0"/>
        <pt x="68" y="200" on="0"/>
        <pt x="117" y="200" on="0"/>
        <pt x="136" y="221" on="0"/>
        <pt x="136" y="250" on="1"/>
        <pt x="136" y="439" on="1"/>
        <pt x="136" y="468" on="0"/>
        <pt x="122" y="492" on="0"/>
        <pt x="98" y="492" on="1"/>
        <pt x="74" y="492" on="0"/>
        <pt x="55" y="470" on="0"/>
        <pt x="55" y="441" on="1"/>
      </contour>
      <contour>
        <pt x="36" y="540" on="1"/>
        <pt x="96" y="643" on="1"/>
        <pt x="156" y="540" on="1"/>
        <pt x="144" y="540" on="1"/>
        <pt x="96" y="615" on="1"/>
        <pt x="48" y="540" on="1"/>
      </contour>
    </TTGlyph>
    <TTGlyph name="edieresis" xMin="20" yMin="-5" xMax="171" yMax="620">
      <contour>
        <pt x="20" y="61" on="1"/>
        <pt x="20" y="-5" on="0"/>
        <pt x="171" y="-5" on="0"/>
        <pt x="171" y="58" on="1"/>
        <pt x="171" y="130" on="1"/>
        <pt x="136" y="130" on="1"/>
        <pt x="136" y="62" on="1"/>
        <pt x="136" y="33" on="0"/>
        <pt x="119" y="6" on="0"/>
        <pt x="71" y="6" on="0"/>
        <pt x="55" y="33" on="0"/>
        <pt x="55" y="62" on="1"/>
        <pt x="55" y="191" on="1"/>
        <pt x="70" y="185" on="0"/>
        <pt x="100" y="185" on="1"/>
        <pt x="169" y="185" on="0"/>
        <pt x="171" y="246" on="1"/>
        <pt x="171" y="442" on="1"/>
        <pt x="171" y="506" on="0"/>
        <pt x="20" y="506" on="0"/>
        <pt x="20" y="444" on="1"/>
      </contour>
      <contour>
        <pt x="55" y="441" on="1"/>
        <pt x="55" y="470" on="0"/>
        <pt x="74" y="492" on="0"/>
        <pt x="98" y="492" on="1"/>
        <pt x="122" y="492" on="0"/>
        <pt x="136" y="468" on="0"/>
        <pt x="136" y="439" on="1"/>
        <pt x="136" y="250" on="1"/>
        <pt x="136" y="221" on="0"/>
        <pt x="117" y="200" on="0"/>
        <pt x="68" y="200" on="0"/>
        <pt x="55" y="222" on="0"/>
        <pt x="55" y="253" on="1"/>
      </contour>
      <contour>
        <pt x="30" y="540" on="1"/>
        <pt x="28" y="620" on="1"/>
        <pt x="55" y="620" on="1"/>
        <pt x="53" y="540" on="1"/>
      </contour>
      <contour>
        <pt x="139" y="540" on="1"/>
        <pt x="137" y="620" on="1"/>
        <pt x="164" y="620" on="1"/>
        <pt x="162" y="540" on="1"/>
      </contour>
    </TTGlyph>
    <TTGlyph name="egrave" xMin="20" yMin="-5" xMax="171" yMax="650">
      <contour>
        <pt x="20" y="444" on="1"/>
        <pt x="20" y="506" on="0"/>
        <pt x="171" y="506" on="0"/>
        <pt x="171" y="442" on="1"/>
        <pt x="171" y="246" on="1"/>
        <pt x="170" y="213" on="0"/>
        <pt x="130" y="185" on="0"/>
        <pt x="70" y="185" on="0"/>
        <pt x="55" y="191" on="1"/>
        <pt x="55" y="62" on="1"/>
        <pt x="55" y="33" on="0"/>
        <pt x="71" y="6" on="0"/>
        <pt x="119" y="6" on="0"/>
        <pt x="136" y="33" on="0"/>
        <pt x="136" y="62" on="1"/>
        <pt x="136" y="130" on="1"/>
        <pt x="171" y="130" on="1"/>
        <pt x="171" y="58" on="1"/>
        <pt x="171" y="-5" on="0"/>
        <pt x="20" y="-5" on="0"/>
        <pt x="20" y="61" on="1"/>
      </contour>
      <contour>
        <pt x="55" y="253" on="1"/>
        <pt x="55" y="222" on="0"/>
        <pt x="68" y="200" on="0"/>
        <pt x="117" y="200" on="0"/>
        <pt x="136" y="221" on="0"/>
        <pt x="136" y="250" on="1"/>
        <pt x="136" y="439" on="1"/>
        <pt x="136" y="468" on="0"/>
        <pt x="122" y="492" on="0"/>
        <pt x="98" y="492" on="1"/>
        <pt x="74" y="492" on="0"/>
        <pt x="55" y="470" on="0"/>
        <pt x="55" y="441" on="1"/>
      </contour>
      <contour>
        <pt x="73" y="650" on="1"/>
        <pt x="107" y="540" on="1"/>
        <pt x="91" y="540" on="1"/>
        <pt x="54" y="650" on="1"/>
      </contour>
    </TTGlyph>
    <TTGlyph name="eight" xMin="20" yMin="-5" xMax="171" yMax="706">
      <contour>
        <pt x="171" y="57" on="1"/>
        <pt x="171" y="-5" on="0"/>
        <pt x="20" y="-5" on="0"/>
        <pt x="20" y="59" on="1"/>
        <pt x="20" y="344" on="1"/>
        <pt x="20" y="384" on="0"/>
        <pt x="52" y="398" on="1"/>
        <pt x="20" y="411" on="0"/>
        <pt x="20" y="456" on="1"/>
        <pt x="20" y="644" on="1"/>
        <pt x="20" y="706" on="0"/>
        <pt x="171" y="706" on="0"/>
        <pt x="171" y="642" on="1"/>
        <pt x="171" y="454" on="1"/>
        <pt x="171" y="413" on="0"/>
        <pt x="138" y="399" on="1"/>
        <pt x="171" y="385" on="0"/>
        <pt x="171" y="342" on="1"/>
      </contour>
      <contour>
        <pt x="136" y="338" on="1"/>
        <pt x="136" y="368" on="0"/>
        <pt x="122" y="391" on="0"/>
        <pt x="73" y="391" on="0"/>
        <pt x="55" y="370" on="0"/>
        <pt x="55" y="341" on="1"/>
        <pt x="55" y="62" on="1"/>
        <pt x="55" y="33" on="0"/>
        <pt x="69" y="9" on="0"/>
        <pt x="93" y="9" on="1"/>
        <pt x="117" y="9" on="0"/>
        <pt x="136" y="31" on="0"/>
        <pt x="136" y="60" on="1"/>
      </contour>
      <contour>
        <pt x="136" y="638" on="1"/>
        <pt x="136" y="668" on="0"/>
        <pt x="122" y="691" on="0"/>
        <pt x="98" y="691" on="1"/>
        <pt x="74" y="691" on="0"/>
        <pt x="55" y="670" on="0"/>
        <pt x="55" y="641" on="1"/>
        <pt x="55" y="459" on="1"/>
        <pt x="55" y="430" on="0"/>
        <pt x="71" y="406" on="0"/>
        <pt x="120" y="407" on="0"/>
        <pt x="136" y="430" on="0"/>
        <pt x="136" y="457" on="1"/>
      </contour>
    </TTGlyph>
    <TTGlyph name="ellipsis" xMin="20" yMin="0" xMax="215" yMax="64">
      <contour>
        <pt x="20" y="0" on="1"/>
        <pt x="20" y="64" on="1"/>
        <pt x="55" y="64" on="1"/>
        <pt x="55" y="0" on="1"/>
      </contour>
      <contour>
        <pt x="100" y="0" on="1"/>
        <pt x="100" y="64" on="1"/>
        <pt x="135" y="64" on="1"/>
        <pt x="135" y="0" on="1"/>
      </contour>
      <contour>
        <pt x="180" y="0" on="1"/>
        <pt x="180" y="64" on="1"/>
        <pt x="215" y="64" on="1"/>
        <pt x="215" y="0" on="1"/>
      </contour>
    </TTGlyph>
    <TTGlyph name="emdash" xMin="20" yMin="301" xMax="300" yMax="316">
      <contour>
        <pt x="20" y="316" on="1"/>
        <pt x="300" y="316" on="1"/>
        <pt x="300" y="301" on="1"/>
        <pt x="20" y="301" on="1"/>
      </contour>
    </TTGlyph>
    <TTGlyph name="endash" xMin="20" yMin="301" xMax="250" yMax="316">
      <contour>
        <pt x="20" y="316" on="1"/>
        <pt x="250" y="316" on="1"/>
        <pt x="250" y="301" on="1"/>
        <pt x="20" y="301" on="1"/>
      </contour>
    </TTGlyph>
    <TTGlyph name="equal" xMin="20" yMin="200" xMax="280" yMax="400">
      <contour>
        <pt x="20" y="400" on="1"/>
        <pt x="280" y="400" on="1"/>
        <pt x="280" y="385" on="1"/>
        <pt x="20" y="385" on="1"/>
      </contour>
      <contour>
        <pt x="20" y="215" on="1"/>
        <pt x="280" y="215" on="1"/>
        <pt x="280" y="200" on="1"/>
        <pt x="20" y="200" on="1"/>
      </contour>
    </TTGlyph>
    <TTGlyph name="eth" xMin="20" yMin="-5" xMax="188" yMax="752">
      <contour>
        <pt x="171" y="57" on="1"/>
        <pt x="171" y="-5" on="0"/>
        <pt x="20" y="-5" on="0"/>
        <pt x="20" y="59" on="1"/>
        <pt x="20" y="444" on="1"/>
        <pt x="20" y="508" on="0"/>
        <pt x="93" y="508" on="1"/>
        <pt x="119" y="508" on="0"/>
        <pt x="136" y="501" on="1"/>
        <pt x="136" y="683" on="1"/>
        <pt x="136" y="693" on="0"/>
        <pt x="135" y="697" on="1"/>
        <pt x="86" y="654" on="1"/>
        <pt x="78" y="662" on="1"/>
        <pt x="133" y="710" on="1"/>
        <pt x="127" y="739" on="0"/>
        <pt x="94" y="739" on="1"/>
        <pt x="94" y="750" on="1"/>
        <pt x="137" y="750" on="0"/>
        <pt x="155" y="730" on="1"/>
        <pt x="181" y="752" on="1"/>
        <pt x="188" y="744" on="1"/>
        <pt x="162" y="721" on="1"/>
        <pt x="171" y="707" on="0"/>
        <pt x="171" y="687" on="1"/>
      </contour>
      <contour>
        <pt x="93" y="9" on="1"/>
        <pt x="117" y="9" on="0"/>
        <pt x="136" y="31" on="0"/>
        <pt x="136" y="60" on="1"/>
        <pt x="136" y="443" on="1"/>
        <pt x="136" y="472" on="0"/>
        <pt x="117" y="493" on="0"/>
        <pt x="93" y="493" on="1"/>
        <pt x="69" y="493" on="0"/>
        <pt x="55" y="470" on="0"/>
        <pt x="55" y="440" on="1"/>
        <pt x="55" y="62" on="1"/>
        <pt x="55" y="33" on="0"/>
        <pt x="69" y="9" on="0"/>
      </contour>
    </TTGlyph>
    <TTGlyph name="exclam" xMin="20" yMin="0" xMax="55" yMax="700">
      <contour>
        <pt x="20" y="0" on="1"/>
        <pt x="20" y="64" on="1"/>
        <pt x="55" y="64" on="1"/>
        <pt x="55" y="0" on="1"/>
      </contour>
      <contour>
        <pt x="26" y="200" on="1"/>
        <pt x="20" y="700" on="1"/>
        <pt x="55" y="700" on="1"/>
        <pt x="49" y="200" on="1"/>
      </contour>
    </TTGlyph>
    <TTGlyph name="exclamdown" xMin="20" yMin="-200" xMax="55" yMax="500">
      <contour>
        <pt x="55" y="500" on="1"/>
        <pt x="55" y="436" on="1"/>
        <pt x="20" y="436" on="1"/>
        <pt x="20" y="500" on="1"/>
      </contour>
      <contour>
        <pt x="49" y="300" on="1"/>
        <pt x="55" y="-200" on="1"/>
        <pt x="20" y="-200" on="1"/>
        <pt x="26" y="300" on="1"/>
      </contour>
    </TTGlyph>
    <TTGlyph name="f" xMin="-4" yMin="0" xMax="153" yMax="750">
      <contour>
        <pt x="140" y="710" on="1"/>
        <pt x="134" y="739" on="0"/>
        <pt x="78" y="739" on="0"/>
        <pt x="61" y="712" on="0"/>
        <pt x="61" y="683" on="1"/>
        <pt x="61" y="500" on="1"/>
        <pt x="121" y="500" on="1"/>
        <pt x="121" y="485" on="1"/>
        <pt x="61" y="485" on="1"/>
        <pt x="61" y="0" on="1"/>
        <pt x="26" y="0" on="1"/>
        <pt x="26" y="485" on="1"/>
        <pt x="-4" y="485" on="1"/>
        <pt x="-4" y="500" on="1"/>
        <pt x="26" y="500" on="1"/>
        <pt x="26" y="687" on="1"/>
        <pt x="26" y="750" on="0"/>
        <pt x="102" y="750" on="1"/>
        <pt x="146" y="750" on="0"/>
        <pt x="153" y="713" on="1"/>
      </contour>
    </TTGlyph>
    <TTGlyph name="five" xMin="20" yMin="-5" xMax="171" yMax="700">
      <contour>
        <pt x="171" y="57" on="1"/>
        <pt x="171" y="-5" on="0"/>
        <pt x="20" y="-5" on="0"/>
        <pt x="20" y="59" on="1"/>
        <pt x="20" y="200" on="1"/>
        <pt x="55" y="200" on="1"/>
        <pt x="55" y="62" on="1"/>
        <pt x="55" y="33" on="0"/>
        <pt x="69" y="9" on="0"/>
        <pt x="93" y="9" on="1"/>
        <pt x="117" y="9" on="0"/>
        <pt x="136" y="31" on="0"/>
        <pt x="136" y="60" on="1"/>
        <pt x="136" y="350" on="1"/>
        <pt x="136" y="377" on="0"/>
        <pt x="120" y="399" on="0"/>
        <pt x="100" y="401" on="1"/>
        <pt x="29" y="401" on="1"/>
        <pt x="29" y="700" on="1"/>
        <pt x="171" y="700" on="1"/>
        <pt x="171" y="685" on="1"/>
        <pt x="64" y="685" on="1"/>
        <pt x="64" y="415" on="1"/>
        <pt x="104" y="415" on="1"/>
        <pt x="171" y="411" on="0"/>
        <pt x="171" y="353" on="1"/>
      </contour>
    </TTGlyph>
    <TTGlyph name="four" xMin="19" yMin="0" xMax="196" yMax="700">
      <contour>
        <pt x="175" y="700" on="1"/>
        <pt x="175" y="199" on="1"/>
        <pt x="196" y="199" on="1"/>
        <pt x="196" y="184" on="1"/>
        <pt x="175" y="184" on="1"/>
        <pt x="175" y="0" on="1"/>
        <pt x="140" y="0" on="1"/>
        <pt x="140" y="184" on="1"/>
        <pt x="19" y="184" on="1"/>
        <pt x="160" y="700" on="1"/>
      </contour>
      <contour>
        <pt x="140" y="199" on="1"/>
        <pt x="140" y="573" on="1"/>
        <pt x="38" y="199" on="1"/>
      </contour>
    </TTGlyph>
    <TTGlyph name="g" xMin="20" yMin="-200" xMax="182" yMax="508">
      <contour>
        <pt x="40" y="163" on="1"/>
        <pt x="7" y="205" on="0"/>
        <pt x="37" y="250" on="1"/>
        <pt x="20" y="266" on="0"/>
        <pt x="20" y="299" on="1"/>
        <pt x="20" y="446" on="1"/>
        <pt x="20" y="508" on="0"/>
        <pt x="97" y="508" on="1"/>
        <pt x="182" y="508" on="1"/>
        <pt x="182" y="493" on="1"/>
        <pt x="152" y="493" on="1"/>
        <pt x="171" y="477" on="0"/>
        <pt x="171" y="444" on="1"/>
        <pt x="171" y="297" on="1"/>
        <pt x="171" y="235" on="0"/>
        <pt x="93" y="235" on="1"/>
        <pt x="65" y="235" on="0"/>
        <pt x="50" y="242" on="1"/>
        <pt x="38" y="225" on="0"/>
        <pt x="38" y="215" on="1"/>
        <pt x="38" y="190" on="0"/>
        <pt x="52" y="170" on="1"/>
        <pt x="71" y="178" on="0"/>
        <pt x="98" y="178" on="1"/>
        <pt x="171" y="178" on="0"/>
        <pt x="171" y="114" on="1"/>
        <pt x="171" y="-138" on="1"/>
        <pt x="171" y="-200" on="0"/>
        <pt x="20" y="-200" on="0"/>
        <pt x="20" y="-136" on="1"/>
        <pt x="20" y="116" on="1"/>
        <pt x="20" y="148" on="0"/>
      </contour>
      <contour>
        <pt x="136" y="110" on="1"/>
        <pt x="136" y="140" on="0"/>
        <pt x="122" y="163" on="0"/>
        <pt x="98" y="163" on="1"/>
        <pt x="74" y="163" on="0"/>
        <pt x="55" y="142" on="0"/>
        <pt x="55" y="113" on="1"/>
        <pt x="55" y="-133" on="1"/>
        <pt x="55" y="-162" on="0"/>
        <pt x="69" y="-186" on="0"/>
        <pt x="93" y="-186" on="1"/>
        <pt x="117" y="-186" on="0"/>
        <pt x="136" y="-164" on="0"/>
        <pt x="136" y="-135" on="1"/>
      </contour>
      <contour>
        <pt x="136" y="440" on="1"/>
        <pt x="136" y="470" on="0"/>
        <pt x="122" y="493" on="0"/>
        <pt x="98" y="493" on="1"/>
        <pt x="74" y="493" on="0"/>
        <pt x="55" y="472" on="0"/>
        <pt x="55" y="443" on="1"/>
        <pt x="55" y="302" on="1"/>
        <pt x="55" y="273" on="0"/>
        <pt x="69" y="249" on="0"/>
        <pt x="93" y="249" on="1"/>
        <pt x="117" y="249" on="0"/>
        <pt x="136" y="271" on="0"/>
        <pt x="136" y="300" on="1"/>
      </contour>
    </TTGlyph>
    <TTGlyph name="germandbls" xMin="-4" yMin="-6" xMax="297" yMax="750">
      <contour>
        <pt x="297" y="57" on="1"/>
        <pt x="297" y="-6" on="0"/>
        <pt x="146" y="-6" on="0"/>
        <pt x="146" y="60" on="1"/>
        <pt x="146" y="129" on="1"/>
        <pt x="181" y="129" on="1"/>
        <pt x="181" y="61" on="1"/>
        <pt x="181" y="32" on="0"/>
        <pt x="197" y="5" on="0"/>
        <pt x="245" y="5" on="0"/>
        <pt x="262" y="32" on="0"/>
        <pt x="262" y="61" on="1"/>
        <pt x="262" y="131" on="1"/>
        <pt x="262" y="176" on="0"/>
        <pt x="235" y="228" on="0"/>
        <pt x="182" y="275" on="0"/>
        <pt x="142" y="323" on="0"/>
        <pt x="142" y="362" on="1"/>
        <pt x="142" y="683" on="1"/>
        <pt x="142" y="712" on="0"/>
        <pt x="125" y="739" on="0"/>
        <pt x="77" y="739" on="0"/>
        <pt x="61" y="712" on="0"/>
        <pt x="61" y="683" on="1"/>
        <pt x="61" y="0" on="1"/>
        <pt x="26" y="0" on="1"/>
        <pt x="26" y="484" on="1"/>
        <pt x="-4" y="484" on="1"/>
        <pt x="-4" y="500" on="1"/>
        <pt x="26" y="500" on="1"/>
        <pt x="26" y="684" on="1"/>
        <pt x="26" y="750" on="0"/>
        <pt x="177" y="750" on="0"/>
        <pt x="177" y="687" on="1"/>
        <pt x="177" y="366" on="1"/>
        <pt x="177" y="335" on="0"/>
        <pt x="187" y="320" on="1"/>
        <pt x="203" y="296" on="0"/>
        <pt x="243" y="261" on="0"/>
        <pt x="266" y="236" on="0"/>
        <pt x="276" y="220" on="1"/>
        <pt x="297" y="184" on="0"/>
        <pt x="297" y="138" on="1"/>
      </contour>
    </TTGlyph>
    <TTGlyph name="grave" xMin="45" yMin="540" xMax="98" yMax="650">
      <contour>
        <pt x="64" y="650" on="1"/>
        <pt x="98" y="540" on="1"/>
        <pt x="82" y="540" on="1"/>
        <pt x="45" y="650" on="1"/>
      </contour>
    </TTGlyph>
    <TTGlyph name="greater" xMin="20" yMin="164" xMax="179" yMax="500">
      <contour>
        <pt x="39" y="164" on="1"/>
        <pt x="20" y="164" on="1"/>
        <pt x="157" y="332" on="1"/>
        <pt x="20" y="500" on="1"/>
        <pt x="39" y="500" on="1"/>
        <pt x="179" y="332" on="1"/>
      </contour>
    </TTGlyph>
    <TTGlyph name="guillemotleft" xMin="20" yMin="164" xMax="287" yMax="500">
      <contour>
        <pt x="160" y="500" on="1"/>
        <pt x="172" y="500" on="1"/>
        <pt x="40" y="332" on="1"/>
        <pt x="172" y="164" on="1"/>
        <pt x="160" y="164" on="1"/>
        <pt x="20" y="332" on="1"/>
      </contour>
      <contour>
        <pt x="275" y="500" on="1"/>
        <pt x="287" y="500" on="1"/>
        <pt x="155" y="332" on="1"/>
        <pt x="287" y="164" on="1"/>
        <pt x="275" y="164" on="1"/>
        <pt x="135" y="332" on="1"/>
      </contour>
    </TTGlyph>
    <TTGlyph name="guillemotright" xMin="20" yMin="164" xMax="287" yMax="500">
      <contour>
        <pt x="147" y="164" on="1"/>
        <pt x="135" y="164" on="1"/>
        <pt x="266" y="332" on="1"/>
        <pt x="135" y="500" on="1"/>
        <pt x="147" y="500" on="1"/>
        <pt x="287" y="332" on="1"/>
      </contour>
      <contour>
        <pt x="32" y="164" on="1"/>
        <pt x="20" y="164" on="1"/>
        <pt x="151" y="332" on="1"/>
        <pt x="20" y="500" on="1"/>
        <pt x="32" y="500" on="1"/>
        <pt x="172" y="332" on="1"/>
      </contour>
    </TTGlyph>
    <TTGlyph name="guilsinglleft" xMin="20" yMin="164" xMax="172" yMax="500">
      <contour>
        <pt x="160" y="500" on="1"/>
        <pt x="172" y="500" on="1"/>
        <pt x="40" y="332" on="1"/>
        <pt x="172" y="164" on="1"/>
        <pt x="160" y="164" on="1"/>
        <pt x="20" y="332" on="1"/>
      </contour>
    </TTGlyph>
    <TTGlyph name="guilsinglright" xMin="20" yMin="164" xMax="173" yMax="500">
      <contour>
        <pt x="173" y="332" on="1"/>
        <pt x="33" y="164" on="1"/>
        <pt x="20" y="164" on="1"/>
        <pt x="151" y="332" on="1"/>
        <pt x="20" y="500" on="1"/>
        <pt x="33" y="500" on="1"/>
      </contour>
    </TTGlyph>
    <TTGlyph name="h" xMin="20" yMin="0" xMax="171" yMax="750">
      <contour>
        <pt x="20" y="0" on="1"/>
        <pt x="20" y="750" on="1"/>
        <pt x="55" y="750" on="1"/>
        <pt x="55" y="501" on="1"/>
        <pt x="72" y="508" on="0"/>
        <pt x="98" y="508" on="1"/>
        <pt x="170" y="508" on="0"/>
        <pt x="171" y="447" on="1"/>
        <pt x="171" y="0" on="1"/>
        <pt x="136" y="0" on="1"/>
        <pt x="136" y="440" on="1"/>
        <pt x="136" y="470" on="0"/>
        <pt x="122" y="493" on="0"/>
        <pt x="98" y="493" on="1"/>
        <pt x="74" y="493" on="0"/>
        <pt x="55" y="472" on="0"/>
        <pt x="55" y="443" on="1"/>
        <pt x="55" y="0" on="1"/>
      </contour>
    </TTGlyph>
    <TTGlyph name="hyphen" xMin="20" yMin="301" xMax="129" yMax="316">
      <contour>
        <pt x="20" y="316" on="1"/>
        <pt x="129" y="316" on="1"/>
        <pt x="129" y="301" on="1"/>
        <pt x="20" y="301" on="1"/>
      </contour>
    </TTGlyph>
    <TTGlyph name="i" xMin="20" yMin="0" xMax="55" yMax="700">
      <contour>
        <pt x="20" y="0" on="1"/>
        <pt x="20" y="500" on="1"/>
        <pt x="55" y="500" on="1"/>
        <pt x="55" y="0" on="1"/>
      </contour>
      <contour>
        <pt x="27" y="620" on="1"/>
        <pt x="25" y="700" on="1"/>
        <pt x="51" y="700" on="1"/>
        <pt x="49" y="620" on="1"/>
      </contour>
    </TTGlyph>
    <TTGlyph name="iacute" xMin="20" yMin="0" xMax="84" yMax="650">
      <contour>
        <pt x="20" y="0" on="1"/>
        <pt x="20" y="500" on="1"/>
        <pt x="55" y="500" on="1"/>
        <pt x="55" y="0" on="1"/>
      </contour>
      <contour>
        <pt x="84" y="650" on="1"/>
        <pt x="47" y="540" on="1"/>
        <pt x="31" y="540" on="1"/>
        <pt x="65" y="650" on="1"/>
      </contour>
    </TTGlyph>
    <TTGlyph name="icircumflex" xMin="1" yMin="0" xMax="121" yMax="643">
      <contour>
        <pt x="43" y="0" on="1"/>
        <pt x="43" y="500" on="1"/>
        <pt x="78" y="500" on="1"/>
        <pt x="78" y="0" on="1"/>
      </contour>
      <contour>
        <pt x="1" y="540" on="1"/>
        <pt x="61" y="643" on="1"/>
        <pt x="121" y="540" on="1"/>
        <pt x="109" y="540" on="1"/>
        <pt x="61" y="615" on="1"/>
        <pt x="13" y="540" on="1"/>
      </contour>
    </TTGlyph>
    <TTGlyph name="idieresis" xMin="2" yMin="0" xMax="138" yMax="620">
      <contour>
        <pt x="50" y="0" on="1"/>
        <pt x="50" y="500" on="1"/>
        <pt x="85" y="500" on="1"/>
        <pt x="85" y="0" on="1"/>
      </contour>
      <contour>
        <pt x="4" y="540" on="1"/>
        <pt x="2" y="620" on="1"/>
        <pt x="29" y="620" on="1"/>
        <pt x="27" y="540" on="1"/>
      </contour>
      <contour>
        <pt x="113" y="540" on="1"/>
        <pt x="111" y="620" on="1"/>
        <pt x="138" y="620" on="1"/>
        <pt x="136" y="540" on="1"/>
      </contour>
    </TTGlyph>
    <TTGlyph name="igrave" xMin="-10" yMin="0" xMax="55" yMax="650">
      <contour>
        <pt x="20" y="0" on="1"/>
        <pt x="20" y="500" on="1"/>
        <pt x="55" y="500" on="1"/>
        <pt x="55" y="0" on="1"/>
      </contour>
      <contour>
        <pt x="9" y="650" on="1"/>
        <pt x="43" y="540" on="1"/>
        <pt x="27" y="540" on="1"/>
        <pt x="-10" y="650" on="1"/>
      </contour>
    </TTGlyph>
    <TTGlyph name="j" xMin="-35" yMin="-200" xMax="60" yMax="700">
      <contour>
        <pt x="-30" y="-185" on="1"/>
        <pt x="-21" y="-188" on="0"/>
        <pt x="-9" y="-188" on="1"/>
        <pt x="25" y="-188" on="0"/>
        <pt x="25" y="-133" on="1"/>
        <pt x="25" y="500" on="1"/>
        <pt x="60" y="500" on="1"/>
        <pt x="60" y="-137" on="1"/>
        <pt x="60" y="-167" on="0"/>
        <pt x="24" y="-200" on="0"/>
        <pt x="-24" y="-200" on="0"/>
        <pt x="-35" y="-196" on="1"/>
      </contour>
      <contour>
        <pt x="32" y="620" on="1"/>
        <pt x="30" y="700" on="1"/>
        <pt x="56" y="700" on="1"/>
        <pt x="54" y="620" on="1"/>
      </contour>
    </TTGlyph>
    <TTGlyph name="k" xMin="20" yMin="0" xMax="174" yMax="750">
      <contour>
        <pt x="20" y="0" on="1"/>
        <pt x="20" y="750" on="1"/>
        <pt x="55" y="750" on="1"/>
        <pt x="55" y="306" on="1"/>
        <pt x="139" y="499" on="1"/>
        <pt x="153" y="499" on="1"/>
        <pt x="69" y="306" on="1"/>
        <pt x="174" y="0" on="1"/>
        <pt x="139" y="0" on="1"/>
        <pt x="55" y="245" on="1"/>
        <pt x="55" y="0" on="1"/>
      </contour>
    </TTGlyph>
    <TTGlyph name="l" xMin="20" yMin="0" xMax="55" yMax="750">
      <contour>
        <pt x="20" y="0" on="1"/>
        <pt x="20" y="750" on="1"/>
        <pt x="55" y="750" on="1"/>
        <pt x="55" y="0" on="1"/>
      </contour>
    </TTGlyph>
    <TTGlyph name="less" xMin="20" yMin="164" xMax="179" yMax="500">
      <contour>
        <pt x="160" y="500" on="1"/>
        <pt x="179" y="500" on="1"/>
        <pt x="42" y="332" on="1"/>
        <pt x="179" y="164" on="1"/>
        <pt x="160" y="164" on="1"/>
        <pt x="20" y="332" on="1"/>
      </contour>
    </TTGlyph>
    <TTGlyph name="logicalnot" xMin="20" yMin="250" xMax="299" yMax="316">
      <contour>
        <pt x="20" y="316" on="1"/>
        <pt x="299" y="316" on="1"/>
        <pt x="299" y="299" on="1"/>
        <pt x="298" y="299" on="1"/>
        <pt x="298" y="250" on="1"/>
        <pt x="283" y="250" on="1"/>
        <pt x="283" y="301" on="1"/>
        <pt x="20" y="301" on="1"/>
      </contour>
    </TTGlyph>
    <TTGlyph name="m" xMin="20" yMin="0" xMax="287" yMax="508">
      <contour>
        <pt x="252" y="0" on="1"/>
        <pt x="252" y="440" on="1"/>
        <pt x="252" y="470" on="0"/>
        <pt x="238" y="493" on="0"/>
        <pt x="214" y="493" on="1"/>
        <pt x="190" y="493" on="0"/>
        <pt x="171" y="473" on="0"/>
        <pt x="171" y="444" on="1"/>
        <pt x="171" y="0" on="1"/>
        <pt x="136" y="0" on="1"/>
        <pt x="136" y="440" on="1"/>
        <pt x="136" y="470" on="0"/>
        <pt x="122" y="493" on="0"/>
        <pt x="73" y="493" on="0"/>
        <pt x="55" y="473" on="0"/>
        <pt x="55" y="443" on="1"/>
        <pt x="55" y="0" on="1"/>
        <pt x="20" y="0" on="1"/>
        <pt x="20" y="500" on="1"/>
        <pt x="50" y="500" on="1"/>
        <pt x="50" y="499" on="1"/>
        <pt x="69" y="508" on="0"/>
        <pt x="134" y="508" on="0"/>
        <pt x="153" y="491" on="1"/>
        <pt x="171" y="508" on="0"/>
        <pt x="214" y="508" on="1"/>
        <pt x="287" y="508" on="0"/>
        <pt x="287" y="445" on="1"/>
        <pt x="287" y="0" on="1"/>
      </contour>
    </TTGlyph>
    <TTGlyph name="mu" xMin="20" yMin="-100" xMax="171" yMax="500">
      <contour>
        <pt x="20" y="-100" on="1"/>
        <pt x="20" y="500" on="1"/>
        <pt x="55" y="500" on="1"/>
        <pt x="55" y="60" on="1"/>
        <pt x="55" y="30" on="0"/>
        <pt x="69" y="7" on="0"/>
        <pt x="93" y="7" on="1"/>
        <pt x="117" y="7" on="0"/>
        <pt x="136" y="28" on="0"/>
        <pt x="136" y="57" on="1"/>
        <pt x="136" y="500" on="1"/>
        <pt x="171" y="500" on="1"/>
        <pt x="171" y="0" on="1"/>
        <pt x="141" y="0" on="1"/>
        <pt x="141" y="1" on="1"/>
        <pt x="121" y="-8" on="0"/>
        <pt x="70" y="-8" on="0"/>
        <pt x="55" y="-2" on="1"/>
        <pt x="55" y="-100" on="1"/>
      </contour>
    </TTGlyph>
    <TTGlyph name="multiply" xMin="20" yMin="139" xMax="224" yMax="477">
      <contour>
        <pt x="33" y="477" on="1"/>
        <pt x="122" y="322" on="1"/>
        <pt x="211" y="477" on="1"/>
        <pt x="224" y="469" on="1"/>
        <pt x="130" y="307" on="1"/>
        <pt x="223" y="147" on="1"/>
        <pt x="210" y="139" on="1"/>
        <pt x="122" y="291" on="1"/>
        <pt x="34" y="139" on="1"/>
        <pt x="21" y="147" on="1"/>
        <pt x="113" y="307" on="1"/>
        <pt x="20" y="469" on="1"/>
      </contour>
    </TTGlyph>
    <TTGlyph name="n" xMin="20" yMin="0" xMax="171" yMax="508">
      <contour>
        <pt x="136" y="0" on="1"/>
        <pt x="136" y="440" on="1"/>
        <pt x="136" y="470" on="0"/>
        <pt x="122" y="493" on="0"/>
        <pt x="73" y="493" on="0"/>
        <pt x="55" y="473" on="0"/>
        <pt x="55" y="443" on="1"/>
        <pt x="55" y="0" on="1"/>
        <pt x="20" y="0" on="1"/>
        <pt x="20" y="500" on="1"/>
        <pt x="50" y="500" on="1"/>
        <pt x="50" y="499" on="1"/>
        <pt x="69" y="508" on="0"/>
        <pt x="98" y="508" on="1"/>
        <pt x="171" y="508" on="0"/>
        <pt x="171" y="445" on="1"/>
        <pt x="171" y="0" on="1"/>
      </contour>
    </TTGlyph>
    <TTGlyph name="nine" xMin="20" yMin="-5" xMax="171" yMax="706">
      <contour>
        <pt x="20" y="644" on="1"/>
        <pt x="20" y="706" on="0"/>
        <pt x="171" y="706" on="0"/>
        <pt x="171" y="642" on="1"/>
        <pt x="171" y="59" on="1"/>
        <pt x="171" y="-5" on="0"/>
        <pt x="20" y="-5" on="0"/>
        <pt x="20" y="57" on="1"/>
        <pt x="20" y="201" on="1"/>
        <pt x="55" y="201" on="1"/>
        <pt x="55" y="60" on="1"/>
        <pt x="55" y="31" on="0"/>
        <pt x="74" y="10" on="0"/>
        <pt x="98" y="10" on="1"/>
        <pt x="122" y="10" on="0"/>
        <pt x="136" y="33" on="0"/>
        <pt x="136" y="63" on="1"/>
        <pt x="136" y="302" on="1"/>
        <pt x="118" y="296" on="0"/>
        <pt x="93" y="296" on="1"/>
        <pt x="20" y="296" on="0"/>
        <pt x="20" y="360" on="1"/>
      </contour>
      <contour>
        <pt x="136" y="639" on="1"/>
        <pt x="136" y="668" on="0"/>
        <pt x="122" y="692" on="0"/>
        <pt x="98" y="692" on="1"/>
        <pt x="74" y="692" on="0"/>
        <pt x="55" y="670" on="0"/>
        <pt x="55" y="641" on="1"/>
        <pt x="55" y="364" on="1"/>
        <pt x="55" y="334" on="0"/>
        <pt x="69" y="311" on="0"/>
        <pt x="116" y="311" on="0"/>
        <pt x="135" y="328" on="0"/>
        <pt x="136" y="353" on="1"/>
      </contour>
    </TTGlyph>
    <TTGlyph name="ntilde" xMin="20" yMin="0" xMax="175" yMax="587">
      <contour>
        <pt x="136" y="0" on="1"/>
        <pt x="136" y="440" on="1"/>
        <pt x="136" y="470" on="0"/>
        <pt x="122" y="493" on="0"/>
        <pt x="73" y="493" on="0"/>
        <pt x="55" y="473" on="0"/>
        <pt x="55" y="443" on="1"/>
        <pt x="55" y="0" on="1"/>
        <pt x="20" y="0" on="1"/>
        <pt x="20" y="500" on="1"/>
        <pt x="50" y="500" on="1"/>
        <pt x="50" y="499" on="1"/>
        <pt x="69" y="508" on="0"/>
        <pt x="98" y="508" on="1"/>
        <pt x="171" y="508" on="0"/>
        <pt x="171" y="445" on="1"/>
        <pt x="171" y="0" on="1"/>
      </contour>
      <contour>
        <pt x="175" y="587" on="1"/>
        <pt x="172" y="550" on="0"/>
        <pt x="134" y="550" on="1"/>
        <pt x="116" y="550" on="0"/>
        <pt x="88" y="569" on="0"/>
        <pt x="74" y="578" on="0"/>
        <pt x="63" y="578" on="1"/>
        <pt x="35" y="578" on="0"/>
        <pt x="35" y="550" on="1"/>
        <pt x="25" y="550" on="1"/>
        <pt x="25" y="569" on="0"/>
        <pt x="48" y="587" on="0"/>
        <pt x="77" y="587" on="0"/>
        <pt x="93" y="578" on="0"/>
        <pt x="100" y="573" on="1"/>
        <pt x="120" y="559" on="0"/>
        <pt x="133" y="559" on="1"/>
        <pt x="152" y="559" on="0"/>
        <pt x="160" y="573" on="1"/>
        <pt x="164" y="579" on="0"/>
        <pt x="164" y="587" on="1"/>
      </contour>
    </TTGlyph>
    <TTGlyph name="numbersign" xMin="22" yMin="50" xMax="349" yMax="550">
      <contour>
        <pt x="57" y="400" on="1"/>
        <pt x="136" y="400" on="1"/>
        <pt x="163" y="550" on="1"/>
        <pt x="178" y="550" on="1"/>
        <pt x="151" y="400" on="1"/>
        <pt x="260" y="400" on="1"/>
        <pt x="287" y="550" on="1"/>
        <pt x="302" y="550" on="1"/>
        <pt x="275" y="400" on="1"/>
        <pt x="349" y="400" on="1"/>
        <pt x="346" y="386" on="1"/>
        <pt x="272" y="386" on="1"/>
        <pt x="242" y="216" on="1"/>
        <pt x="317" y="216" on="1"/>
        <pt x="314" y="202" on="1"/>
        <pt x="239" y="202" on="1"/>
        <pt x="213" y="50" on="1"/>
        <pt x="198" y="50" on="1"/>
        <pt x="224" y="202" on="1"/>
        <pt x="115" y="202" on="1"/>
        <pt x="89" y="50" on="1"/>
        <pt x="74" y="50" on="1"/>
        <pt x="100" y="202" on="1"/>
        <pt x="22" y="202" on="1"/>
        <pt x="25" y="216" on="1"/>
        <pt x="103" y="216" on="1"/>
        <pt x="133" y="386" on="1"/>
        <pt x="54" y="386" on="1"/>
      </contour>
      <contour>
        <pt x="118" y="216" on="1"/>
        <pt x="227" y="216" on="1"/>
        <pt x="257" y="386" on="1"/>
        <pt x="148" y="386" on="1"/>
      </contour>
    </TTGlyph>
    <TTGlyph name="o" xMin="20" yMin="-5" xMax="171" yMax="508">
      <contour>
        <pt x="171" y="57" on="1"/>
        <pt x="171" y="-5" on="0"/>
        <pt x="20" y="-5" on="0"/>
        <pt x="20" y="59" on="1"/>
        <pt x="20" y="446" on="1"/>
        <pt x="20" y="508" on="0"/>
        <pt x="171" y="508" on="0"/>
        <pt x="171" y="444" on="1"/>
      </contour>
      <contour>
        <pt x="136" y="440" on="1"/>
        <pt x="136" y="470" on="0"/>
        <pt x="122" y="493" on="0"/>
        <pt x="98" y="493" on="1"/>
        <pt x="74" y="493" on="0"/>
        <pt x="55" y="472" on="0"/>
        <pt x="55" y="443" on="1"/>
        <pt x="55" y="62" on="1"/>
        <pt x="55" y="33" on="0"/>
        <pt x="69" y="9" on="0"/>
        <pt x="93" y="9" on="1"/>
        <pt x="117" y="9" on="0"/>
        <pt x="136" y="31" on="0"/>
        <pt x="136" y="60" on="1"/>
      </contour>
    </TTGlyph>
    <TTGlyph name="oacute" xMin="20" yMin="-5" xMax="171" yMax="650">
      <contour>
        <pt x="171" y="444" on="1"/>
        <pt x="171" y="508" on="0"/>
        <pt x="20" y="508" on="0"/>
        <pt x="20" y="446" on="1"/>
        <pt x="20" y="59" on="1"/>
        <pt x="20" y="-5" on="0"/>
        <pt x="171" y="-5" on="0"/>
        <pt x="171" y="57" on="1"/>
      </contour>
      <contour>
        <pt x="136" y="60" on="1"/>
        <pt x="136" y="31" on="0"/>
        <pt x="117" y="9" on="0"/>
        <pt x="93" y="9" on="1"/>
        <pt x="69" y="9" on="0"/>
        <pt x="55" y="33" on="0"/>
        <pt x="55" y="62" on="1"/>
        <pt x="55" y="443" on="1"/>
        <pt x="55" y="472" on="0"/>
        <pt x="74" y="493" on="0"/>
        <pt x="98" y="493" on="1"/>
        <pt x="122" y="493" on="0"/>
        <pt x="136" y="470" on="0"/>
        <pt x="136" y="440" on="1"/>
      </contour>
      <contour>
        <pt x="143" y="650" on="1"/>
        <pt x="106" y="540" on="1"/>
        <pt x="90" y="540" on="1"/>
        <pt x="124" y="650" on="1"/>
      </contour>
    </TTGlyph>
    <TTGlyph name="ocircumflex" xMin="20" yMin="-5" xMax="171" yMax="643">
      <contour>
        <pt x="171" y="57" on="1"/>
        <pt x="171" y="-5" on="0"/>
        <pt x="20" y="-5" on="0"/>
        <pt x="20" y="59" on="1"/>
        <pt x="20" y="446" on="1"/>
        <pt x="20" y="508" on="0"/>
        <pt x="171" y="508" on="0"/>
        <pt x="171" y="444" on="1"/>
      </contour>
      <contour>
        <pt x="136" y="440" on="1"/>
        <pt x="136" y="470" on="0"/>
        <pt x="122" y="493" on="0"/>
        <pt x="98" y="493" on="1"/>
        <pt x="74" y="493" on="0"/>
        <pt x="55" y="472" on="0"/>
        <pt x="55" y="443" on="1"/>
        <pt x="55" y="62" on="1"/>
        <pt x="55" y="33" on="0"/>
        <pt x="69" y="9" on="0"/>
        <pt x="93" y="9" on="1"/>
        <pt x="117" y="9" on="0"/>
        <pt x="136" y="31" on="0"/>
        <pt x="136" y="60" on="1"/>
      </contour>
      <contour>
        <pt x="36" y="540" on="1"/>
        <pt x="96" y="643" on="1"/>
        <pt x="156" y="540" on="1"/>
        <pt x="144" y="540" on="1"/>
        <pt x="96" y="615" on="1"/>
        <pt x="48" y="540" on="1"/>
      </contour>
    </TTGlyph>
    <TTGlyph name="odieresis" xMin="20" yMin="-5" xMax="171" yMax="620">
      <contour>
        <pt x="171" y="444" on="1"/>
        <pt x="171" y="508" on="0"/>
        <pt x="20" y="508" on="0"/>
        <pt x="20" y="446" on="1"/>
        <pt x="20" y="59" on="1"/>
        <pt x="20" y="-5" on="0"/>
        <pt x="171" y="-5" on="0"/>
        <pt x="171" y="57" on="1"/>
      </contour>
      <contour>
        <pt x="136" y="60" on="1"/>
        <pt x="136" y="31" on="0"/>
        <pt x="117" y="9" on="0"/>
        <pt x="93" y="9" on="1"/>
        <pt x="69" y="9" on="0"/>
        <pt x="55" y="33" on="0"/>
        <pt x="55" y="62" on="1"/>
        <pt x="55" y="443" on="1"/>
        <pt x="55" y="472" on="0"/>
        <pt x="74" y="493" on="0"/>
        <pt x="98" y="493" on="1"/>
        <pt x="122" y="493" on="0"/>
        <pt x="136" y="470" on="0"/>
        <pt x="136" y="440" on="1"/>
      </contour>
      <contour>
        <pt x="30" y="540" on="1"/>
        <pt x="28" y="620" on="1"/>
        <pt x="55" y="620" on="1"/>
        <pt x="53" y="540" on="1"/>
      </contour>
      <contour>
        <pt x="139" y="540" on="1"/>
        <pt x="137" y="620" on="1"/>
        <pt x="164" y="620" on="1"/>
        <pt x="162" y="540" on="1"/>
      </contour>
    </TTGlyph>
    <TTGlyph name="oe" xMin="20" yMin="-5" xMax="287" yMax="508">
      <contour>
        <pt x="20" y="446" on="1"/>
        <pt x="20" y="508" on="0"/>
        <pt x="98" y="508" on="1"/>
        <pt x="137" y="508" on="0"/>
        <pt x="155" y="490" on="1"/>
        <pt x="174" y="506" on="0"/>
        <pt x="214" y="506" on="1"/>
        <pt x="287" y="506" on="0"/>
        <pt x="287" y="442" on="1"/>
        <pt x="287" y="246" on="1"/>
        <pt x="286" y="213" on="0"/>
        <pt x="246" y="185" on="0"/>
        <pt x="186" y="185" on="0"/>
        <pt x="171" y="191" on="1"/>
        <pt x="171" y="62" on="1"/>
        <pt x="171" y="33" on="0"/>
        <pt x="187" y="6" on="0"/>
        <pt x="235" y="6" on="0"/>
        <pt x="252" y="33" on="0"/>
        <pt x="252" y="62" on="1"/>
        <pt x="252" y="130" on="1"/>
        <pt x="287" y="130" on="1"/>
        <pt x="287" y="58" on="1"/>
        <pt x="287" y="-5" on="0"/>
        <pt x="210" y="-5" on="1"/>
        <pt x="173" y="-5" on="0"/>
        <pt x="154" y="12" on="1"/>
        <pt x="136" y="-5" on="0"/>
        <pt x="93" y="-5" on="1"/>
        <pt x="20" y="-5" on="0"/>
        <pt x="20" y="59" on="1"/>
      </contour>
      <contour>
        <pt x="136" y="450" on="1"/>
        <pt x="134" y="474" on="0"/>
        <pt x="120" y="493" on="0"/>
        <pt x="73" y="493" on="0"/>
        <pt x="55" y="472" on="0"/>
        <pt x="55" y="443" on="1"/>
        <pt x="55" y="62" on="1"/>
        <pt x="55" y="33" on="0"/>
        <pt x="69" y="9" on="0"/>
        <pt x="93" y="9" on="1"/>
        <pt x="117" y="9" on="0"/>
        <pt x="136" y="31" on="0"/>
        <pt x="136" y="61" on="1"/>
      </contour>
      <contour>
        <pt x="171" y="246" on="1"/>
        <pt x="172" y="220" on="0"/>
        <pt x="186" y="200" on="0"/>
        <pt x="233" y="200" on="0"/>
        <pt x="252" y="221" on="0"/>
        <pt x="252" y="250" on="1"/>
        <pt x="252" y="439" on="1"/>
        <pt x="252" y="468" on="0"/>
        <pt x="238" y="492" on="0"/>
        <pt x="191" y="492" on="0"/>
        <pt x="172" y="472" on="0"/>
        <pt x="171" y="444" on="1"/>
      </contour>
    </TTGlyph>
    <TTGlyph name="ograve" xMin="20" yMin="-5" xMax="171" yMax="650">
      <contour>
        <pt x="171" y="57" on="1"/>
        <pt x="171" y="-5" on="0"/>
        <pt x="20" y="-5" on="0"/>
        <pt x="20" y="59" on="1"/>
        <pt x="20" y="446" on="1"/>
        <pt x="20" y="508" on="0"/>
        <pt x="171" y="508" on="0"/>
        <pt x="171" y="444" on="1"/>
      </contour>
      <contour>
        <pt x="136" y="440" on="1"/>
        <pt x="136" y="470" on="0"/>
        <pt x="122" y="493" on="0"/>
        <pt x="98" y="493" on="1"/>
        <pt x="74" y="493" on="0"/>
        <pt x="55" y="472" on="0"/>
        <pt x="55" y="443" on="1"/>
        <pt x="55" y="62" on="1"/>
        <pt x="55" y="33" on="0"/>
        <pt x="69" y="9" on="0"/>
        <pt x="93" y="9" on="1"/>
        <pt x="117" y="9" on="0"/>
        <pt x="136" y="31" on="0"/>
        <pt x="136" y="60" on="1"/>
      </contour>
      <contour>
        <pt x="71" y="650" on="1"/>
        <pt x="105" y="540" on="1"/>
        <pt x="89" y="540" on="1"/>
        <pt x="52" y="650" on="1"/>
      </contour>
    </TTGlyph>
    <TTGlyph name="one" xMin="20" yMin="0" xMax="96" yMax="700">
      <contour>
        <pt x="20" y="679" on="1"/>
        <pt x="61" y="700" on="1"/>
        <pt x="96" y="700" on="1"/>
        <pt x="96" y="0" on="1"/>
        <pt x="61" y="0" on="1"/>
        <pt x="61" y="683" on="1"/>
        <pt x="32" y="669" on="1"/>
      </contour>
    </TTGlyph>
    <TTGlyph name="onehalf" xMin="20" yMin="0" xMax="237" yMax="750">
      <contour>
        <pt x="173" y="0" on="1"/>
        <pt x="173" y="97" on="1"/>
        <pt x="173" y="133" on="0"/>
        <pt x="198" y="164" on="1"/>
        <pt x="210" y="177" on="0"/>
        <pt x="221" y="196" on="0"/>
        <pt x="221" y="213" on="1"/>
        <pt x="221" y="272" on="1"/>
        <pt x="221" y="284" on="0"/>
        <pt x="215" y="295" on="0"/>
        <pt x="204" y="295" on="1"/>
        <pt x="187" y="295" on="0"/>
        <pt x="187" y="272" on="1"/>
        <pt x="187" y="212" on="1"/>
        <pt x="173" y="212" on="1"/>
        <pt x="173" y="272" on="1"/>
        <pt x="173" y="300" on="0"/>
        <pt x="237" y="300" on="0"/>
        <pt x="237" y="273" on="1"/>
        <pt x="237" y="211" on="1"/>
        <pt x="237" y="191" on="0"/>
        <pt x="221" y="168" on="0"/>
        <pt x="210" y="156" on="1"/>
        <pt x="187" y="131" on="0"/>
        <pt x="187" y="93" on="1"/>
        <pt x="187" y="7" on="1"/>
        <pt x="221" y="7" on="1"/>
        <pt x="221" y="85" on="1"/>
        <pt x="237" y="85" on="1"/>
        <pt x="237" y="0" on="1"/>
      </contour>
      <contour>
        <pt x="20" y="691" on="1"/>
        <pt x="38" y="700" on="1"/>
        <pt x="52" y="700" on="1"/>
        <pt x="52" y="400" on="1"/>
        <pt x="38" y="400" on="1"/>
        <pt x="38" y="693" on="1"/>
        <pt x="26" y="686" on="1"/>
      </contour>
      <contour>
        <pt x="210" y="750" on="1"/>
        <pt x="61" y="0" on="1"/>
        <pt x="38" y="0" on="1"/>
        <pt x="187" y="750" on="1"/>
      </contour>
    </TTGlyph>
    <TTGlyph name="onequarter" xMin="20" yMin="0" xMax="219" yMax="750">
      <contour>
        <pt x="20" y="691" on="1"/>
        <pt x="38" y="700" on="1"/>
        <pt x="52" y="700" on="1"/>
        <pt x="52" y="400" on="1"/>
        <pt x="38" y="400" on="1"/>
        <pt x="38" y="693" on="1"/>
        <pt x="26" y="686" on="1"/>
      </contour>
      <contour>
        <pt x="210" y="750" on="1"/>
        <pt x="61" y="0" on="1"/>
        <pt x="38" y="0" on="1"/>
        <pt x="187" y="750" on="1"/>
      </contour>
      <contour>
        <pt x="210" y="300" on="1"/>
        <pt x="210" y="86" on="1"/>
        <pt x="219" y="86" on="1"/>
        <pt x="219" y="79" on="1"/>
        <pt x="210" y="79" on="1"/>
        <pt x="210" y="0" on="1"/>
        <pt x="195" y="0" on="1"/>
        <pt x="195" y="79" on="1"/>
        <pt x="143" y="79" on="1"/>
        <pt x="204" y="300" on="1"/>
      </contour>
      <contour>
        <pt x="195" y="86" on="1"/>
        <pt x="195" y="245" on="1"/>
        <pt x="151" y="86" on="1"/>
      </contour>
    </TTGlyph>
    <TTGlyph name="onesuperior" xMin="20" yMin="500" xMax="42" yMax="700">
      <contour>
        <pt x="20" y="694" on="1"/>
        <pt x="32" y="700" on="1"/>
        <pt x="42" y="700" on="1"/>
        <pt x="42" y="500" on="1"/>
        <pt x="32" y="500" on="1"/>
        <pt x="32" y="695" on="1"/>
        <pt x="23" y="691" on="1"/>
      </contour>
    </TTGlyph>
    <TTGlyph name="ordfeminine" xMin="20" yMin="500" xMax="95" yMax="756">
      <contour>
        <pt x="78" y="723" on="1"/>
        <pt x="78" y="737" on="0"/>
        <pt x="70" y="751" on="0"/>
        <pt x="46" y="751" on="0"/>
        <pt x="38" y="737" on="0"/>
        <pt x="38" y="723" on="1"/>
        <pt x="38" y="691" on="1"/>
        <pt x="20" y="691" on="1"/>
        <pt x="20" y="725" on="1"/>
        <pt x="20" y="756" on="0"/>
        <pt x="95" y="756" on="0"/>
        <pt x="95" y="723" on="1"/>
        <pt x="95" y="503" on="1"/>
        <pt x="78" y="503" on="1"/>
        <pt x="78" y="505" on="1"/>
        <pt x="70" y="500" on="0"/>
        <pt x="57" y="500" on="1"/>
        <pt x="20" y="500" on="0"/>
        <pt x="20" y="533" on="1"/>
        <pt x="20" y="630" on="1"/>
        <pt x="20" y="661" on="0"/>
        <pt x="59" y="661" on="1"/>
        <pt x="70" y="661" on="0"/>
        <pt x="78" y="658" on="1"/>
      </contour>
      <contour>
        <pt x="38" y="520" on="0"/>
        <pt x="45" y="508" on="0"/>
        <pt x="68" y="508" on="0"/>
        <pt x="77" y="517" on="0"/>
        <pt x="78" y="529" on="1"/>
        <pt x="78" y="625" on="1"/>
        <pt x="78" y="642" on="0"/>
        <pt x="72" y="654" on="0"/>
        <pt x="47" y="654" on="0"/>
        <pt x="38" y="643" on="0"/>
        <pt x="38" y="629" on="1"/>
        <pt x="38" y="535" on="1"/>
      </contour>
    </TTGlyph>
    <TTGlyph name="ordmasculine" xMin="20" yMin="500" xMax="95" yMax="756">
      <contour>
        <pt x="20" y="725" on="1"/>
        <pt x="20" y="756" on="0"/>
        <pt x="95" y="756" on="0"/>
        <pt x="95" y="724" on="1"/>
        <pt x="95" y="530" on="1"/>
        <pt x="95" y="513" on="0"/>
        <pt x="75" y="500" on="0"/>
        <pt x="56" y="500" on="1"/>
        <pt x="20" y="500" on="0"/>
        <pt x="20" y="531" on="1"/>
      </contour>
      <contour>
        <pt x="78" y="721" on="1"/>
        <pt x="78" y="736" on="0"/>
        <pt x="71" y="748" on="0"/>
        <pt x="59" y="748" on="1"/>
        <pt x="47" y="748" on="0"/>
        <pt x="37" y="737" on="0"/>
        <pt x="37" y="723" on="1"/>
        <pt x="37" y="533" on="1"/>
        <pt x="37" y="519" on="0"/>
        <pt x="44" y="507" on="0"/>
        <pt x="56" y="507" on="1"/>
        <pt x="68" y="507" on="0"/>
        <pt x="78" y="518" on="0"/>
        <pt x="78" y="532" on="1"/>
      </contour>
    </TTGlyph>
    <TTGlyph name="oslash" xMin="12" yMin="-5" xMax="191" yMax="508">
      <contour>
        <pt x="26" y="446" on="1"/>
        <pt x="26" y="508" on="0"/>
        <pt x="104" y="508" on="1"/>
        <pt x="152" y="508" on="0"/>
        <pt x="168" y="477" on="1"/>
        <pt x="176" y="500" on="1"/>
        <pt x="191" y="500" on="1"/>
        <pt x="179" y="464" on="1"/>
        <pt x="179" y="445" on="1"/>
        <pt x="177" y="421" on="1"/>
        <pt x="177" y="57" on="1"/>
        <pt x="177" y="23" on="0"/>
        <pt x="137" y="-5" on="0"/>
        <pt x="49" y="-5" on="0"/>
        <pt x="36" y="25" on="1"/>
        <pt x="27" y="0" on="1"/>
        <pt x="12" y="0" on="1"/>
        <pt x="24" y="36" on="1"/>
        <pt x="22" y="47" on="0"/>
        <pt x="24" y="59" on="1"/>
        <pt x="26" y="102" on="1"/>
      </contour>
      <contour>
        <pt x="61" y="149" on="1"/>
        <pt x="142" y="396" on="1"/>
        <pt x="142" y="440" on="1"/>
        <pt x="142" y="470" on="0"/>
        <pt x="128" y="493" on="0"/>
        <pt x="104" y="493" on="1"/>
        <pt x="80" y="493" on="0"/>
        <pt x="61" y="472" on="0"/>
        <pt x="61" y="443" on="1"/>
      </contour>
      <contour>
        <pt x="142" y="350" on="1"/>
        <pt x="61" y="103" on="1"/>
        <pt x="61" y="62" on="1"/>
        <pt x="61" y="33" on="0"/>
        <pt x="75" y="9" on="0"/>
        <pt x="99" y="9" on="1"/>
        <pt x="123" y="9" on="0"/>
        <pt x="142" y="31" on="0"/>
        <pt x="142" y="60" on="1"/>
      </contour>
    </TTGlyph>
    <TTGlyph name="otilde" xMin="20" yMin="-5" xMax="172" yMax="587">
      <contour>
        <pt x="171" y="444" on="1"/>
        <pt x="171" y="508" on="0"/>
        <pt x="20" y="508" on="0"/>
        <pt x="20" y="446" on="1"/>
        <pt x="20" y="59" on="1"/>
        <pt x="20" y="-5" on="0"/>
        <pt x="171" y="-5" on="0"/>
        <pt x="171" y="57" on="1"/>
      </contour>
      <contour>
        <pt x="136" y="60" on="1"/>
        <pt x="136" y="31" on="0"/>
        <pt x="117" y="9" on="0"/>
        <pt x="93" y="9" on="1"/>
        <pt x="69" y="9" on="0"/>
        <pt x="55" y="33" on="0"/>
        <pt x="55" y="62" on="1"/>
        <pt x="55" y="443" on="1"/>
        <pt x="55" y="472" on="0"/>
        <pt x="74" y="493" on="0"/>
        <pt x="98" y="493" on="1"/>
        <pt x="122" y="493" on="0"/>
        <pt x="136" y="470" on="0"/>
        <pt x="136" y="440" on="1"/>
      </contour>
      <contour>
        <pt x="172" y="587" on="1"/>
        <pt x="169" y="550" on="0"/>
        <pt x="130" y="550" on="1"/>
        <pt x="112" y="550" on="0"/>
        <pt x="85" y="569" on="0"/>
        <pt x="71" y="578" on="0"/>
        <pt x="60" y="578" on="1"/>
        <pt x="32" y="578" on="0"/>
        <pt x="32" y="550" on="1"/>
        <pt x="22" y="550" on="1"/>
        <pt x="22" y="570" on="0"/>
        <pt x="45" y="587" on="0"/>
        <pt x="73" y="587" on="0"/>
        <pt x="89" y="578" on="0"/>
        <pt x="96" y="573" on="1"/>
        <pt x="116" y="559" on="0"/>
        <pt x="128" y="559" on="1"/>
        <pt x="148" y="559" on="0"/>
        <pt x="156" y="573" on="1"/>
        <pt x="160" y="579" on="0"/>
        <pt x="160" y="587" on="1"/>
      </contour>
    </TTGlyph>
    <TTGlyph name="p" xMin="20" yMin="-200" xMax="171" yMax="508">
      <contour>
        <pt x="171" y="57" on="1"/>
        <pt x="171" y="-5" on="0"/>
        <pt x="93" y="-5" on="1"/>
        <pt x="70" y="-5" on="0"/>
        <pt x="55" y="1" on="1"/>
        <pt x="55" y="-200" on="1"/>
        <pt x="20" y="-200" on="1"/>
        <pt x="20" y="500" on="1"/>
        <pt x="50" y="500" on="1"/>
        <pt x="50" y="499" on="1"/>
        <pt x="69" y="508" on="0"/>
        <pt x="98" y="508" on="1"/>
        <pt x="171" y="508" on="0"/>
        <pt x="171" y="444" on="1"/>
      </contour>
      <contour>
        <pt x="136" y="440" on="1"/>
        <pt x="136" y="470" on="0"/>
        <pt x="122" y="493" on="0"/>
        <pt x="75" y="493" on="0"/>
        <pt x="56" y="475" on="0"/>
        <pt x="55" y="449" on="1"/>
        <pt x="55" y="62" on="1"/>
        <pt x="55" y="33" on="0"/>
        <pt x="69" y="9" on="0"/>
        <pt x="93" y="9" on="1"/>
        <pt x="117" y="9" on="0"/>
        <pt x="136" y="31" on="0"/>
        <pt x="136" y="60" on="1"/>
      </contour>
    </TTGlyph>
    <TTGlyph name="paragraph" xMin="20" yMin="0" xMax="171" yMax="700">
      <contour>
        <pt x="20" y="638" on="1"/>
        <pt x="20" y="696" on="0"/>
        <pt x="87" y="700" on="1"/>
        <pt x="171" y="700" on="1"/>
        <pt x="171" y="685" on="1"/>
        <pt x="140" y="685" on="1"/>
        <pt x="140" y="359" on="1"/>
        <pt x="171" y="359" on="1"/>
        <pt x="171" y="345" on="1"/>
        <pt x="140" y="345" on="1"/>
        <pt x="140" y="0" on="1"/>
        <pt x="105" y="0" on="1"/>
        <pt x="105" y="345" on="1"/>
        <pt x="93" y="345" on="1"/>
        <pt x="20" y="345" on="0"/>
        <pt x="20" y="409" on="1"/>
      </contour>
      <contour>
        <pt x="55" y="635" on="1"/>
        <pt x="55" y="412" on="1"/>
        <pt x="55" y="383" on="0"/>
        <pt x="69" y="359" on="0"/>
        <pt x="93" y="359" on="1"/>
        <pt x="105" y="359" on="1"/>
        <pt x="105" y="685" on="1"/>
        <pt x="91" y="685" on="1"/>
        <pt x="71" y="683" on="0"/>
        <pt x="55" y="662" on="0"/>
      </contour>
    </TTGlyph>
    <TTGlyph name="parenleft" xMin="20" yMin="-67" xMax="93" yMax="750">
      <contour>
        <pt x="93" y="735" on="1"/>
        <pt x="69" y="735" on="0"/>
        <pt x="55" y="711" on="0"/>
        <pt x="55" y="682" on="1"/>
        <pt x="55" y="1" on="1"/>
        <pt x="55" y="-28" on="0"/>
        <pt x="69" y="-52" on="0"/>
        <pt x="93" y="-52" on="1"/>
        <pt x="93" y="-67" on="1"/>
        <pt x="20" y="-67" on="0"/>
        <pt x="20" y="-3" on="1"/>
        <pt x="20" y="686" on="1"/>
        <pt x="20" y="750" on="0"/>
        <pt x="93" y="750" on="1"/>
      </contour>
    </TTGlyph>
    <TTGlyph name="parenright" xMin="20" yMin="-70" xMax="93" yMax="750">
      <contour>
        <pt x="20" y="750" on="1"/>
        <pt x="93" y="750" on="0"/>
        <pt x="93" y="686" on="1"/>
        <pt x="93" y="-6" on="1"/>
        <pt x="93" y="-70" on="0"/>
        <pt x="20" y="-70" on="1"/>
        <pt x="20" y="-55" on="1"/>
        <pt x="44" y="-55" on="0"/>
        <pt x="58" y="-31" on="0"/>
        <pt x="58" y="-2" on="1"/>
        <pt x="58" y="682" on="1"/>
        <pt x="58" y="711" on="0"/>
        <pt x="44" y="735" on="0"/>
        <pt x="20" y="735" on="1"/>
      </contour>
    </TTGlyph>
    <TTGlyph name="percent" xMin="21" yMin="-7" xMax="342" yMax="508">
      <contour>
        <pt x="24" y="444" on="1"/>
        <pt x="24" y="508" on="0"/>
        <pt x="175" y="508" on="0"/>
        <pt x="175" y="446" on="1"/>
        <pt x="175" y="363" on="1"/>
        <pt x="175" y="301" on="0"/>
        <pt x="24" y="301" on="0"/>
        <pt x="24" y="365" on="1"/>
      </contour>
      <contour>
        <pt x="97" y="316" on="1"/>
        <pt x="121" y="316" on="0"/>
        <pt x="140" y="338" on="0"/>
        <pt x="140" y="367" on="1"/>
        <pt x="140" y="442" on="1"/>
        <pt x="140" y="471" on="0"/>
        <pt x="121" y="492" on="0"/>
        <pt x="97" y="492" on="1"/>
        <pt x="73" y="492" on="0"/>
        <pt x="59" y="469" on="0"/>
        <pt x="59" y="439" on="1"/>
        <pt x="59" y="369" on="1"/>
        <pt x="59" y="340" on="0"/>
        <pt x="73" y="316" on="0"/>
      </contour>
      <contour>
        <pt x="342" y="500" on="1"/>
        <pt x="37" y="0" on="1"/>
        <pt x="21" y="0" on="1"/>
        <pt x="326" y="500" on="1"/>
      </contour>
      <contour>
        <pt x="187" y="136" on="1"/>
        <pt x="187" y="200" on="0"/>
        <pt x="338" y="200" on="0"/>
        <pt x="338" y="138" on="1"/>
        <pt x="338" y="55" on="1"/>
        <pt x="338" y="-7" on="0"/>
        <pt x="187" y="-7" on="0"/>
        <pt x="187" y="57" on="1"/>
      </contour>
      <contour>
        <pt x="260" y="8" on="1"/>
        <pt x="284" y="8" on="0"/>
        <pt x="303" y="30" on="0"/>
        <pt x="303" y="59" on="1"/>
        <pt x="303" y="134" on="1"/>
        <pt x="303" y="163" on="0"/>
        <pt x="284" y="184" on="0"/>
        <pt x="260" y="184" on="1"/>
        <pt x="236" y="184" on="0"/>
        <pt x="222" y="161" on="0"/>
        <pt x="222" y="131" on="1"/>
        <pt x="222" y="61" on="1"/>
        <pt x="222" y="32" on="0"/>
        <pt x="236" y="8" on="0"/>
      </contour>
    </TTGlyph>
    <TTGlyph name="period" xMin="20" yMin="0" xMax="55" yMax="64">
      <contour>
        <pt x="20" y="0" on="1"/>
        <pt x="20" y="64" on="1"/>
        <pt x="55" y="64" on="1"/>
        <pt x="55" y="0" on="1"/>
      </contour>
    </TTGlyph>
    <TTGlyph name="periodcentered" xMin="20" yMin="336" xMax="55" yMax="400">
      <contour>
        <pt x="20" y="336" on="1"/>
        <pt x="20" y="400" on="1"/>
        <pt x="55" y="400" on="1"/>
        <pt x="55" y="336" on="1"/>
      </contour>
    </TTGlyph>
    <TTGlyph name="plus" xMin="20" yMin="150" xMax="278" yMax="450">
      <contour>
        <pt x="20" y="316" on="1"/>
        <pt x="129" y="316" on="1"/>
        <pt x="129" y="450" on="1"/>
        <pt x="164" y="450" on="1"/>
        <pt x="164" y="316" on="1"/>
        <pt x="278" y="316" on="1"/>
        <pt x="278" y="300" on="1"/>
        <pt x="164" y="300" on="1"/>
        <pt x="164" y="150" on="1"/>
        <pt x="129" y="150" on="1"/>
        <pt x="129" y="300" on="1"/>
        <pt x="20" y="300" on="1"/>
      </contour>
    </TTGlyph>
    <TTGlyph name="plusminus" xMin="20" yMin="184" xMax="284" yMax="552">
      <contour>
        <pt x="26" y="418" on="1"/>
        <pt x="135" y="418" on="1"/>
        <pt x="135" y="552" on="1"/>
        <pt x="170" y="552" on="1"/>
        <pt x="170" y="418" on="1"/>
        <pt x="284" y="418" on="1"/>
        <pt x="284" y="402" on="1"/>
        <pt x="170" y="402" on="1"/>
        <pt x="170" y="252" on="1"/>
        <pt x="135" y="252" on="1"/>
        <pt x="135" y="402" on="1"/>
        <pt x="26" y="402" on="1"/>
      </contour>
      <contour>
        <pt x="20" y="199" on="1"/>
        <pt x="280" y="199" on="1"/>
        <pt x="280" y="184" on="1"/>
        <pt x="20" y="184" on="1"/>
      </contour>
    </TTGlyph>
    <TTGlyph name="q" xMin="20" yMin="-200" xMax="171" yMax="508">
      <contour>
        <pt x="20" y="446" on="1"/>
        <pt x="20" y="508" on="0"/>
        <pt x="98" y="508" on="1"/>
        <pt x="124" y="508" on="0"/>
        <pt x="142" y="499" on="1"/>
        <pt x="142" y="500" on="1"/>
        <pt x="171" y="500" on="1"/>
        <pt x="171" y="-200" on="1"/>
        <pt x="136" y="-200" on="1"/>
        <pt x="136" y="2" on="1"/>
        <pt x="119" y="-5" on="0"/>
        <pt x="93" y="-5" on="1"/>
        <pt x="20" y="-5" on="0"/>
        <pt x="20" y="59" on="1"/>
      </contour>
      <contour>
        <pt x="136" y="440" on="1"/>
        <pt x="136" y="470" on="0"/>
        <pt x="122" y="493" on="0"/>
        <pt x="98" y="493" on="1"/>
        <pt x="74" y="493" on="0"/>
        <pt x="55" y="472" on="0"/>
        <pt x="55" y="443" on="1"/>
        <pt x="55" y="62" on="1"/>
        <pt x="55" y="33" on="0"/>
        <pt x="69" y="9" on="0"/>
        <pt x="116" y="9" on="0"/>
        <pt x="134" y="28" on="0"/>
        <pt x="136" y="53" on="1"/>
      </contour>
    </TTGlyph>
    <TTGlyph name="question" xMin="21" yMin="-1" xMax="172" yMax="706">
      <contour>
        <pt x="21" y="640" on="1"/>
        <pt x="21" y="706" on="0"/>
        <pt x="172" y="706" on="0"/>
        <pt x="172" y="643" on="1"/>
        <pt x="172" y="513" on="1"/>
        <pt x="172" y="466" on="0"/>
        <pt x="157" y="407" on="0"/>
        <pt x="111" y="356" on="0"/>
        <pt x="100" y="269" on="0"/>
        <pt x="100" y="200" on="1"/>
        <pt x="75" y="200" on="1"/>
        <pt x="74" y="233" on="0"/>
        <pt x="74" y="272" on="0"/>
        <pt x="75" y="317" on="0"/>
        <pt x="80" y="340" on="1"/>
        <pt x="87" y="378" on="0"/>
        <pt x="130" y="425" on="0"/>
        <pt x="137" y="480" on="0"/>
        <pt x="137" y="518" on="1"/>
        <pt x="137" y="639" on="1"/>
        <pt x="137" y="668" on="0"/>
        <pt x="120" y="695" on="0"/>
        <pt x="72" y="695" on="0"/>
        <pt x="56" y="668" on="0"/>
        <pt x="56" y="639" on="1"/>
        <pt x="56" y="500" on="1"/>
        <pt x="21" y="500" on="1"/>
      </contour>
      <contour>
        <pt x="71" y="-1" on="1"/>
        <pt x="71" y="63" on="1"/>
        <pt x="106" y="63" on="1"/>
        <pt x="106" y="-1" on="1"/>
      </contour>
    </TTGlyph>
    <TTGlyph name="questiondown" xMin="-13" yMin="-199" xMax="138" yMax="508">
      <contour>
        <pt x="-13" y="-136" on="1"/>
        <pt x="-13" y="-199" on="0"/>
        <pt x="138" y="-199" on="0"/>
        <pt x="138" y="-133" on="1"/>
        <pt x="138" y="7" on="1"/>
        <pt x="103" y="7" on="1"/>
        <pt x="103" y="-132" on="1"/>
        <pt x="103" y="-161" on="0"/>
        <pt x="87" y="-188" on="0"/>
        <pt x="39" y="-188" on="0"/>
        <pt x="22" y="-161" on="0"/>
        <pt x="22" y="-132" on="1"/>
        <pt x="22" y="-11" on="1"/>
        <pt x="22" y="27" on="0"/>
        <pt x="29" y="82" on="0"/>
        <pt x="50" y="105" on="1"/>
        <pt x="72" y="132" on="0"/>
        <pt x="78" y="161" on="1"/>
        <pt x="85" y="197" on="0"/>
        <pt x="85" y="274" on="0"/>
        <pt x="84" y="307" on="1"/>
        <pt x="59" y="307" on="1"/>
        <pt x="59" y="238" on="0"/>
        <pt x="48" y="151" on="0"/>
        <pt x="2" y="100" on="0"/>
        <pt x="-13" y="41" on="0"/>
        <pt x="-13" y="-6" on="1"/>
      </contour>
      <contour>
        <pt x="88" y="508" on="1"/>
        <pt x="88" y="444" on="1"/>
        <pt x="53" y="444" on="1"/>
        <pt x="53" y="508" on="1"/>
      </contour>
    </TTGlyph>
    <TTGlyph name="quotedbl" xMin="20" yMin="550" xMax="113" yMax="700">
      <contour>
        <pt x="22" y="550" on="1"/>
        <pt x="20" y="700" on="1"/>
        <pt x="55" y="700" on="1"/>
        <pt x="53" y="550" on="1"/>
      </contour>
      <contour>
        <pt x="80" y="550" on="1"/>
        <pt x="78" y="700" on="1"/>
        <pt x="113" y="700" on="1"/>
        <pt x="111" y="550" on="1"/>
      </contour>
    </TTGlyph>
    <TTGlyph name="quotedblbase" xMin="23" yMin="-95" xMax="183" yMax="55">
      <contour>
        <pt x="44" y="-95" on="1"/>
        <pt x="48" y="0" on="1"/>
        <pt x="27" y="0" on="1"/>
        <pt x="23" y="55" on="1"/>
        <pt x="87" y="55" on="1"/>
        <pt x="59" y="-95" on="1"/>
      </contour>
      <contour>
        <pt x="140" y="-95" on="1"/>
        <pt x="144" y="0" on="1"/>
        <pt x="123" y="0" on="1"/>
        <pt x="119" y="55" on="1"/>
        <pt x="183" y="55" on="1"/>
        <pt x="155" y="-95" on="1"/>
      </contour>
    </TTGlyph>
    <TTGlyph name="quotedblleft" xMin="23" yMin="550" xMax="183" yMax="700">
      <contour>
        <pt x="179" y="605" on="1"/>
        <pt x="183" y="550" on="1"/>
        <pt x="119" y="550" on="1"/>
        <pt x="147" y="700" on="1"/>
        <pt x="162" y="700" on="1"/>
        <pt x="158" y="605" on="1"/>
      </contour>
      <contour>
        <pt x="83" y="605" on="1"/>
        <pt x="87" y="550" on="1"/>
        <pt x="23" y="550" on="1"/>
        <pt x="51" y="700" on="1"/>
        <pt x="66" y="700" on="1"/>
        <pt x="62" y="605" on="1"/>
      </contour>
    </TTGlyph>
    <TTGlyph name="quotedblright" xMin="23" yMin="550" xMax="183" yMax="700">
      <contour>
        <pt x="44" y="550" on="1"/>
        <pt x="48" y="645" on="1"/>
        <pt x="27" y="645" on="1"/>
        <pt x="23" y="700" on="1"/>
        <pt x="87" y="700" on="1"/>
        <pt x="59" y="550" on="1"/>
      </contour>
      <contour>
        <pt x="140" y="550" on="1"/>
        <pt x="144" y="645" on="1"/>
        <pt x="123" y="645" on="1"/>
        <pt x="119" y="700" on="1"/>
        <pt x="183" y="700" on="1"/>
        <pt x="155" y="550" on="1"/>
      </contour>
    </TTGlyph>
    <TTGlyph name="quoteleft" xMin="23" yMin="550" xMax="87" yMax="700">
      <contour>
        <pt x="83" y="605" on="1"/>
        <pt x="87" y="550" on="1"/>
        <pt x="23" y="550" on="1"/>
        <pt x="51" y="700" on="1"/>
        <pt x="66" y="700" on="1"/>
        <pt x="62" y="605" on="1"/>
      </contour>
    </TTGlyph>
    <TTGlyph name="quoteright" xMin="23" yMin="550" xMax="87" yMax="700">
      <contour>
        <pt x="44" y="550" on="1"/>
        <pt x="48" y="645" on="1"/>
        <pt x="27" y="645" on="1"/>
        <pt x="23" y="700" on="1"/>
        <pt x="87" y="700" on="1"/>
        <pt x="59" y="550" on="1"/>
      </contour>
    </TTGlyph>
    <TTGlyph name="quotesinglbase" xMin="23" yMin="-95" xMax="87" yMax="55">
      <contour>
        <pt x="44" y="-95" on="1"/>
        <pt x="48" y="0" on="1"/>
        <pt x="27" y="0" on="1"/>
        <pt x="23" y="55" on="1"/>
        <pt x="87" y="55" on="1"/>
        <pt x="59" y="-95" on="1"/>
      </contour>
    </TTGlyph>
    <TTGlyph name="quotesingle" xMin="20" yMin="550" xMax="55" yMax="700">
      <contour>
        <pt x="22" y="550" on="1"/>
        <pt x="20" y="700" on="1"/>
        <pt x="55" y="700" on="1"/>
        <pt x="53" y="550" on="1"/>
      </contour>
    </TTGlyph>
    <TTGlyph name="r" xMin="20" yMin="0" xMax="171" yMax="506">
      <contour>
        <pt x="54" y="500" on="1"/>
        <pt x="54" y="499" on="1"/>
        <pt x="71" y="506" on="0"/>
        <pt x="97" y="506" on="1"/>
        <pt x="171" y="506" on="0"/>
        <pt x="171" y="440" on="1"/>
        <pt x="171" y="371" on="1"/>
        <pt x="136" y="371" on="1"/>
        <pt x="136" y="439" on="1"/>
        <pt x="136" y="470" on="0"/>
        <pt x="120" y="495" on="0"/>
        <pt x="72" y="495" on="0"/>
        <pt x="55" y="468" on="0"/>
        <pt x="55" y="439" on="1"/>
        <pt x="55" y="0" on="1"/>
        <pt x="20" y="0" on="1"/>
        <pt x="20" y="500" on="1"/>
      </contour>
    </TTGlyph>
    <TTGlyph name="registered" xMin="21" yMin="147" xMax="416" yMax="700">
      <contour>
        <pt x="21" y="494" on="1"/>
        <pt x="23" y="612" on="0"/>
        <pt x="74" y="659" on="1"/>
        <pt x="119" y="700" on="0"/>
        <pt x="224" y="700" on="1"/>
        <pt x="348" y="700" on="0"/>
        <pt x="387" y="636" on="1"/>
        <pt x="406" y="605" on="0"/>
        <pt x="416" y="519" on="0"/>
        <pt x="416" y="466" on="1"/>
        <pt x="416" y="381" on="1"/>
        <pt x="416" y="328" on="0"/>
        <pt x="406" y="242" on="0"/>
        <pt x="387" y="211" on="1"/>
        <pt x="348" y="147" on="0"/>
        <pt x="224" y="147" on="1"/>
        <pt x="119" y="147" on="0"/>
        <pt x="74" y="188" on="1"/>
        <pt x="23" y="235" on="0"/>
        <pt x="21" y="353" on="1"/>
      </contour>
      <contour>
        <pt x="56" y="384" on="1"/>
        <pt x="56" y="259" on="0"/>
        <pt x="90" y="211" on="1"/>
        <pt x="129" y="158" on="0"/>
        <pt x="228" y="158" on="1"/>
        <pt x="324" y="158" on="0"/>
        <pt x="355" y="210" on="1"/>
        <pt x="371" y="237" on="0"/>
        <pt x="381" y="323" on="0"/>
        <pt x="381" y="384" on="1"/>
        <pt x="381" y="463" on="1"/>
        <pt x="381" y="524" on="0"/>
        <pt x="371" y="610" on="0"/>
        <pt x="355" y="637" on="1"/>
        <pt x="324" y="689" on="0"/>
        <pt x="228" y="689" on="1"/>
        <pt x="130" y="689" on="0"/>
        <pt x="92" y="639" on="1"/>
        <pt x="58" y="593" on="0"/>
        <pt x="56" y="475" on="1"/>
      </contour>
      <contour>
        <pt x="235" y="617" on="1"/>
        <pt x="302" y="613" on="0"/>
        <pt x="302" y="555" on="1"/>
        <pt x="302" y="495" on="1"/>
        <pt x="302" y="451" on="0"/>
        <pt x="269" y="438" on="1"/>
        <pt x="302" y="424" on="0"/>
        <pt x="302" y="384" on="1"/>
        <pt x="302" y="247" on="1"/>
        <pt x="267" y="247" on="1"/>
        <pt x="267" y="380" on="1"/>
        <pt x="267" y="407" on="0"/>
        <pt x="251" y="429" on="0"/>
        <pt x="231" y="431" on="1"/>
        <pt x="186" y="431" on="1"/>
        <pt x="186" y="247" on="1"/>
        <pt x="151" y="247" on="1"/>
        <pt x="151" y="617" on="1"/>
      </contour>
      <contour>
        <pt x="186" y="602" on="1"/>
        <pt x="186" y="446" on="1"/>
        <pt x="234" y="446" on="1"/>
        <pt x="255" y="446" on="0"/>
        <pt x="267" y="471" on="0"/>
        <pt x="267" y="499" on="1"/>
        <pt x="267" y="552" on="1"/>
        <pt x="267" y="579" on="0"/>
        <pt x="251" y="600" on="0"/>
        <pt x="231" y="602" on="1"/>
      </contour>
    </TTGlyph>
    <TTGlyph name="ring" xMin="33" yMin="541" xMax="159" yMax="667">
      <contour>
        <pt x="33" y="604" on="1"/>
        <pt x="33" y="631" on="0"/>
        <pt x="69" y="667" on="0"/>
        <pt x="96" y="667" on="1"/>
        <pt x="123" y="667" on="0"/>
        <pt x="159" y="631" on="0"/>
        <pt x="159" y="604" on="1"/>
        <pt x="159" y="577" on="0"/>
        <pt x="123" y="541" on="0"/>
        <pt x="96" y="541" on="1"/>
        <pt x="69" y="541" on="0"/>
        <pt x="33" y="577" on="0"/>
      </contour>
      <contour>
        <pt x="48" y="604" on="1"/>
        <pt x="48" y="584" on="0"/>
        <pt x="75" y="556" on="0"/>
        <pt x="95" y="556" on="1"/>
        <pt x="115" y="556" on="0"/>
        <pt x="143" y="584" on="0"/>
        <pt x="143" y="604" on="1"/>
        <pt x="143" y="624" on="0"/>
        <pt x="115" y="652" on="0"/>
        <pt x="95" y="652" on="1"/>
        <pt x="75" y="652" on="0"/>
        <pt x="48" y="624" on="0"/>
      </contour>
    </TTGlyph>
    <TTGlyph name="s" xMin="21" yMin="-5" xMax="172" yMax="506">
      <contour>
        <pt x="21" y="443" on="1"/>
        <pt x="21" y="506" on="0"/>
        <pt x="172" y="506" on="0"/>
        <pt x="172" y="440" on="1"/>
        <pt x="172" y="377" on="1"/>
        <pt x="137" y="377" on="1"/>
        <pt x="137" y="439" on="1"/>
        <pt x="137" y="468" on="0"/>
        <pt x="121" y="495" on="0"/>
        <pt x="73" y="495" on="0"/>
        <pt x="56" y="468" on="0"/>
        <pt x="56" y="439" on="1"/>
        <pt x="56" y="367" on="1"/>
        <pt x="56" y="337" on="0"/>
        <pt x="66" y="320" on="1"/>
        <pt x="80" y="298" on="0"/>
        <pt x="121" y="259" on="0"/>
        <pt x="143" y="234" on="0"/>
        <pt x="152" y="218" on="1"/>
        <pt x="172" y="182" on="0"/>
        <pt x="172" y="139" on="1"/>
        <pt x="172" y="58" on="1"/>
        <pt x="172" y="-5" on="0"/>
        <pt x="21" y="-5" on="0"/>
        <pt x="21" y="61" on="1"/>
        <pt x="21" y="130" on="1"/>
        <pt x="56" y="130" on="1"/>
        <pt x="56" y="62" on="1"/>
        <pt x="56" y="33" on="0"/>
        <pt x="72" y="6" on="0"/>
        <pt x="120" y="6" on="0"/>
        <pt x="137" y="33" on="0"/>
        <pt x="137" y="62" on="1"/>
        <pt x="137" y="132" on="1"/>
        <pt x="137" y="195" on="0"/>
        <pt x="106" y="232" on="1"/>
        <pt x="96" y="244" on="0"/>
        <pt x="59" y="278" on="0"/>
        <pt x="21" y="327" on="0"/>
        <pt x="21" y="363" on="1"/>
      </contour>
    </TTGlyph>
    <TTGlyph name="section" xMin="22" yMin="-111" xMax="173" yMax="700">
      <contour>
        <pt x="173" y="-48" on="1"/>
        <pt x="173" y="-111" on="0"/>
        <pt x="22" y="-111" on="0"/>
        <pt x="22" y="-45" on="1"/>
        <pt x="22" y="24" on="1"/>
        <pt x="57" y="24" on="1"/>
        <pt x="57" y="-44" on="1"/>
        <pt x="57" y="-73" on="0"/>
        <pt x="73" y="-100" on="0"/>
        <pt x="121" y="-100" on="0"/>
        <pt x="138" y="-73" on="0"/>
        <pt x="138" y="-44" on="1"/>
        <pt x="138" y="26" on="1"/>
        <pt x="138" y="71" on="0"/>
        <pt x="113" y="123" on="0"/>
        <pt x="73" y="159" on="0"/>
        <pt x="50" y="180" on="0"/>
        <pt x="42" y="192" on="1"/>
        <pt x="22" y="220" on="0"/>
        <pt x="22" y="255" on="1"/>
        <pt x="22" y="334" on="1"/>
        <pt x="22" y="400" on="0"/>
        <pt x="96" y="400" on="1"/>
        <pt x="113" y="400" on="0"/>
        <pt x="125" y="396" on="1"/>
        <pt x="116" y="417" on="0"/>
        <pt x="81" y="450" on="0"/>
        <pt x="47" y="484" on="0"/>
        <pt x="22" y="526" on="0"/>
        <pt x="22" y="557" on="1"/>
        <pt x="22" y="634" on="1"/>
        <pt x="22" y="700" on="0"/>
        <pt x="173" y="700" on="0"/>
        <pt x="173" y="637" on="1"/>
        <pt x="173" y="570" on="1"/>
        <pt x="138" y="570" on="1"/>
        <pt x="138" y="633" on="1"/>
        <pt x="138" y="662" on="0"/>
        <pt x="121" y="689" on="0"/>
        <pt x="73" y="689" on="0"/>
        <pt x="57" y="662" on="0"/>
        <pt x="57" y="633" on="1"/>
        <pt x="57" y="561" on="1"/>
        <pt x="57" y="529" on="0"/>
        <pt x="66" y="513" on="1"/>
        <pt x="80" y="492" on="0"/>
        <pt x="110" y="466" on="1"/>
        <pt x="139" y="437" on="0"/>
        <pt x="150" y="419" on="1"/>
        <pt x="173" y="379" on="0"/>
        <pt x="173" y="338" on="1"/>
        <pt x="173" y="252" on="1"/>
        <pt x="173" y="189" on="0"/>
        <pt x="96" y="189" on="1"/>
        <pt x="84" y="189" on="1"/>
        <pt x="95" y="178" on="0"/>
        <pt x="125" y="152" on="0"/>
        <pt x="139" y="134" on="1"/>
        <pt x="173" y="90" on="0"/>
        <pt x="173" y="33" on="1"/>
      </contour>
      <contour>
        <pt x="138" y="336" on="1"/>
        <pt x="134" y="362" on="0"/>
        <pt x="122" y="389" on="0"/>
        <pt x="73" y="389" on="0"/>
        <pt x="57" y="362" on="0"/>
        <pt x="57" y="331" on="1"/>
        <pt x="57" y="261" on="1"/>
        <pt x="57" y="236" on="0"/>
        <pt x="70" y="200" on="0"/>
        <pt x="121" y="200" on="0"/>
        <pt x="138" y="227" on="0"/>
        <pt x="138" y="256" on="1"/>
      </contour>
    </TTGlyph>
    <TTGlyph name="semicolon" xMin="12" yMin="-52" xMax="68" yMax="464">
      <contour>
        <pt x="33" y="400" on="1"/>
        <pt x="33" y="464" on="1"/>
        <pt x="68" y="464" on="1"/>
        <pt x="68" y="400" on="1"/>
      </contour>
      <contour>
        <pt x="12" y="-52" on="1"/>
        <pt x="33" y="80" on="1"/>
        <pt x="68" y="80" on="1"/>
        <pt x="43" y="-52" on="1"/>
      </contour>
    </TTGlyph>
    <TTGlyph name="seven" xMin="20" yMin="0" xMax="175" yMax="700">
      <contour>
        <pt x="61" y="0" on="1"/>
        <pt x="138" y="685" on="1"/>
        <pt x="20" y="685" on="1"/>
        <pt x="20" y="700" on="1"/>
        <pt x="175" y="700" on="1"/>
        <pt x="96" y="0" on="1"/>
      </contour>
    </TTGlyph>
    <TTGlyph name="six" xMin="20" yMin="-5" xMax="171" yMax="706">
      <contour>
        <pt x="171" y="57" on="1"/>
        <pt x="171" y="-5" on="0"/>
        <pt x="20" y="-5" on="0"/>
        <pt x="20" y="59" on="1"/>
        <pt x="20" y="642" on="1"/>
        <pt x="20" y="706" on="0"/>
        <pt x="171" y="706" on="0"/>
        <pt x="171" y="644" on="1"/>
        <pt x="171" y="500" on="1"/>
        <pt x="136" y="500" on="1"/>
        <pt x="136" y="641" on="1"/>
        <pt x="136" y="670" on="0"/>
        <pt x="117" y="691" on="0"/>
        <pt x="93" y="691" on="1"/>
        <pt x="69" y="691" on="0"/>
        <pt x="55" y="668" on="0"/>
        <pt x="55" y="638" on="1"/>
        <pt x="55" y="399" on="1"/>
        <pt x="73" y="405" on="0"/>
        <pt x="98" y="405" on="1"/>
        <pt x="171" y="405" on="0"/>
        <pt x="171" y="341" on="1"/>
      </contour>
      <contour>
        <pt x="55" y="62" on="1"/>
        <pt x="55" y="33" on="0"/>
        <pt x="69" y="9" on="0"/>
        <pt x="93" y="9" on="1"/>
        <pt x="117" y="9" on="0"/>
        <pt x="136" y="31" on="0"/>
        <pt x="136" y="60" on="1"/>
        <pt x="136" y="337" on="1"/>
        <pt x="136" y="367" on="0"/>
        <pt x="122" y="390" on="0"/>
        <pt x="75" y="390" on="0"/>
        <pt x="56" y="373" on="0"/>
        <pt x="55" y="348" on="1"/>
      </contour>
    </TTGlyph>
    <TTGlyph name="slash" xMin="20" yMin="0" xMax="192" yMax="750">
      <contour>
        <pt x="192" y="750" on="1"/>
        <pt x="43" y="0" on="1"/>
        <pt x="20" y="0" on="1"/>
        <pt x="169" y="750" on="1"/>
      </contour>
    </TTGlyph>
    <TTGlyph name="sterling" xMin="4" yMin="49" xMax="175" yMax="650">
      <contour>
        <pt x="24" y="588" on="1"/>
        <pt x="24" y="650" on="0"/>
        <pt x="175" y="650" on="0"/>
        <pt x="175" y="586" on="1"/>
        <pt x="175" y="444" on="1"/>
        <pt x="140" y="444" on="1"/>
        <pt x="140" y="582" on="1"/>
        <pt x="140" y="612" on="0"/>
        <pt x="126" y="635" on="0"/>
        <pt x="102" y="635" on="1"/>
        <pt x="78" y="635" on="0"/>
        <pt x="59" y="614" on="0"/>
        <pt x="59" y="585" on="1"/>
        <pt x="59" y="344" on="1"/>
        <pt x="141" y="344" on="1"/>
        <pt x="141" y="329" on="1"/>
        <pt x="59" y="329" on="1"/>
        <pt x="59" y="64" on="1"/>
        <pt x="156" y="64" on="1"/>
        <pt x="156" y="49" on="1"/>
        <pt x="4" y="49" on="1"/>
        <pt x="4" y="64" on="1"/>
        <pt x="24" y="64" on="1"/>
      </contour>
    </TTGlyph>
    <TTGlyph name="t" xMin="21" yMin="0" xMax="146" yMax="650">
      <contour>
        <pt x="21" y="500" on="1"/>
        <pt x="51" y="500" on="1"/>
        <pt x="51" y="650" on="1"/>
        <pt x="86" y="650" on="1"/>
        <pt x="86" y="500" on="1"/>
        <pt x="146" y="500" on="1"/>
        <pt x="146" y="485" on="1"/>
        <pt x="86" y="485" on="1"/>
        <pt x="86" y="67" on="1"/>
        <pt x="86" y="12" on="0"/>
        <pt x="120" y="12" on="1"/>
        <pt x="132" y="12" on="0"/>
        <pt x="141" y="15" on="1"/>
        <pt x="145" y="4" on="1"/>
        <pt x="134" y="0" on="0"/>
        <pt x="86" y="0" on="0"/>
        <pt x="51" y="33" on="0"/>
        <pt x="51" y="63" on="1"/>
        <pt x="51" y="485" on="1"/>
        <pt x="21" y="485" on="1"/>
      </contour>
    </TTGlyph>
    <TTGlyph name="thorn" xMin="20" yMin="-200" xMax="171" yMax="750">
      <contour>
        <pt x="171" y="57" on="1"/>
        <pt x="171" y="-5" on="0"/>
        <pt x="93" y="-5" on="1"/>
        <pt x="70" y="-5" on="0"/>
        <pt x="55" y="1" on="1"/>
        <pt x="55" y="-200" on="1"/>
        <pt x="20" y="-200" on="1"/>
        <pt x="20" y="750" on="1"/>
        <pt x="55" y="750" on="1"/>
        <pt x="55" y="501" on="1"/>
        <pt x="72" y="508" on="0"/>
        <pt x="98" y="508" on="1"/>
        <pt x="171" y="508" on="0"/>
        <pt x="171" y="444" on="1"/>
      </contour>
      <contour>
        <pt x="136" y="440" on="1"/>
        <pt x="136" y="470" on="0"/>
        <pt x="122" y="493" on="0"/>
        <pt x="98" y="493" on="1"/>
        <pt x="74" y="493" on="0"/>
        <pt x="55" y="472" on="0"/>
        <pt x="55" y="443" on="1"/>
        <pt x="55" y="53" on="1"/>
        <pt x="56" y="29" on="0"/>
        <pt x="70" y="9" on="0"/>
        <pt x="117" y="9" on="0"/>
        <pt x="136" y="31" on="0"/>
        <pt x="136" y="60" on="1"/>
      </contour>
    </TTGlyph>
    <TTGlyph name="three" xMin="20" yMin="-5" xMax="171" yMax="706">
      <contour>
        <pt x="20" y="644" on="1"/>
        <pt x="20" y="706" on="0"/>
        <pt x="171" y="706" on="0"/>
        <pt x="171" y="642" on="1"/>
        <pt x="171" y="429" on="1"/>
        <pt x="171" y="385" on="0"/>
        <pt x="138" y="372" on="1"/>
        <pt x="171" y="358" on="0"/>
        <pt x="171" y="318" on="1"/>
        <pt x="171" y="57" on="1"/>
        <pt x="171" y="-5" on="0"/>
        <pt x="20" y="-5" on="0"/>
        <pt x="20" y="59" on="1"/>
        <pt x="20" y="200" on="1"/>
        <pt x="55" y="200" on="1"/>
        <pt x="55" y="62" on="1"/>
        <pt x="55" y="33" on="0"/>
        <pt x="69" y="9" on="0"/>
        <pt x="93" y="9" on="1"/>
        <pt x="117" y="9" on="0"/>
        <pt x="136" y="31" on="0"/>
        <pt x="136" y="60" on="1"/>
        <pt x="136" y="315" on="1"/>
        <pt x="136" y="341" on="0"/>
        <pt x="120" y="364" on="0"/>
        <pt x="102" y="366" on="1"/>
        <pt x="55" y="366" on="1"/>
        <pt x="55" y="380" on="1"/>
        <pt x="98" y="380" on="1"/>
        <pt x="122" y="380" on="0"/>
        <pt x="136" y="404" on="0"/>
        <pt x="136" y="433" on="1"/>
        <pt x="136" y="638" on="1"/>
        <pt x="136" y="668" on="0"/>
        <pt x="122" y="691" on="0"/>
        <pt x="98" y="691" on="1"/>
        <pt x="74" y="691" on="0"/>
        <pt x="55" y="670" on="0"/>
        <pt x="55" y="641" on="1"/>
        <pt x="55" y="500" on="1"/>
        <pt x="20" y="500" on="1"/>
      </contour>
    </TTGlyph>
    <TTGlyph name="threequarters" xMin="20" yMin="0" xMax="250" yMax="750">
      <contour>
        <pt x="84" y="428" on="1"/>
        <pt x="84" y="402" on="0"/>
        <pt x="20" y="402" on="0"/>
        <pt x="20" y="429" on="1"/>
        <pt x="20" y="490" on="1"/>
        <pt x="34" y="490" on="1"/>
        <pt x="34" y="431" on="1"/>
        <pt x="34" y="418" on="0"/>
        <pt x="40" y="408" on="0"/>
        <pt x="61" y="408" on="0"/>
        <pt x="69" y="417" on="0"/>
        <pt x="69" y="430" on="1"/>
        <pt x="69" y="538" on="1"/>
        <pt x="69" y="559" on="0"/>
        <pt x="54" y="560" on="1"/>
        <pt x="34" y="560" on="1"/>
        <pt x="34" y="566" on="1"/>
        <pt x="53" y="566" on="1"/>
        <pt x="63" y="566" on="0"/>
        <pt x="69" y="576" on="0"/>
        <pt x="69" y="589" on="1"/>
        <pt x="69" y="676" on="1"/>
        <pt x="69" y="690" on="0"/>
        <pt x="63" y="699" on="0"/>
        <pt x="42" y="699" on="0"/>
        <pt x="34" y="690" on="0"/>
        <pt x="34" y="678" on="1"/>
        <pt x="34" y="618" on="1"/>
        <pt x="20" y="618" on="1"/>
        <pt x="20" y="679" on="1"/>
        <pt x="20" y="706" on="0"/>
        <pt x="84" y="706" on="0"/>
        <pt x="84" y="678" on="1"/>
        <pt x="84" y="587" on="1"/>
        <pt x="84" y="569" on="0"/>
        <pt x="70" y="563" on="1"/>
        <pt x="84" y="557" on="0"/>
        <pt x="84" y="540" on="1"/>
      </contour>
      <contour>
        <pt x="241" y="750" on="1"/>
        <pt x="92" y="0" on="1"/>
        <pt x="69" y="0" on="1"/>
        <pt x="218" y="750" on="1"/>
      </contour>
      <contour>
        <pt x="241" y="300" on="1"/>
        <pt x="241" y="86" on="1"/>
        <pt x="250" y="86" on="1"/>
        <pt x="250" y="79" on="1"/>
        <pt x="241" y="79" on="1"/>
        <pt x="241" y="0" on="1"/>
        <pt x="226" y="0" on="1"/>
        <pt x="226" y="79" on="1"/>
        <pt x="174" y="79" on="1"/>
        <pt x="235" y="300" on="1"/>
      </contour>
      <contour>
        <pt x="226" y="86" on="1"/>
        <pt x="226" y="245" on="1"/>
        <pt x="182" y="86" on="1"/>
      </contour>
    </TTGlyph>
    <TTGlyph name="threesuperior" xMin="20" yMin="501" xMax="64" yMax="706">
      <contour>
        <pt x="64" y="518" on="1"/>
        <pt x="64" y="501" on="0"/>
        <pt x="20" y="501" on="0"/>
        <pt x="20" y="519" on="1"/>
        <pt x="20" y="560" on="1"/>
        <pt x="30" y="560" on="1"/>
        <pt x="30" y="520" on="1"/>
        <pt x="30" y="505" on="0"/>
        <pt x="41" y="505" on="1"/>
        <pt x="48" y="505" on="0"/>
        <pt x="54" y="511" on="0"/>
        <pt x="54" y="520" on="1"/>
        <pt x="54" y="593" on="1"/>
        <pt x="54" y="606" on="0"/>
        <pt x="44" y="607" on="1"/>
        <pt x="30" y="607" on="1"/>
        <pt x="30" y="612" on="1"/>
        <pt x="43" y="612" on="1"/>
        <pt x="54" y="612" on="0"/>
        <pt x="54" y="627" on="1"/>
        <pt x="54" y="686" on="1"/>
        <pt x="54" y="701" on="0"/>
        <pt x="43" y="701" on="1"/>
        <pt x="30" y="701" on="0"/>
        <pt x="30" y="687" on="1"/>
        <pt x="30" y="646" on="1"/>
        <pt x="20" y="646" on="1"/>
        <pt x="20" y="688" on="1"/>
        <pt x="20" y="706" on="0"/>
        <pt x="64" y="706" on="0"/>
        <pt x="64" y="687" on="1"/>
        <pt x="64" y="626" on="1"/>
        <pt x="64" y="613" on="0"/>
        <pt x="54" y="609" on="1"/>
        <pt x="64" y="606" on="0"/>
        <pt x="64" y="594" on="1"/>
      </contour>
    </TTGlyph>
    <TTGlyph name="tilde" xMin="20" yMin="550" xMax="170" yMax="587">
      <contour>
        <pt x="170" y="587" on="1"/>
        <pt x="167" y="550" on="0"/>
        <pt x="129" y="550" on="1"/>
        <pt x="111" y="550" on="0"/>
        <pt x="83" y="569" on="0"/>
        <pt x="69" y="578" on="0"/>
        <pt x="58" y="578" on="1"/>
        <pt x="30" y="578" on="0"/>
        <pt x="30" y="550" on="1"/>
        <pt x="20" y="550" on="1"/>
        <pt x="20" y="569" on="0"/>
        <pt x="43" y="587" on="0"/>
        <pt x="72" y="587" on="0"/>
        <pt x="88" y="578" on="0"/>
        <pt x="95" y="573" on="1"/>
        <pt x="115" y="559" on="0"/>
        <pt x="128" y="559" on="1"/>
        <pt x="147" y="559" on="0"/>
        <pt x="155" y="573" on="1"/>
        <pt x="159" y="579" on="0"/>
        <pt x="159" y="587" on="1"/>
      </contour>
    </TTGlyph>
    <TTGlyph name="trademark" xMin="20" yMin="500" xMax="247" yMax="700">
      <contour>
        <pt x="130" y="500" on="1"/>
        <pt x="130" y="700" on="1"/>
        <pt x="146" y="700" on="1"/>
        <pt x="188" y="567" on="1"/>
        <pt x="231" y="700" on="1"/>
        <pt x="247" y="700" on="1"/>
        <pt x="247" y="500" on="1"/>
        <pt x="222" y="500" on="1"/>
        <pt x="222" y="622" on="1"/>
        <pt x="196" y="542" on="1"/>
        <pt x="197" y="541" on="1"/>
        <pt x="180" y="541" on="1"/>
        <pt x="180" y="542" on="1"/>
        <pt x="155" y="622" on="1"/>
        <pt x="155" y="500" on="1"/>
      </contour>
      <contour>
        <pt x="20" y="700" on="1"/>
        <pt x="85" y="700" on="1"/>
        <pt x="85" y="684" on="1"/>
        <pt x="65" y="684" on="1"/>
        <pt x="65" y="500" on="1"/>
        <pt x="40" y="500" on="1"/>
        <pt x="40" y="684" on="1"/>
        <pt x="20" y="684" on="1"/>
      </contour>
    </TTGlyph>
    <TTGlyph name="two" xMin="21" yMin="0" xMax="172" yMax="706">
      <contour>
        <pt x="21" y="640" on="1"/>
        <pt x="21" y="706" on="0"/>
        <pt x="172" y="706" on="0"/>
        <pt x="172" y="643" on="1"/>
        <pt x="172" y="497" on="1"/>
        <pt x="172" y="458" on="0"/>
        <pt x="158" y="434" on="1"/>
        <pt x="139" y="401" on="0"/>
        <pt x="95" y="352" on="0"/>
        <pt x="75" y="321" on="0"/>
        <pt x="68" y="304" on="1"/>
        <pt x="56" y="270" on="0"/>
        <pt x="56" y="220" on="1"/>
        <pt x="56" y="15" on="1"/>
        <pt x="137" y="15" on="1"/>
        <pt x="137" y="200" on="1"/>
        <pt x="172" y="200" on="1"/>
        <pt x="172" y="0" on="1"/>
        <pt x="21" y="0" on="1"/>
        <pt x="21" y="228" on="1"/>
        <pt x="21" y="307" on="0"/>
        <pt x="61" y="360" on="1"/>
        <pt x="72" y="374" on="0"/>
        <pt x="96" y="402" on="0"/>
        <pt x="117" y="427" on="0"/>
        <pt x="124" y="440" on="1"/>
        <pt x="137" y="467" on="0"/>
        <pt x="137" y="502" on="1"/>
        <pt x="137" y="639" on="1"/>
        <pt x="137" y="668" on="0"/>
        <pt x="120" y="695" on="0"/>
        <pt x="72" y="695" on="0"/>
        <pt x="56" y="668" on="0"/>
        <pt x="56" y="639" on="1"/>
        <pt x="56" y="500" on="1"/>
        <pt x="21" y="500" on="1"/>
      </contour>
    </TTGlyph>
    <TTGlyph name="twosuperior" xMin="20" yMin="500" xMax="65" yMax="706">
      <contour>
        <pt x="20" y="500" on="1"/>
        <pt x="20" y="567" on="1"/>
        <pt x="20" y="594" on="0"/>
        <pt x="38" y="612" on="1"/>
        <pt x="46" y="622" on="0"/>
        <pt x="55" y="635" on="0"/>
        <pt x="55" y="646" on="1"/>
        <pt x="55" y="686" on="1"/>
        <pt x="55" y="703" on="0"/>
        <pt x="42" y="703" on="1"/>
        <pt x="31" y="703" on="0"/>
        <pt x="31" y="686" on="1"/>
        <pt x="31" y="646" on="1"/>
        <pt x="20" y="646" on="1"/>
        <pt x="20" y="687" on="1"/>
        <pt x="20" y="706" on="0"/>
        <pt x="65" y="706" on="0"/>
        <pt x="65" y="688" on="1"/>
        <pt x="65" y="645" on="1"/>
        <pt x="65" y="631" on="0"/>
        <pt x="53" y="616" on="0"/>
        <pt x="46" y="606" on="1"/>
        <pt x="31" y="588" on="0"/>
        <pt x="31" y="564" on="1"/>
        <pt x="31" y="505" on="1"/>
        <pt x="55" y="505" on="1"/>
        <pt x="55" y="558" on="1"/>
        <pt x="65" y="558" on="1"/>
        <pt x="65" y="500" on="1"/>
      </contour>
    </TTGlyph>
    <TTGlyph name="u" xMin="20" yMin="-8" xMax="171" yMax="500">
      <contour>
        <pt x="171" y="500" on="1"/>
        <pt x="171" y="0" on="1"/>
        <pt x="141" y="0" on="1"/>
        <pt x="141" y="1" on="1"/>
        <pt x="121" y="-8" on="0"/>
        <pt x="93" y="-8" on="1"/>
        <pt x="20" y="-8" on="0"/>
        <pt x="20" y="56" on="1"/>
        <pt x="20" y="500" on="1"/>
        <pt x="55" y="500" on="1"/>
        <pt x="55" y="60" on="1"/>
        <pt x="55" y="30" on="0"/>
        <pt x="69" y="7" on="0"/>
        <pt x="115" y="7" on="0"/>
        <pt x="134" y="24" on="0"/>
        <pt x="136" y="48" on="1"/>
        <pt x="136" y="500" on="1"/>
      </contour>
    </TTGlyph>
    <TTGlyph name="uacute" xMin="20" yMin="-8" xMax="171" yMax="650">
      <contour>
        <pt x="171" y="500" on="1"/>
        <pt x="171" y="0" on="1"/>
        <pt x="141" y="0" on="1"/>
        <pt x="141" y="1" on="1"/>
        <pt x="121" y="-8" on="0"/>
        <pt x="93" y="-8" on="1"/>
        <pt x="20" y="-8" on="0"/>
        <pt x="20" y="56" on="1"/>
        <pt x="20" y="500" on="1"/>
        <pt x="55" y="500" on="1"/>
        <pt x="55" y="60" on="1"/>
        <pt x="55" y="30" on="0"/>
        <pt x="69" y="7" on="0"/>
        <pt x="115" y="7" on="0"/>
        <pt x="134" y="24" on="0"/>
        <pt x="136" y="48" on="1"/>
        <pt x="136" y="500" on="1"/>
      </contour>
      <contour>
        <pt x="144" y="650" on="1"/>
        <pt x="107" y="540" on="1"/>
        <pt x="91" y="540" on="1"/>
        <pt x="125" y="650" on="1"/>
      </contour>
    </TTGlyph>
    <TTGlyph name="ucircumflex" xMin="20" yMin="-8" xMax="171" yMax="643">
      <contour>
        <pt x="171" y="500" on="1"/>
        <pt x="171" y="0" on="1"/>
        <pt x="141" y="0" on="1"/>
        <pt x="141" y="1" on="1"/>
        <pt x="121" y="-8" on="0"/>
        <pt x="93" y="-8" on="1"/>
        <pt x="20" y="-8" on="0"/>
        <pt x="20" y="56" on="1"/>
        <pt x="20" y="500" on="1"/>
        <pt x="55" y="500" on="1"/>
        <pt x="55" y="60" on="1"/>
        <pt x="55" y="30" on="0"/>
        <pt x="69" y="7" on="0"/>
        <pt x="115" y="7" on="0"/>
        <pt x="134" y="24" on="0"/>
        <pt x="136" y="48" on="1"/>
        <pt x="136" y="500" on="1"/>
      </contour>
      <contour>
        <pt x="36" y="540" on="1"/>
        <pt x="96" y="643" on="1"/>
        <pt x="156" y="540" on="1"/>
        <pt x="144" y="540" on="1"/>
        <pt x="96" y="615" on="1"/>
        <pt x="48" y="540" on="1"/>
      </contour>
    </TTGlyph>
    <TTGlyph name="udieresis" xMin="20" yMin="-8" xMax="171" yMax="620">
      <contour>
        <pt x="171" y="500" on="1"/>
        <pt x="171" y="0" on="1"/>
        <pt x="141" y="0" on="1"/>
        <pt x="141" y="1" on="1"/>
        <pt x="121" y="-8" on="0"/>
        <pt x="93" y="-8" on="1"/>
        <pt x="20" y="-8" on="0"/>
        <pt x="20" y="56" on="1"/>
        <pt x="20" y="500" on="1"/>
        <pt x="55" y="500" on="1"/>
        <pt x="55" y="60" on="1"/>
        <pt x="55" y="30" on="0"/>
        <pt x="69" y="7" on="0"/>
        <pt x="115" y="7" on="0"/>
        <pt x="134" y="24" on="0"/>
        <pt x="136" y="48" on="1"/>
        <pt x="136" y="500" on="1"/>
      </contour>
      <contour>
        <pt x="139" y="540" on="1"/>
        <pt x="137" y="620" on="1"/>
        <pt x="164" y="620" on="1"/>
        <pt x="162" y="540" on="1"/>
      </contour>
      <contour>
        <pt x="30" y="540" on="1"/>
        <pt x="28" y="620" on="1"/>
        <pt x="55" y="620" on="1"/>
        <pt x="53" y="540" on="1"/>
      </contour>
    </TTGlyph>
    <TTGlyph name="ugrave" xMin="20" yMin="-8" xMax="171" yMax="650">
      <contour>
        <pt x="171" y="500" on="1"/>
        <pt x="171" y="0" on="1"/>
        <pt x="141" y="0" on="1"/>
        <pt x="141" y="1" on="1"/>
        <pt x="121" y="-8" on="0"/>
        <pt x="93" y="-8" on="1"/>
        <pt x="20" y="-8" on="0"/>
        <pt x="20" y="56" on="1"/>
        <pt x="20" y="500" on="1"/>
        <pt x="55" y="500" on="1"/>
        <pt x="55" y="60" on="1"/>
        <pt x="55" y="30" on="0"/>
        <pt x="69" y="7" on="0"/>
        <pt x="115" y="7" on="0"/>
        <pt x="134" y="24" on="0"/>
        <pt x="136" y="48" on="1"/>
        <pt x="136" y="500" on="1"/>
      </contour>
      <contour>
        <pt x="73" y="650" on="1"/>
        <pt x="107" y="540" on="1"/>
        <pt x="91" y="540" on="1"/>
        <pt x="54" y="650" on="1"/>
      </contour>
    </TTGlyph>
    <TTGlyph name="underscore" xMin="20" yMin="0" xMax="200" yMax="15">
      <contour>
        <pt x="20" y="15" on="1"/>
        <pt x="200" y="15" on="1"/>
        <pt x="200" y="0" on="1"/>
        <pt x="20" y="0" on="1"/>
      </contour>
    </TTGlyph>
    <TTGlyph name="v" xMin="20" yMin="0" xMax="164" yMax="500">
      <contour>
        <pt x="164" y="500" on="1"/>
        <pt x="88" y="0" on="1"/>
        <pt x="73" y="0" on="1"/>
        <pt x="20" y="500" on="1"/>
        <pt x="55" y="500" on="1"/>
        <pt x="91" y="119" on="1"/>
        <pt x="149" y="500" on="1"/>
      </contour>
    </TTGlyph>
    <TTGlyph name="w" xMin="20" yMin="0" xMax="256" yMax="500">
      <contour>
        <pt x="256" y="500" on="1"/>
        <pt x="180" y="0" on="1"/>
        <pt x="165" y="0" on="1"/>
        <pt x="133" y="297" on="1"/>
        <pt x="88" y="0" on="1"/>
        <pt x="73" y="0" on="1"/>
        <pt x="20" y="500" on="1"/>
        <pt x="55" y="500" on="1"/>
        <pt x="91" y="119" on="1"/>
        <pt x="139" y="438" on="1"/>
        <pt x="153" y="438" on="1"/>
        <pt x="183" y="118" on="1"/>
        <pt x="241" y="500" on="1"/>
      </contour>
    </TTGlyph>
    <TTGlyph name="x" xMin="16" yMin="0" xMax="177" yMax="500">
      <contour>
        <pt x="142" y="0" on="1"/>
        <pt x="86" y="232" on="1"/>
        <pt x="32" y="0" on="1"/>
        <pt x="16" y="0" on="1"/>
        <pt x="78" y="266" on="1"/>
        <pt x="23" y="500" on="1"/>
        <pt x="58" y="500" on="1"/>
        <pt x="105" y="301" on="1"/>
        <pt x="152" y="500" on="1"/>
        <pt x="167" y="500" on="1"/>
        <pt x="113" y="268" on="1"/>
        <pt x="177" y="0" on="1"/>
      </contour>
    </TTGlyph>
    <TTGlyph name="y" xMin="14" yMin="-200" xMax="190" yMax="500">
      <contour>
        <pt x="18" y="-187" on="1"/>
        <pt x="26" y="-189" on="0"/>
        <pt x="34" y="-189" on="1"/>
        <pt x="58" y="-189" on="0"/>
        <pt x="75" y="-156" on="0"/>
        <pt x="78" y="-136" on="1"/>
        <pt x="99" y="1" on="1"/>
        <pt x="21" y="500" on="1"/>
        <pt x="56" y="500" on="1"/>
        <pt x="116" y="115" on="1"/>
        <pt x="175" y="500" on="1"/>
        <pt x="190" y="500" on="1"/>
        <pt x="93" y="-136" on="1"/>
        <pt x="82" y="-200" on="0"/>
        <pt x="37" y="-200" on="1"/>
        <pt x="24" y="-200" on="1"/>
        <pt x="19" y="-200" on="0"/>
        <pt x="14" y="-198" on="1"/>
      </contour>
    </TTGlyph>
    <TTGlyph name="yacute" xMin="14" yMin="-200" xMax="190" yMax="650">
      <contour>
        <pt x="34" y="-189" on="1"/>
        <pt x="26" y="-189" on="0"/>
        <pt x="18" y="-187" on="1"/>
        <pt x="14" y="-198" on="1"/>
        <pt x="19" y="-200" on="0"/>
        <pt x="24" y="-200" on="1"/>
        <pt x="37" y="-200" on="1"/>
        <pt x="82" y="-200" on="0"/>
        <pt x="93" y="-136" on="1"/>
        <pt x="190" y="500" on="1"/>
        <pt x="175" y="500" on="1"/>
        <pt x="116" y="115" on="1"/>
        <pt x="56" y="500" on="1"/>
        <pt x="21" y="500" on="1"/>
        <pt x="99" y="1" on="1"/>
        <pt x="78" y="-136" on="1"/>
        <pt x="75" y="-156" on="0"/>
        <pt x="58" y="-189" on="0"/>
      </contour>
      <contour>
        <pt x="155" y="650" on="1"/>
        <pt x="118" y="540" on="1"/>
        <pt x="102" y="540" on="1"/>
        <pt x="136" y="650" on="1"/>
      </contour>
    </TTGlyph>
    <TTGlyph name="ydieresis" xMin="14" yMin="-200" xMax="190" yMax="620">
      <contour>
        <pt x="34" y="-189" on="1"/>
        <pt x="26" y="-189" on="0"/>
        <pt x="18" y="-187" on="1"/>
        <pt x="14" y="-198" on="1"/>
        <pt x="19" y="-200" on="0"/>
        <pt x="24" y="-200" on="1"/>
        <pt x="37" y="-200" on="1"/>
        <pt x="82" y="-200" on="0"/>
        <pt x="93" y="-136" on="1"/>
        <pt x="190" y="500" on="1"/>
        <pt x="175" y="500" on="1"/>
        <pt x="116" y="115" on="1"/>
        <pt x="56" y="500" on="1"/>
        <pt x="21" y="500" on="1"/>
        <pt x="99" y="1" on="1"/>
        <pt x="78" y="-136" on="1"/>
        <pt x="75" y="-156" on="0"/>
        <pt x="58" y="-189" on="0"/>
      </contour>
      <contour>
        <pt x="46" y="540" on="1"/>
        <pt x="44" y="620" on="1"/>
        <pt x="71" y="620" on="1"/>
        <pt x="69" y="540" on="1"/>
      </contour>
      <contour>
        <pt x="155" y="540" on="1"/>
        <pt x="153" y="620" on="1"/>
        <pt x="180" y="620" on="1"/>
        <pt x="178" y="540" on="1"/>
      </contour>
    </TTGlyph>
    <TTGlyph name="yen" xMin="21" yMin="50" xMax="184" yMax="650">
      <contour>
        <pt x="21" y="280" on="1"/>
        <pt x="80" y="280" on="1"/>
        <pt x="25" y="650" on="1"/>
        <pt x="60" y="650" on="1"/>
        <pt x="112" y="296" on="1"/>
        <pt x="167" y="650" on="1"/>
        <pt x="183" y="650" on="1"/>
        <pt x="123" y="280" on="1"/>
        <pt x="184" y="280" on="1"/>
        <pt x="184" y="265" on="1"/>
        <pt x="121" y="265" on="1"/>
        <pt x="119" y="251" on="1"/>
        <pt x="119" y="178" on="1"/>
        <pt x="184" y="178" on="1"/>
        <pt x="184" y="163" on="1"/>
        <pt x="119" y="163" on="1"/>
        <pt x="119" y="50" on="1"/>
        <pt x="85" y="50" on="1"/>
        <pt x="85" y="163" on="1"/>
        <pt x="21" y="163" on="1"/>
        <pt x="21" y="178" on="1"/>
        <pt x="85" y="178" on="1"/>
        <pt x="85" y="250" on="1"/>
        <pt x="83" y="265" on="1"/>
        <pt x="21" y="265" on="1"/>
      </contour>
    </TTGlyph>
    <TTGlyph name="z" xMin="21" yMin="0" xMax="176" yMax="500">
      <contour>
        <pt x="26" y="500" on="1"/>
        <pt x="175" y="500" on="1"/>
        <pt x="59" y="15" on="1"/>
        <pt x="176" y="15" on="1"/>
        <pt x="176" y="0" on="1"/>
        <pt x="21" y="0" on="1"/>
        <pt x="136" y="485" on="1"/>
        <pt x="26" y="485" on="1"/>
      </contour>
    </TTGlyph>
    <TTGlyph name="zero" xMin="20" yMin="-5" xMax="171" yMax="706">
      <contour>
        <pt x="171" y="57" on="1"/>
        <pt x="171" y="-5" on="0"/>
        <pt x="20" y="-5" on="0"/>
        <pt x="20" y="59" on="1"/>
        <pt x="20" y="644" on="1"/>
        <pt x="20" y="706" on="0"/>
        <pt x="171" y="706" on="0"/>
        <pt x="171" y="642" on="1"/>
      </contour>
      <contour>
        <pt x="136" y="638" on="1"/>
        <pt x="136" y="668" on="0"/>
        <pt x="122" y="691" on="0"/>
        <pt x="98" y="691" on="1"/>
        <pt x="74" y="691" on="0"/>
        <pt x="55" y="670" on="0"/>
        <pt x="55" y="641" on="1"/>
        <pt x="55" y="62" on="1"/>
        <pt x="55" y="33" on="0"/>
        <pt x="69" y="9" on="0"/>
        <pt x="93" y="9" on="1"/>
        <pt x="117" y="9" on="0"/>
        <pt x="136" y="31" on="0"/>
        <pt x="136" y="60" on="1"/>
      </contour>
    </TTGlyph>
</ttFont>
